M48
INCH,TZ
T01C.00787
T02C.04
T03C.09055
T04C.12598
T05C.02559
T06C.05512
;LEADER: 12 
;HEADER: 
;CODE  : ASCII 
;FILE  : D1-1-4.drl for board F:/PCB_PROJECT/D1/PCB/#Taaaaji18016.tmp ... layers TOP and BOTTOM
;T01 Holesize 1. = 7.870000 Tolerance = +0.000000/-0.000000 PLATED MILS Quantity = 1112
;T02 Holesize 2. = 40.000000 Tolerance = +0.000000/-0.000000 PLATED MILS Quantity = 65
;T03 Holesize 3. = 90.550000 Tolerance = +0.000000/-0.000000 PLATED MILS Quantity = 8
;T04 Holesize 4. = 125.980000 Tolerance = +0.000000/-0.000000 PLATED MILS Quantity = 4
;T05 Holesize 5. = 25.590000 Tolerance = +0.000000/-0.000000 NON_PLATED MILS Quantity = 4
;T06 Holesize 6. = 55.120000 Tolerance = +0.000000/-0.000000 NON_PLATED MILS Quantity = 1
%
G90
T01
X6330Y47789
R05Y7000
X7398Y100802
X4365Y103835
X5233Y112659
X9300Y118400
X5233Y119659
X7446Y122654
X5233Y126659
X7100Y127600
X5782Y136132
X5782Y143132
X7000Y149500
X4000Y153400
X11000Y163000
X10900Y160500
X11000Y152000
X19000Y142900
X19100Y138100
X19500Y134000
X10700Y134000
X19200Y118400
X17700Y82900
X17200Y70000
X11574Y69033
X18646Y65398
X11574Y62033
X18646Y58398
X11574Y55033
X11574Y48033
X17427Y40328
R02Y-7000
X24743Y14378
X28463Y50252
X22000Y52300
X28463Y56157
X25646Y58398
X28463Y62063
X25646Y65398
X28027Y65501
X28027Y67773
X28027Y74000
X28027Y78000
X28027Y82000
X27800Y88200
X20000Y95900
X20000Y101900
X23000Y105000
X23000Y109000
X20000Y110700
X22500Y116000
X25600Y131900
X25300Y138000
X25300Y142000
X24400Y146800
X23000Y149700
X23500Y159000
X28900Y172700
X28551Y175349
X25901Y179054
X20437Y183763
X27400Y184000
X24011Y191187
X27182Y191491
X24011Y198187
X26511Y201978
X26511Y208978
X31100Y175500
X34000Y175100
X31700Y170600
X31400Y164300
X30159Y161941
X34498Y158100
X34498Y151100
X34800Y147400
X34700Y135600
X34453Y133090
X34800Y128300
X32025Y113975
X38700Y111500
X36200Y111500
X33700Y111500
X34800Y109400
X37900Y107000
X35000Y107000
X37300Y100400
X34800Y87300
X39400Y85287
X36300Y31000
X32100Y31000
X31039Y24457
X38743Y14378
X31743Y14378
X31039Y8000
X38888Y4380
X45888Y4380
X40875Y32675
X40775Y36175
X40775Y39775
X40775Y43175
X41200Y52700
X41000Y64600
X40000Y70400
X40000Y73200
X39957Y75843
X40480Y79780
X40500Y82600
X42300Y96900
X42500Y99800
X49814Y136500
X49500Y152658
X48700Y156800
X48200Y185100
X42900Y186000
X49700Y197700
X40100Y208000
X52600Y197800
X52600Y188500
X51500Y185000
X54700Y184114
X59661Y182168
X57200Y182200
X53900Y181200
X50645Y179387
X55500Y178700
X50645Y176741
X54524Y160277
X53800Y157900
X55501Y153399
X59400Y140900
X55400Y106100
X55000Y99800
X57658Y96230
R02Y-2500
X56599Y82236
X56898Y68113
X56898Y65467
X55063Y63937
X56851Y62308
X56851Y59661
X56851Y55213
X56851Y52567
X54863Y50937
X56898Y49308
X56898Y46661
X58958Y40830
X56458Y40830
X58958Y38330
X56458Y38330
X58958Y35830
X56458Y35830
X49975Y31275
X51940Y23660
X59700Y7500
X59888Y4380
X52888Y4380
X63885Y3404
X65600Y19300
X66900Y32100
X63795Y32295
X62000Y34400
X64600Y34400
X60758Y47530
X63258Y47530
X60758Y50030
X63258Y50030
X66500Y54600
X69800Y54700
X61000Y54900
X64500Y56500
X68200Y56500
X61000Y57700
X62400Y80700
X62300Y84000
X60158Y91230
R02Y2500
X64289Y114848
X69300Y126500
X67200Y128700
X68200Y131800
X66300Y133700
X69400Y136500
X66300Y136600
X64200Y145200
X67400Y145400
X68800Y150800
X69400Y156000
X60600Y160200
X60452Y185498
X63098Y185498
X69200Y190500
X78646Y175113
X73100Y174300
X75100Y173100
X78700Y172800
X71300Y172800
X73284Y164600
X75841Y152630
X71200Y151000
X71300Y148000
X70564Y129000
X70000Y123900
X73000Y120900
X79100Y119100
X76000Y115900
X70000Y105800
X75600Y79600
X74900Y58100
X71700Y56500
X77400Y55400
X77400Y49100
X73500Y46700
X77500Y41500
X74900Y38000
X78273Y35595
X77400Y25900
X70961Y24457
X77469Y15659
X70469Y15659
X70961Y8000
X77885Y3404
X70885Y3404
X84885Y3404
X85200Y8900
X85000Y30200
X81700Y34300
X84300Y34300
X80758Y48030
X83258Y48030
X80758Y50530
X83258Y50530
X81700Y54200
X84600Y54200
X86778Y54222
X89214Y56124
X81700Y56500
X84600Y56500
X81100Y71500
X81100Y74600
X82797Y78897
X80250Y94850
X89670Y99558
X89670Y102058
X87800Y106300
X86300Y115000
X82400Y123400
X87000Y125600
X82500Y126800
X89200Y127200
X80180Y127827
X88300Y131600
X87800Y139173
X85300Y140100
X89574Y140674
X85628Y150700
X87900Y150700
X87849Y156049
X89800Y157700
X82243Y172757
X80850Y174561
X86000Y174800
X83500Y174900
X95400Y172500
X97410Y169590
X96700Y165900
X90787Y161387
X96000Y161300
X91548Y155811
X92200Y150900
X93800Y149500
X96143Y144814
X92924Y136624
X90278Y136624
X90000Y122500
X96772Y122248
X94800Y118600
X97410Y118410
X99300Y114800
X96200Y110600
X93000Y109600
X94670Y102058
X92170Y102058
X94670Y99558
X92170Y99558
X99800Y55200
X99000Y51000
X94700Y46900
X98379Y35379
X94100Y29200
X90000Y28500
X97200Y20300
X94100Y20300
X92200Y8900
X98885Y3404
X91885Y3404
X105885Y3404
X107000Y11200
X102724Y13998
X105370Y13998
X103000Y35000
X105000Y35000
X102158Y48130
X104658Y48130
X102158Y50630
X104658Y50630
X108800Y54200
X106800Y56100
X108800Y81000
X105800Y86700
X104194Y88306
X107350Y100650
X108700Y109200
X101248Y117772
X102528Y126086
X105086Y126086
X107646Y126086
X105086Y128646
X107646Y128646
X105086Y131204
X107646Y131204
X102528Y136322
X105086Y136322
X107646Y136322
X99968Y141440
X102528Y141440
X105086Y141440
X105086Y149118
X107646Y149118
X105086Y151678
X107646Y151678
X99968Y154236
X105086Y159354
X107646Y159354
X105086Y161914
X102528Y164472
X105086Y164472
X102528Y167032
X99968Y169590
X102528Y169590
X100800Y173900
X108614Y190100
X111800Y176800
X117882Y164472
X110204Y164472
X117882Y161914
X112764Y161914
X117882Y159354
X110204Y159354
X117882Y156796
X112764Y156796
X110204Y156796
X117882Y154236
X115322Y154236
X112764Y154236
X117882Y151678
X115322Y151678
X112764Y151678
X110204Y151678
X117882Y149118
X115322Y149118
X112764Y149118
X110204Y149118
X117882Y146560
X115322Y146560
X112764Y146560
X117882Y141440
X112764Y141440
X117882Y138882
X115322Y138882
X112764Y138882
X110204Y138882
X117882Y136322
X115322Y136322
X112764Y136322
X110204Y136322
X117882Y133764
X115322Y133764
X112764Y133764
X110204Y133764
X117882Y131204
X115322Y131204
X112764Y131204
X117882Y128646
X112764Y128646
X117882Y126086
X112764Y126086
X110204Y126086
X110204Y123528
X116602Y116300
X116602Y113800
X116100Y107200
X111500Y104600
X112100Y95600
X111800Y81000
X113200Y76414
X110914Y76414
X114000Y56100
X110500Y56100
X119300Y54900
X112100Y54300
X116800Y50900
X116700Y46300
X111200Y20400
X114058Y18742
X110038Y13342
X117464Y13164
X119885Y3404
X112885Y3404
X129547Y4438
X122829Y24129
X124518Y26785
X128968Y31876
X126200Y34400
X122658Y47930
X125158Y47930
X122658Y50430
X125158Y50430
X129400Y54600
X127400Y56500
X123100Y63600
X122000Y76300
X125000Y76300
X127800Y76300
X129100Y99200
X128936Y109964
X120100Y112000
X124800Y115500
X120600Y117400
X125900Y117900
X120440Y126086
X125560Y126086
X128118Y126086
X120440Y128646
X128118Y128646
X120440Y131204
X125560Y131200
X120440Y133764
X125560Y133764
X128118Y133764
X120440Y136322
X125560Y136322
X128118Y136322
X120440Y138882
X125560Y138882
X128118Y138882
X120440Y141440
X125560Y141440
X128118Y141440
X120440Y146560
X125560Y146560
X128118Y146560
X120440Y149118
X125560Y149118
X128118Y149118
X125560Y151678
X128118Y151678
X120440Y154236
X125560Y154236
X128118Y154236
X120440Y156796
X125560Y156796
X120440Y159354
X125560Y159354
X128118Y159354
X120440Y161914
X125560Y161914
X128118Y164472
X125500Y183600
X123500Y184900
X126831Y185700
X132300Y196000
X130000Y194400
X139000Y192800
X138300Y186200
X138344Y164477
X133204Y164498
X135796Y161914
X130678Y161914
X130678Y159354
X138354Y156796
X133236Y156796
X130678Y156796
X138354Y154236
X135796Y154236
X133236Y154236
X130678Y154236
X135796Y151678
X130678Y151678
X138384Y149089
X135796Y149118
X133236Y149118
X130678Y149118
X135796Y146560
X133236Y146560
X130678Y146560
X138354Y144000
X135796Y144000
X138354Y141440
X135796Y141440
X133236Y141440
X130678Y141440
X135796Y138882
X133236Y138882
X130678Y138882
X138354Y136322
X135796Y136322
X133236Y136322
X130678Y136322
X130678Y133764
X138354Y131204
X135796Y131204
X132790Y131100
X138354Y128646
X135796Y128646
X130678Y128646
X138354Y126086
X135796Y126086
X130678Y126086
X138354Y123528
X135796Y123528
X139132Y101150
X138170Y83658
X135670Y83658
X139270Y80958
X136770Y80958
X134270Y80958
X132800Y64600
X137400Y59000
X134600Y56500
X131100Y56500
X132700Y54700
X138300Y54200
X136950Y47154
X130000Y27900
X139573Y18968
X132600Y18800
X134700Y17300
X146300Y4300
X141700Y17500
X145479Y17479
X143510Y18968
X147447Y18968
X146400Y28000
X141000Y53700
X147000Y53700
X141058Y67030
X143558Y67030
X141058Y69530
X143558Y69530
X141058Y72030
X143558Y72030
X140670Y83658
X147600Y113800
X149500Y115200
X146032Y118410
X148590Y118410
X143470Y120970
X149400Y122248
X140914Y126086
X143472Y126086
X140914Y128646
X140914Y131204
X143472Y131204
X140896Y136304
X140913Y141440
X143502Y141470
X140914Y144000
X143526Y149123
X140914Y151678
X140914Y156796
X143472Y156796
X140914Y159354
X140914Y161914
X143472Y161914
X146032Y161914
X148590Y167032
X148590Y169590
X144700Y170500
X147700Y178500
X142400Y190100
X145200Y192800
X140800Y195400
X153400Y184800
X158586Y165500
X150400Y163300
X152650Y158150
X155121Y107879
X157500Y106086
X154236Y73300
X154600Y68000
X156296Y65496
X159400Y58311
X151000Y56200
X157800Y52000
X157800Y48000
X154800Y47900
X157800Y44000
X153700Y42200
X150400Y19000
X156200Y18800
X153353Y18800
X168300Y4364
X164100Y13900
X164100Y16200
X167132Y16600
X161228Y18900
X169102Y18968
X163900Y44000
X164000Y48100
X163900Y52000
X165850Y56835
X165850Y69827
X160100Y72100
X165850Y74157
X168900Y90600
X168600Y111200
X161301Y132001
X169800Y135200
X167500Y147000
X168600Y159100
X160100Y167400
X161700Y169500
X169537Y179512
X178400Y188150
X175700Y186100
X174900Y182900
X177400Y181100
X174700Y179400
X171800Y179300
X179800Y177650
X175000Y175700
X177400Y174214
X175000Y172400
X175100Y168800
X177854Y167057
X175100Y165200
X179800Y163400
X174900Y161636
X176900Y160150
X174700Y158000
X179800Y156650
X174700Y154900
X177100Y152900
X174500Y151300
X170414Y151226
X179800Y149650
X178000Y144600
X170100Y144000
X178000Y141812
X170100Y140000
X172900Y135200
X178800Y126500
X174700Y111300
X171500Y111200
X176223Y92276
X174000Y90900
X171500Y90800
X170100Y87100
X176900Y85800
X172900Y84200
X175500Y74000
X171700Y59300
X177500Y50800
X173778Y49800
X179100Y48100
X175714Y48000
X173900Y46000
X172100Y28000
X172537Y18763
X181500Y16000
X189100Y16500
X182000Y24000
X188800Y24100
X182773Y28218
X189773Y28218
X188551Y39649
X182200Y48200
X180600Y50800
X183614Y50800
X187800Y51300
X187800Y54700
X183200Y56000
X187200Y59200
X180100Y69500
X180100Y73300
X188827Y118803
X187900Y123528
X187700Y126677
X182000Y128100
X186986Y129800
X188827Y131402
X185800Y134000
X187614Y136112
X183187Y139955
X184603Y141370
X181701Y146099
X186700Y154900
X188827Y159748
X184400Y159814
X186200Y167200
X188600Y167300
X180600Y170650
X182100Y184650
X194850Y191750
X199674Y155167
X191965Y147161
X195138Y147138
X198313Y140887
X195126Y140850
X195113Y137713
X191989Y137689
X195126Y134551
X199700Y132976
X195100Y131400
X191976Y131402
X195126Y128252
X195114Y125114
X191976Y125102
X195100Y122000
X191976Y121953
X195126Y118803
X191976Y118803
X199000Y87000
X198565Y76267
X192666Y40262
X195368Y8332
X202405Y5416
X209405Y5416
X202405Y12416
X209405Y12416
X202300Y24300
X207000Y28100
X203900Y28200
X209600Y30400
X202300Y45907
X208327Y46773
X204000Y48300
X205600Y51400
X209200Y54300
X208200Y84100
X201450Y85550
X203000Y90500
X209299Y118400
X202730Y123634
X202602Y126409
X207638Y128338
X205800Y131400
X207738Y134538
X203000Y136378
X203000Y139024
X207300Y140300
X200700Y140600
X205300Y142100
X202999Y144599
X205649Y146140
X200511Y147875
X204800Y149650
X203200Y151400
X205199Y153678
X204800Y156650
X202700Y157600
X204711Y160408
X201636Y161564
X204100Y163400
X201100Y165400
X204100Y167150
X202797Y169012
X205600Y170600
X200200Y172400
X203696Y174190
X202200Y175900
X204800Y177650
X200000Y179400
X204800Y181150
X202800Y182644
X205400Y184386
X200600Y185900
X205982Y187663
X201300Y189900
X218900Y193900
X214100Y186900
X217600Y174900
X217173Y169197
X217173Y166047
X217173Y162898
X217173Y159748
X218600Y155024
X214024Y150299
X210987Y144113
X214012Y143988
X218100Y142400
X213987Y140813
X210874Y140850
X217700Y139276
X210874Y134551
X218400Y132976
X218500Y129827
X214000Y128300
X210861Y128239
X218400Y126677
X214024Y125102
X210888Y125088
X217173Y121953
X214024Y122000
X210863Y121963
X215598Y117800
X211800Y117500
X215879Y100252
X216000Y97400
X212000Y97400
X217400Y88300
X213850Y86850
X213800Y83600
X212700Y75600
X216900Y74900
X213600Y70100
X211400Y61200
X211500Y55200
X214100Y53900
X219354Y34121
X219354Y27121
X219476Y13574
X226476Y13574
X223400Y21900
X220700Y22400
X225400Y50400
X223700Y53300
X222000Y63300
X222600Y75000
X222121Y78379
X221800Y89000
X227219Y94552
X220000Y97400
X222879Y100252
X227219Y101552
X221000Y107300
X227000Y107500
X227000Y112500
X222300Y112911
X227100Y117600
X227100Y122300
X227100Y127300
X221700Y132976
X226000Y133200
X221200Y144700
X225100Y154600
X228900Y154700
X220639Y156561
X225100Y159300
X228900Y159300
X225100Y164300
X228900Y164800
X228900Y169200
X225100Y169300
X225000Y172600
X220004Y179986
X227000Y181500
X239542Y216486
X232542Y216486
X239542Y209486
X232542Y209486
X239542Y202486
X232542Y202486
X232200Y199500
X230500Y186300
X236000Y180900
X239100Y178000
X230000Y173100
X236000Y169700
X233600Y152000
X233700Y148000
X233600Y144000
X233300Y140000
X233600Y136000
X230900Y132400
X230900Y127900
X230900Y122900
X230900Y117900
X236800Y117700
X231000Y114300
X239800Y112000
X235900Y111500
X239700Y106400
X236800Y89900
X239700Y87800
X232021Y78379
X237300Y56100
X233800Y52300
X243373Y13073
X240600Y16300
X244600Y16300
X244961Y38034
X244961Y45034
X241000Y50100
X244961Y52034
X244961Y59034
X244900Y77700
X245700Y86600
X245800Y94500
X245800Y103800
X245800Y112500
X248652Y123187
X242461Y125707
X242461Y132707
X241000Y137600
X247299Y139304
X241100Y147100
X241500Y152400
X241500Y154900
X245800Y157600
X248900Y157600
X244000Y185200
X247900Y189500
X246542Y202486
X246542Y209486
X246542Y216486
X252887Y180334
X258301Y176127
X251301Y176127
X258032Y163968
X254000Y163500
X254094Y160494
X256035Y150874
R02Y-4000
X257693Y130131
X251298Y123187
X257600Y109900
X257800Y102600
X255100Y102600
X255000Y92900
X257700Y82900
X255000Y82900
X254000Y73400
X257000Y62800
X254300Y62800
X254594Y54606
X254594Y47606
X254000Y44400
X257100Y34000
X254400Y34000
X265800Y40000
X265800Y42700
X265800Y45200
X265850Y52050
X265500Y69000
X265500Y71700
X265500Y74200
X266500Y78000
X260114Y83900
X269886Y83900
X265400Y89000
X265400Y91700
X265400Y94200
X265400Y97700
X260114Y102700
X269886Y102800
X265500Y109000
X265500Y111700
X265500Y114200
X260900Y118000
X260900Y122000
X260339Y130131
X261968Y133468
X260035Y142874
X264035Y142874
X260035Y146874
X264035Y146874
X260035Y150874
X264035Y150874
X269200Y155500
X263598Y163869
X266244Y163869
X269926Y164335
X269926Y168335
X265000Y168400
X266700Y184100
X273389Y214657
R02Y-7000
X277200Y196900
X274000Y195200
X279800Y184400
X275900Y177100
X271826Y170835
X271826Y166835
X272700Y160300
X272300Y155700
X273300Y153000
X276698Y151276
X276698Y148630
X278000Y143600
X275600Y142100
X275500Y139400
X278450Y134600
X279331Y127231
X274000Y126900
X275000Y112300
X275000Y92600
X278300Y70900
X277000Y43600
X278067Y29670
X278067Y22670
X279300Y10100
X273372Y3576
R02X7000
X281600Y14700
X280331Y62631
X281600Y66800
X281096Y134600
X280601Y154799
X288300Y169400
X280626Y174735
X280626Y178735
X285700Y185000
X285800Y190800
X286173Y194600
X281000Y215300
X289000Y215300
X297000Y215300
X293100Y196900
X299900Y191200
X299400Y184900
X299350Y168350
X298800Y160000
X291000Y155800
X297759Y148985
X297759Y141985
X299345Y97810
R03Y-7000
X299710Y29060
X299710Y22060
X297900Y11000
X294372Y3576
X301372Y3576
X308372Y3576
X307500Y15700
X301563Y15863
X309500Y58300
X309600Y63000
X309300Y68700
X303000Y161000
X307800Y167000
X307800Y169200
X306600Y183900
X304295Y197795
X304200Y200700
X302653Y211326
X309653Y211326
X316653Y211326
X313543Y204961
X314500Y185800
X314900Y178500
X313543Y165039
X319098Y138621
X315318Y136132
X319098Y131621
X319331Y128469
X318123Y107565
R03Y-7000
X315900Y20800
X315900Y10600
X315372Y3576
X324100Y11000
X327563Y15737
X321049Y19926
X329341Y19987
X321049Y26926
X329341Y26987
X321049Y33926
X329341Y33987
R03Y7000
X320331Y57200
X322391Y59739
X329219Y63275
X322391Y66739
X329219Y70275
R12Y7000
X320135Y159483
R02Y7000
X328331Y192331
X320150Y193707
X320150Y200707
X323653Y211326
X330000Y204961
X330000Y165039
T02
X35000Y193000
R02Y10000
X45000Y213000
R02Y-10000
X55000Y193000
R02Y10000
X65000Y213000
R02Y-10000
X75000Y193000
R02Y10000
X85000Y213000
R02Y-10000
X95000Y193000
R02Y10000
X105000Y213000
R02Y-10000
X115000Y193000
R02Y10000
X125000Y213000
X125000Y203000
X135000Y203000
X135000Y213000
X145000Y213000
X145000Y203000
X155000Y203000
X155000Y213000
X165000Y213000
X165000Y203000
X175000Y203000
X175000Y213000
X185000Y213000
X185000Y203000
X195000Y203000
X195000Y213000
X205000Y213000
X205000Y203000
X215000Y203000
X215000Y213000
X225000Y213000
X225000Y203000
X290000Y133780
X290000Y123937
X290000Y116063
X290000Y106220
X290000Y68780
X290000Y58937
X290000Y51063
X290000Y41220
X300315Y41220
X300315Y51063
X300315Y58937
X300315Y68780
X300315Y106220
X300315Y116063
X300315Y123937
X300315Y133780
T03
X288622Y29134
X310984Y29134
X288622Y80866
X288622Y94134
X310984Y80866
X310984Y94134
X310984Y145866
X288622Y145866
T04
X11811Y11811
X11811Y208661
X260000Y208661
X260000Y11811
T05
X39622Y22370
X62378Y22370
X315630Y173622
X315630Y196378
T06
X223797Y40951
M30
