M48
INCH,TZ
T01C.01968
T02C.02756
;EXTENTS: -52.510 -52.510 47.992  47.992  
;LEADER: 12 
;HEADER: 
;CODE  : ASCII 
;FILE  : F:/PCB_PROJECT/D1/PCB/D1_1-4.rou for board F:/PCB_PROJECT/D1/PCB/#Taaaajn18016.tmp, layers TOP to BOTTOM
%
G90
F1
M16
T02
M16
G00X5703Y37457
G40
M15
G01X10427Y37457
M16
G00X5703Y94543
G40
M15
G01X10427Y94543
M16
G00X27278Y37457
G40
M15
G01X35938Y37457
M16
G00X27278Y94543
G40
M15
G01X35938Y94543
M16
T01
M16
G00X233638Y18314
G40
M15
G01X233638Y22644
M16
G00X216710Y42723
G40
M15
G01X216710Y47053
M16
G00X212773Y33668
G40
M15
G01X212773Y37998
M16
G00X233638Y37999
G40
M15
G01X233638Y42329
M16
G00X215135Y8078
G40
M15
G01X215135Y12408
M16
G00X234427Y8078
G40
M15
G01X234427Y12408
M16
G40
M30
