G04 ================== begin FILE IDENTIFICATION RECORD ==================*
G04 Layout Name:  F:/PCB_PROJECT/D1/PCB/D1.brd*
G04 Film Name:    DILL*
G04 File Format:  Gerber RS274X*
G04 File Origin:  Cadence Allegro 17.2-S079*
G04 Origin Date:  Sun Feb 13 14:23:57 2022*
G04 *
G04 Layer:  ANALYSIS/__EPB_SCRATCH_ACON_SPACE_POLY*
G04 Layer:  MANUFACTURING/NCLEGEND-1-4*
G04 Layer:  BOARD GEOMETRY/OUTLINE*
G04 *
G04 Offset:    (0.00 0.00)*
G04 Mirror:    No*
G04 Mode:      Positive*
G04 Rotation:  0*
G04 FullContactRelief:  No*
G04 UndefLineWidth:     1.00*
G04 ================== end FILE IDENTIFICATION RECORD ====================*
%FSLAX25Y25*MOIN*%
%IR0*IPPOS*OFA0.00000B0.00000*MIA0B0*SFA1.00000B1.00000*%
%AMMACRO12*
1,1,.001,-.00984,-.02166*
20,1,.001,-.00984,-.02166,-.00984,.02166,0.0*
1,1,.001,-.00984,.02166*
20,1,.001,-.00984,.02166,-.009691,.023369,0.0*
1,1,.001,-.009691,.023369*
20,1,.001,-.009691,.023369,-.009247,.025025,0.0*
1,1,.001,-.009247,.025025*
20,1,.001,-.009247,.025025,-.008522,.02658,0.0*
1,1,.001,-.008522,.02658*
20,1,.001,-.008522,.02658,-.007538,.027985,0.0*
1,1,.001,-.007538,.027985*
20,1,.001,-.007538,.027985,-.006325,.029198,0.0*
1,1,.001,-.006325,.029198*
20,1,.001,-.006325,.029198,-.00492,.030182,0.0*
1,1,.001,-.00492,.030182*
20,1,.001,-.00492,.030182,-.003365,.030907,0.0*
1,1,.001,-.003365,.030907*
20,1,.001,-.003365,.030907,-.001709,.031351,0.0*
1,1,.001,-.001709,.031351*
20,1,.001,-.001709,.031351,0.0,.0315,0.0*
1,1,.001,0.0,.0315*
20,1,.001,0.0,.0315,.001709,.031351,0.0*
1,1,.001,.001709,.031351*
20,1,.001,.001709,.031351,.003365,.030907,0.0*
1,1,.001,.003365,.030907*
20,1,.001,.003365,.030907,.00492,.030182,0.0*
1,1,.001,.00492,.030182*
20,1,.001,.00492,.030182,.006325,.029198,0.0*
1,1,.001,.006325,.029198*
20,1,.001,.006325,.029198,.007538,.027985,0.0*
1,1,.001,.007538,.027985*
20,1,.001,.007538,.027985,.008522,.02658,0.0*
1,1,.001,.008522,.02658*
20,1,.001,.008522,.02658,.009247,.025025,0.0*
1,1,.001,.009247,.025025*
20,1,.001,.009247,.025025,.009691,.023369,0.0*
1,1,.001,.009691,.023369*
20,1,.001,.009691,.023369,.00984,.02166,0.0*
1,1,.001,.00984,.02166*
20,1,.001,.00984,.02166,.00984,-.02166,0.0*
1,1,.001,.00984,-.02166*
20,1,.001,.00984,-.02166,.009691,-.023369,0.0*
1,1,.001,.009691,-.023369*
20,1,.001,.009691,-.023369,.009247,-.025025,0.0*
1,1,.001,.009247,-.025025*
20,1,.001,.009247,-.025025,.008522,-.02658,0.0*
1,1,.001,.008522,-.02658*
20,1,.001,.008522,-.02658,.007538,-.027985,0.0*
1,1,.001,.007538,-.027985*
20,1,.001,.007538,-.027985,.006325,-.029198,0.0*
1,1,.001,.006325,-.029198*
20,1,.001,.006325,-.029198,.00492,-.030182,0.0*
1,1,.001,.00492,-.030182*
20,1,.001,.00492,-.030182,.003365,-.030907,0.0*
1,1,.001,.003365,-.030907*
20,1,.001,.003365,-.030907,.001709,-.031351,0.0*
1,1,.001,.001709,-.031351*
20,1,.001,.001709,-.031351,0.0,-.0315,0.0*
1,1,.001,0.0,-.0315*
20,1,.001,0.0,-.0315,-.001709,-.031351,0.0*
1,1,.001,-.001709,-.031351*
20,1,.001,-.001709,-.031351,-.003365,-.030907,0.0*
1,1,.001,-.003365,-.030907*
20,1,.001,-.003365,-.030907,-.00492,-.030182,0.0*
1,1,.001,-.00492,-.030182*
20,1,.001,-.00492,-.030182,-.006325,-.029198,0.0*
1,1,.001,-.006325,-.029198*
20,1,.001,-.006325,-.029198,-.007538,-.027985,0.0*
1,1,.001,-.007538,-.027985*
20,1,.001,-.007538,-.027985,-.008522,-.02658,0.0*
1,1,.001,-.008522,-.02658*
20,1,.001,-.008522,-.02658,-.009247,-.025025,0.0*
1,1,.001,-.009247,-.025025*
20,1,.001,-.009247,-.025025,-.009691,-.023369,0.0*
1,1,.001,-.009691,-.023369*
20,1,.001,-.009691,-.023369,-.00984,-.02166,0.0*
1,1,.001,-.00984,-.02166*
1,1,.001,-.00492,-.00492*
20,1,.001,-.00492,-.00492,-.00623,-.00476,0.0*
1,1,.001,-.00623,-.00476*
20,1,.001,-.00623,-.00476,-.00738,-.0041,0.0*
1,1,.001,-.00738,-.0041*
20,1,.001,-.00738,-.0041,-.00836,-.00312,0.0*
1,1,.001,-.00836,-.00312*
20,1,.001,-.00836,-.00312,-.00902,-.00197,0.0*
1,1,.001,-.00902,-.00197*
20,1,.001,-.00902,-.00197,-.00935,-.00066,0.0*
1,1,.001,-.00935,-.00066*
20,1,.001,-.00935,-.00066,-.00935,.00066,0.0*
1,1,.001,-.00935,.00066*
20,1,.001,-.00935,.00066,-.00902,.00197,0.0*
1,1,.001,-.00902,.00197*
20,1,.001,-.00902,.00197,-.00836,.00312,0.0*
1,1,.001,-.00836,.00312*
20,1,.001,-.00836,.00312,-.00738,.0041,0.0*
1,1,.001,-.00738,.0041*
20,1,.001,-.00738,.0041,-.00623,.00476,0.0*
1,1,.001,-.00623,.00476*
20,1,.001,-.00623,.00476,-.00492,.00492,0.0*
1,1,.001,-.00492,.00492*
20,1,.001,-.00492,.00492,-.00361,.00476,0.0*
1,1,.001,-.00361,.00476*
20,1,.001,-.00361,.00476,-.00246,.0041,0.0*
1,1,.001,-.00246,.0041*
20,1,.001,-.00246,.0041,-.00148,.00312,0.0*
1,1,.001,-.00148,.00312*
20,1,.001,-.00148,.00312,-.00082,.00197,0.0*
1,1,.001,-.00082,.00197*
20,1,.001,-.00082,.00197,-.00049,.00066,0.0*
1,1,.001,-.00049,.00066*
20,1,.001,-.00049,.00066,-.00049,-.00066,0.0*
1,1,.001,-.00049,-.00066*
20,1,.001,-.00049,-.00066,-.00082,-.00197,0.0*
1,1,.001,-.00082,-.00197*
20,1,.001,-.00082,-.00197,-.00148,-.00312,0.0*
1,1,.001,-.00148,-.00312*
20,1,.001,-.00148,-.00312,-.00246,-.0041,0.0*
1,1,.001,-.00246,-.0041*
20,1,.001,-.00246,-.0041,-.00361,-.00476,0.0*
1,1,.001,-.00361,-.00476*
20,1,.001,-.00361,-.00476,-.00492,-.00492,0.0*
1,1,.001,-.00492,-.00492*
1,1,.001,.00854,.0041*
20,1,.001,.00854,.0041,.00755,.00459,0.0*
1,1,.001,.00755,.00459*
20,1,.001,.00755,.00459,.00641,.00492,0.0*
1,1,.001,.00641,.00492*
20,1,.001,.00641,.00492,.00509,.00492,0.0*
1,1,.001,.00509,.00492*
20,1,.001,.00509,.00492,.00362,.00443,0.0*
1,1,.001,.00362,.00443*
20,1,.001,.00362,.00443,.00247,.00361,0.0*
1,1,.001,.00247,.00361*
20,1,.001,.00247,.00361,.00165,.00262,0.0*
1,1,.001,.00165,.00262*
20,1,.001,.00165,.00262,.00099,.00098,0.0*
1,1,.001,.00099,.00098*
20,1,.001,.00099,.00098,.00083,-.00049,0.0*
1,1,.001,.00083,-.00049*
20,1,.001,.00083,-.00049,.00116,-.00197,0.0*
1,1,.001,.00116,-.00197*
20,1,.001,.00116,-.00197,.00165,-.00295,0.0*
1,1,.001,.00165,-.00295*
20,1,.001,.00165,-.00295,.00263,-.00394,0.0*
1,1,.001,.00263,-.00394*
20,1,.001,.00263,-.00394,.00378,-.00459,0.0*
1,1,.001,.00378,-.00459*
20,1,.001,.00378,-.00459,.00493,-.00492,0.0*
1,1,.001,.00493,-.00492*
20,1,.001,.00493,-.00492,.00608,-.00492,0.0*
1,1,.001,.00608,-.00492*
20,1,.001,.00608,-.00492,.00723,-.00459,0.0*
1,1,.001,.00723,-.00459*
20,1,.001,.00723,-.00459,.00821,-.0041,0.0*
1,1,.001,.00821,-.0041*
20,1,.001,.00821,-.0041,.00903,-.00344,0.0*
1,1,.001,.00903,-.00344*
%
%ADD12MACRO12*%
%AMMACRO17*
1,1,.001,.02,.02*
20,1,.001,.02,.02,.02,-.02,0.0*
1,1,.001,.02,-.02*
20,1,.001,.02,-.02,-.02,-.02,0.0*
1,1,.001,-.02,-.02*
20,1,.001,-.02,-.02,-.02,.02,0.0*
1,1,.001,-.02,.02*
20,1,.001,-.02,.02,.02,.02,0.0*
1,1,.001,.02,.02*
%
%ADD17MACRO17*%
%AMMACRO13*
1,1,.001,.02756,0.0*
20,1,.001,.02756,0.0,0.0,-.02756,0.0*
1,1,.001,0.0,-.02756*
20,1,.001,0.0,-.02756,-.02756,0.0,0.0*
1,1,.001,-.02756,0.0*
20,1,.001,-.02756,0.0,0.0,.02756,0.0*
1,1,.001,0.0,.02756*
20,1,.001,0.0,.02756,.02756,0.0,0.0*
1,1,.001,.02756,0.0*
%
%ADD13MACRO13*%
%AMMACRO10*
1,1,.001,-.043305,.01378*
20,1,.001,-.043305,.01378,.043305,.01378,0.0*
1,1,.001,.043305,.01378*
20,1,.001,.043305,.01378,.045698,.013571,0.0*
1,1,.001,.045698,.013571*
20,1,.001,.045698,.013571,.048018,.012949,0.0*
1,1,.001,.048018,.012949*
20,1,.001,.048018,.012949,.050195,.011934,0.0*
1,1,.001,.050195,.011934*
20,1,.001,.050195,.011934,.052163,.010556,0.0*
1,1,.001,.052163,.010556*
20,1,.001,.052163,.010556,.053861,.008858,0.0*
1,1,.001,.053861,.008858*
20,1,.001,.053861,.008858,.055239,.00689,0.0*
1,1,.001,.055239,.00689*
20,1,.001,.055239,.00689,.056254,.004713,0.0*
1,1,.001,.056254,.004713*
20,1,.001,.056254,.004713,.056876,.002393,0.0*
1,1,.001,.056876,.002393*
20,1,.001,.056876,.002393,.057085,0.0,0.0*
1,1,.001,.057085,0.0*
20,1,.001,.057085,0.0,.056876,-.002393,0.0*
1,1,.001,.056876,-.002393*
20,1,.001,.056876,-.002393,.056254,-.004713,0.0*
1,1,.001,.056254,-.004713*
20,1,.001,.056254,-.004713,.055239,-.00689,0.0*
1,1,.001,.055239,-.00689*
20,1,.001,.055239,-.00689,.053861,-.008858,0.0*
1,1,.001,.053861,-.008858*
20,1,.001,.053861,-.008858,.052163,-.010556,0.0*
1,1,.001,.052163,-.010556*
20,1,.001,.052163,-.010556,.050195,-.011934,0.0*
1,1,.001,.050195,-.011934*
20,1,.001,.050195,-.011934,.048018,-.012949,0.0*
1,1,.001,.048018,-.012949*
20,1,.001,.048018,-.012949,.045698,-.013571,0.0*
1,1,.001,.045698,-.013571*
20,1,.001,.045698,-.013571,.043305,-.01378,0.0*
1,1,.001,.043305,-.01378*
20,1,.001,.043305,-.01378,-.043305,-.01378,0.0*
1,1,.001,-.043305,-.01378*
20,1,.001,-.043305,-.01378,-.045698,-.013571,0.0*
1,1,.001,-.045698,-.013571*
20,1,.001,-.045698,-.013571,-.048018,-.012949,0.0*
1,1,.001,-.048018,-.012949*
20,1,.001,-.048018,-.012949,-.050195,-.011934,0.0*
1,1,.001,-.050195,-.011934*
20,1,.001,-.050195,-.011934,-.052163,-.010556,0.0*
1,1,.001,-.052163,-.010556*
20,1,.001,-.052163,-.010556,-.053861,-.008858,0.0*
1,1,.001,-.053861,-.008858*
20,1,.001,-.053861,-.008858,-.055239,-.00689,0.0*
1,1,.001,-.055239,-.00689*
20,1,.001,-.055239,-.00689,-.056254,-.004713,0.0*
1,1,.001,-.056254,-.004713*
20,1,.001,-.056254,-.004713,-.056876,-.002393,0.0*
1,1,.001,-.056876,-.002393*
20,1,.001,-.056876,-.002393,-.057085,0.0,0.0*
1,1,.001,-.057085,0.0*
20,1,.001,-.057085,0.0,-.056876,.002393,0.0*
1,1,.001,-.056876,.002393*
20,1,.001,-.056876,.002393,-.056254,.004713,0.0*
1,1,.001,-.056254,.004713*
20,1,.001,-.056254,.004713,-.055239,.00689,0.0*
1,1,.001,-.055239,.00689*
20,1,.001,-.055239,.00689,-.053861,.008858,0.0*
1,1,.001,-.053861,.008858*
20,1,.001,-.053861,.008858,-.052163,.010556,0.0*
1,1,.001,-.052163,.010556*
20,1,.001,-.052163,.010556,-.050195,.011934,0.0*
1,1,.001,-.050195,.011934*
20,1,.001,-.050195,.011934,-.048018,.012949,0.0*
1,1,.001,-.048018,.012949*
20,1,.001,-.048018,.012949,-.045698,.013571,0.0*
1,1,.001,-.045698,.013571*
20,1,.001,-.045698,.013571,-.043305,.01378,0.0*
1,1,.001,-.043305,.01378*
1,1,.001,-.00689,-.00689*
20,1,.001,-.00689,-.00689,-.00873,-.00666,0.0*
1,1,.001,-.00873,-.00666*
20,1,.001,-.00873,-.00666,-.01033,-.00574,0.0*
1,1,.001,-.01033,-.00574*
20,1,.001,-.01033,-.00574,-.01171,-.00436,0.0*
1,1,.001,-.01171,-.00436*
20,1,.001,-.01171,-.00436,-.01263,-.00276,0.0*
1,1,.001,-.01263,-.00276*
20,1,.001,-.01263,-.00276,-.01309,-.00092,0.0*
1,1,.001,-.01309,-.00092*
20,1,.001,-.01309,-.00092,-.01309,.00092,0.0*
1,1,.001,-.01309,.00092*
20,1,.001,-.01309,.00092,-.01263,.00276,0.0*
1,1,.001,-.01263,.00276*
20,1,.001,-.01263,.00276,-.01171,.00436,0.0*
1,1,.001,-.01171,.00436*
20,1,.001,-.01171,.00436,-.01033,.00574,0.0*
1,1,.001,-.01033,.00574*
20,1,.001,-.01033,.00574,-.00873,.00666,0.0*
1,1,.001,-.00873,.00666*
20,1,.001,-.00873,.00666,-.00689,.00689,0.0*
1,1,.001,-.00689,.00689*
20,1,.001,-.00689,.00689,-.00505,.00666,0.0*
1,1,.001,-.00505,.00666*
20,1,.001,-.00505,.00666,-.00345,.00574,0.0*
1,1,.001,-.00345,.00574*
20,1,.001,-.00345,.00574,-.00207,.00436,0.0*
1,1,.001,-.00207,.00436*
20,1,.001,-.00207,.00436,-.00115,.00276,0.0*
1,1,.001,-.00115,.00276*
20,1,.001,-.00115,.00276,-.00069,.00092,0.0*
1,1,.001,-.00069,.00092*
20,1,.001,-.00069,.00092,-.00069,-.00092,0.0*
1,1,.001,-.00069,-.00092*
20,1,.001,-.00069,-.00092,-.00115,-.00276,0.0*
1,1,.001,-.00115,-.00276*
20,1,.001,-.00115,-.00276,-.00207,-.00436,0.0*
1,1,.001,-.00207,-.00436*
20,1,.001,-.00207,-.00436,-.00345,-.00574,0.0*
1,1,.001,-.00345,-.00574*
20,1,.001,-.00345,-.00574,-.00505,-.00666,0.0*
1,1,.001,-.00505,-.00666*
20,1,.001,-.00505,-.00666,-.00689,-.00689,0.0*
1,1,.001,-.00689,-.00689*
1,1,.001,.00116,-.00689*
20,1,.001,.00116,-.00689,.0069,.00689,0.0*
1,1,.001,.0069,.00689*
20,1,.001,.0069,.00689,.01264,-.00689,0.0*
1,1,.001,.01264,-.00689*
1,1,.001,.01057,-.00207*
20,1,.001,.01057,-.00207,.00323,-.00207,0.0*
1,1,.001,.00323,-.00207*
%
%ADD10MACRO10*%
%AMMACRO14*
1,1,.001,.0053,-.012795*
20,1,.001,.0053,-.012795,-.0053,-.012795,0.0*
1,1,.001,-.0053,-.012795*
20,1,.001,-.0053,-.012795,-.012795,-.0053,0.0*
1,1,.001,-.012795,-.0053*
20,1,.001,-.012795,-.0053,-.012795,.0053,0.0*
1,1,.001,-.012795,.0053*
20,1,.001,-.012795,.0053,-.0053,.012795,0.0*
1,1,.001,-.0053,.012795*
20,1,.001,-.0053,.012795,.0053,.012795,0.0*
1,1,.001,.0053,.012795*
20,1,.001,.0053,.012795,.012795,.0053,0.0*
1,1,.001,.012795,.0053*
20,1,.001,.012795,.0053,.012795,-.0053,0.0*
1,1,.001,.012795,-.0053*
20,1,.001,.012795,-.0053,.0053,-.012795,0.0*
1,1,.001,.0053,-.012795*
%
%ADD14MACRO14*%
%AMMACRO18*
1,1,.001,.003935,0.0*
20,1,.001,.003935,0.0,-.003935,0.0,0.0*
1,1,.001,-.003935,0.0*
1,1,.001,0.0,.003935*
20,1,.001,0.0,.003935,0.0,-.003935,0.0*
1,1,.001,0.0,-.003935*
%
%ADD18MACRO18*%
%AMMACRO16*
1,1,.001,.045275,0.0*
20,1,.001,.045275,0.0,.022638,.039209,0.0*
1,1,.001,.022638,.039209*
20,1,.001,.022638,.039209,-.022637,.039209,0.0*
1,1,.001,-.022637,.039209*
20,1,.001,-.022637,.039209,-.045275,0.0,0.0*
1,1,.001,-.045275,0.0*
20,1,.001,-.045275,0.0,-.022638,-.039209,0.0*
1,1,.001,-.022638,-.039209*
20,1,.001,-.022638,-.039209,.022637,-.039209,0.0*
1,1,.001,.022637,-.039209*
20,1,.001,.022637,-.039209,.045275,0.0,0.0*
1,1,.001,.045275,0.0*
%
%ADD16MACRO16*%
%AMMACRO15*
1,1,.001,0.0,.06299*
20,1,.001,0.0,.06299,-.054551,.031495,0.0*
1,1,.001,-.054551,.031495*
20,1,.001,-.054551,.031495,-.054551,-.031495,0.0*
1,1,.001,-.054551,-.031495*
20,1,.001,-.054551,-.031495,0.0,-.06299,0.0*
1,1,.001,0.0,-.06299*
20,1,.001,0.0,-.06299,.054551,-.031495,0.0*
1,1,.001,.054551,-.031495*
20,1,.001,.054551,-.031495,.054551,.031495,0.0*
1,1,.001,.054551,.031495*
20,1,.001,.054551,.031495,0.0,.06299,0.0*
1,1,.001,0.0,.06299*
%
%ADD15MACRO15*%
%AMMACRO11*
1,1,.001,-.02362,.01378*
20,1,.001,-.02362,.01378,.02362,.01378,0.0*
1,1,.001,.02362,.01378*
20,1,.001,.02362,.01378,.026013,.013571,0.0*
1,1,.001,.026013,.013571*
20,1,.001,.026013,.013571,.028333,.012949,0.0*
1,1,.001,.028333,.012949*
20,1,.001,.028333,.012949,.03051,.011934,0.0*
1,1,.001,.03051,.011934*
20,1,.001,.03051,.011934,.032478,.010556,0.0*
1,1,.001,.032478,.010556*
20,1,.001,.032478,.010556,.034176,.008858,0.0*
1,1,.001,.034176,.008858*
20,1,.001,.034176,.008858,.035554,.00689,0.0*
1,1,.001,.035554,.00689*
20,1,.001,.035554,.00689,.036569,.004713,0.0*
1,1,.001,.036569,.004713*
20,1,.001,.036569,.004713,.037191,.002393,0.0*
1,1,.001,.037191,.002393*
20,1,.001,.037191,.002393,.0374,0.0,0.0*
1,1,.001,.0374,0.0*
20,1,.001,.0374,0.0,.037191,-.002393,0.0*
1,1,.001,.037191,-.002393*
20,1,.001,.037191,-.002393,.036569,-.004713,0.0*
1,1,.001,.036569,-.004713*
20,1,.001,.036569,-.004713,.035554,-.00689,0.0*
1,1,.001,.035554,-.00689*
20,1,.001,.035554,-.00689,.034176,-.008858,0.0*
1,1,.001,.034176,-.008858*
20,1,.001,.034176,-.008858,.032478,-.010556,0.0*
1,1,.001,.032478,-.010556*
20,1,.001,.032478,-.010556,.03051,-.011934,0.0*
1,1,.001,.03051,-.011934*
20,1,.001,.03051,-.011934,.028333,-.012949,0.0*
1,1,.001,.028333,-.012949*
20,1,.001,.028333,-.012949,.026013,-.013571,0.0*
1,1,.001,.026013,-.013571*
20,1,.001,.026013,-.013571,.02362,-.01378,0.0*
1,1,.001,.02362,-.01378*
20,1,.001,.02362,-.01378,-.02362,-.01378,0.0*
1,1,.001,-.02362,-.01378*
20,1,.001,-.02362,-.01378,-.026013,-.013571,0.0*
1,1,.001,-.026013,-.013571*
20,1,.001,-.026013,-.013571,-.028333,-.012949,0.0*
1,1,.001,-.028333,-.012949*
20,1,.001,-.028333,-.012949,-.03051,-.011934,0.0*
1,1,.001,-.03051,-.011934*
20,1,.001,-.03051,-.011934,-.032478,-.010556,0.0*
1,1,.001,-.032478,-.010556*
20,1,.001,-.032478,-.010556,-.034176,-.008858,0.0*
1,1,.001,-.034176,-.008858*
20,1,.001,-.034176,-.008858,-.035554,-.00689,0.0*
1,1,.001,-.035554,-.00689*
20,1,.001,-.035554,-.00689,-.036569,-.004713,0.0*
1,1,.001,-.036569,-.004713*
20,1,.001,-.036569,-.004713,-.037191,-.002393,0.0*
1,1,.001,-.037191,-.002393*
20,1,.001,-.037191,-.002393,-.0374,0.0,0.0*
1,1,.001,-.0374,0.0*
20,1,.001,-.0374,0.0,-.037191,.002393,0.0*
1,1,.001,-.037191,.002393*
20,1,.001,-.037191,.002393,-.036569,.004713,0.0*
1,1,.001,-.036569,.004713*
20,1,.001,-.036569,.004713,-.035554,.00689,0.0*
1,1,.001,-.035554,.00689*
20,1,.001,-.035554,.00689,-.034176,.008858,0.0*
1,1,.001,-.034176,.008858*
20,1,.001,-.034176,.008858,-.032478,.010556,0.0*
1,1,.001,-.032478,.010556*
20,1,.001,-.032478,.010556,-.03051,.011934,0.0*
1,1,.001,-.03051,.011934*
20,1,.001,-.03051,.011934,-.028333,.012949,0.0*
1,1,.001,-.028333,.012949*
20,1,.001,-.028333,.012949,-.026013,.013571,0.0*
1,1,.001,-.026013,.013571*
20,1,.001,-.026013,.013571,-.02362,.01378,0.0*
1,1,.001,-.02362,.01378*
1,1,.001,-.00689,-.00689*
20,1,.001,-.00689,-.00689,-.00873,-.00666,0.0*
1,1,.001,-.00873,-.00666*
20,1,.001,-.00873,-.00666,-.01033,-.00574,0.0*
1,1,.001,-.01033,-.00574*
20,1,.001,-.01033,-.00574,-.01171,-.00436,0.0*
1,1,.001,-.01171,-.00436*
20,1,.001,-.01171,-.00436,-.01263,-.00276,0.0*
1,1,.001,-.01263,-.00276*
20,1,.001,-.01263,-.00276,-.01309,-.00092,0.0*
1,1,.001,-.01309,-.00092*
20,1,.001,-.01309,-.00092,-.01309,.00092,0.0*
1,1,.001,-.01309,.00092*
20,1,.001,-.01309,.00092,-.01263,.00276,0.0*
1,1,.001,-.01263,.00276*
20,1,.001,-.01263,.00276,-.01171,.00436,0.0*
1,1,.001,-.01171,.00436*
20,1,.001,-.01171,.00436,-.01033,.00574,0.0*
1,1,.001,-.01033,.00574*
20,1,.001,-.01033,.00574,-.00873,.00666,0.0*
1,1,.001,-.00873,.00666*
20,1,.001,-.00873,.00666,-.00689,.00689,0.0*
1,1,.001,-.00689,.00689*
20,1,.001,-.00689,.00689,-.00505,.00666,0.0*
1,1,.001,-.00505,.00666*
20,1,.001,-.00505,.00666,-.00345,.00574,0.0*
1,1,.001,-.00345,.00574*
20,1,.001,-.00345,.00574,-.00207,.00436,0.0*
1,1,.001,-.00207,.00436*
20,1,.001,-.00207,.00436,-.00115,.00276,0.0*
1,1,.001,-.00115,.00276*
20,1,.001,-.00115,.00276,-.00069,.00092,0.0*
1,1,.001,-.00069,.00092*
20,1,.001,-.00069,.00092,-.00069,-.00092,0.0*
1,1,.001,-.00069,-.00092*
20,1,.001,-.00069,-.00092,-.00115,-.00276,0.0*
1,1,.001,-.00115,-.00276*
20,1,.001,-.00115,-.00276,-.00207,-.00436,0.0*
1,1,.001,-.00207,-.00436*
20,1,.001,-.00207,-.00436,-.00345,-.00574,0.0*
1,1,.001,-.00345,-.00574*
20,1,.001,-.00345,-.00574,-.00505,-.00666,0.0*
1,1,.001,-.00505,-.00666*
20,1,.001,-.00505,-.00666,-.00689,-.00689,0.0*
1,1,.001,-.00689,-.00689*
1,1,.001,.00874,.00046*
20,1,.001,.00874,.00046,.00966,.00115,0.0*
1,1,.001,.00966,.00115*
20,1,.001,.00966,.00115,.01034,.0023,0.0*
1,1,.001,.01034,.0023*
20,1,.001,.01034,.0023,.0108,.0039,0.0*
1,1,.001,.0108,.0039*
20,1,.001,.0108,.0039,.01034,.00528,0.0*
1,1,.001,.01034,.00528*
20,1,.001,.01034,.00528,.00943,.0062,0.0*
1,1,.001,.00943,.0062*
20,1,.001,.00943,.0062,.00782,.00689,0.0*
1,1,.001,.00782,.00689*
20,1,.001,.00782,.00689,.00162,.00689,0.0*
1,1,.001,.00162,.00689*
20,1,.001,.00162,.00689,.00162,-.00689,0.0*
1,1,.001,.00162,-.00689*
20,1,.001,.00162,-.00689,.0092,-.00689,0.0*
1,1,.001,.0092,-.00689*
20,1,.001,.0092,-.00689,.0108,-.00597,0.0*
1,1,.001,.0108,-.00597*
20,1,.001,.0108,-.00597,.01172,-.00459,0.0*
1,1,.001,.01172,-.00459*
20,1,.001,.01172,-.00459,.01218,-.00299,0.0*
1,1,.001,.01218,-.00299*
20,1,.001,.01218,-.00299,.01172,-.00138,0.0*
1,1,.001,.01172,-.00138*
20,1,.001,.01172,-.00138,.01034,0.0,0.0*
1,1,.001,.01034,0.0*
20,1,.001,.01034,0.0,.00874,.00046,0.0*
1,1,.001,.00874,.00046*
20,1,.001,.00874,.00046,.00162,.00046,0.0*
1,1,.001,.00162,.00046*
%
%ADD11MACRO11*%
%ADD19C,.001*%
G75*
%LPD*%
G75*
G54D10*
X-86050Y-319500D03*
X31609Y37457D03*
X31609Y94543D03*
G54D11*
X-86050Y-294500D03*
X8066Y37457D03*
X8066Y94543D03*
G54D12*
X-86050Y-269500D03*
X215135Y10243D03*
X212773Y35833D03*
X216710Y44888D03*
X234427Y10243D03*
X233639Y20479D03*
X233639Y40164D03*
G54D13*
X-86050Y-244500D03*
X223797Y40951D03*
G54D14*
X-86050Y-219500D03*
X39622Y22370D03*
X62378Y22370D03*
X315630Y173622D03*
X315630Y196378D03*
G54D15*
X-86050Y-194500D03*
X11811Y11811D03*
X11811Y208661D03*
X260000Y11811D03*
X260000Y208661D03*
G54D16*
X-86050Y-169500D03*
X288622Y29134D03*
X288622Y80866D03*
X288622Y94134D03*
X288622Y145866D03*
X310984Y29134D03*
X310984Y80866D03*
X310984Y94134D03*
X310984Y145866D03*
G54D17*
X-86050Y-144500D03*
X35000Y193000D03*
X45000Y193000D03*
X35000Y203000D03*
X45000Y203000D03*
X35000Y213000D03*
X45000Y213000D03*
X55000Y193000D03*
X55000Y203000D03*
X55000Y213000D03*
X75000Y193000D03*
X65000Y193000D03*
X65000Y203000D03*
X75000Y203000D03*
X65000Y213000D03*
X75000Y213000D03*
X85000Y193000D03*
X85000Y203000D03*
X85000Y213000D03*
X95000Y193000D03*
X105000Y193000D03*
X95000Y203000D03*
X105000Y203000D03*
X95000Y213000D03*
X105000Y213000D03*
X115000Y193000D03*
X115000Y203000D03*
X115000Y213000D03*
X125000Y203000D03*
X125000Y213000D03*
X135000Y203000D03*
X145000Y203000D03*
X135000Y213000D03*
X145000Y213000D03*
X155000Y203000D03*
X155000Y213000D03*
X165000Y203000D03*
X175000Y203000D03*
X165000Y213000D03*
X175000Y213000D03*
X185000Y203000D03*
X185000Y213000D03*
X195000Y203000D03*
X205000Y203000D03*
X195000Y213000D03*
X205000Y213000D03*
X215000Y203000D03*
X215000Y213000D03*
X225000Y203000D03*
X225000Y213000D03*
X290000Y41220D03*
X290000Y58937D03*
X290000Y51063D03*
X290000Y68780D03*
X290000Y116063D03*
X290000Y106220D03*
X290000Y133780D03*
X290000Y123937D03*
X300315Y41220D03*
X300315Y51063D03*
X300315Y58937D03*
X300315Y68780D03*
X300315Y106220D03*
X300315Y116063D03*
X300315Y123937D03*
X300315Y133780D03*
G54D18*
X-86050Y-119500D03*
X17427Y26328D03*
X17427Y40328D03*
X17427Y33328D03*
X6330Y54789D03*
X6330Y47789D03*
X11574Y55033D03*
X11574Y48033D03*
X6330Y68789D03*
X6330Y61789D03*
X11574Y69033D03*
X11574Y62033D03*
X17200Y70000D03*
X6330Y82789D03*
X6330Y75789D03*
X7398Y100802D03*
X4365Y103835D03*
X5233Y112659D03*
X7100Y127600D03*
X7446Y122654D03*
X9300Y118400D03*
X5233Y126659D03*
X5233Y119659D03*
X10700Y134000D03*
X5782Y143132D03*
X5782Y136132D03*
X7000Y149500D03*
X10900Y160500D03*
X4000Y153400D03*
X11000Y152000D03*
X11000Y163000D03*
X31039Y8000D03*
X31743Y14378D03*
X24743Y14378D03*
X31039Y24457D03*
X28463Y56157D03*
X28463Y50252D03*
X25646Y58398D03*
X18646Y58398D03*
X22000Y52300D03*
X28027Y67773D03*
X28027Y65501D03*
X28463Y62063D03*
X28027Y74000D03*
X25646Y65398D03*
X18646Y65398D03*
X27800Y88200D03*
X28027Y82000D03*
X28027Y78000D03*
X17700Y82900D03*
X20000Y95900D03*
X20000Y101900D03*
X20000Y110700D03*
X23000Y105000D03*
X23000Y109000D03*
X22500Y116000D03*
X19200Y118400D03*
X25600Y131900D03*
X19500Y134000D03*
X19000Y142900D03*
X19100Y138100D03*
X25300Y142000D03*
X25300Y138000D03*
X23000Y149700D03*
X24400Y146800D03*
X23500Y159000D03*
X31700Y170600D03*
X28900Y172700D03*
X30159Y161941D03*
X31400Y164300D03*
X27400Y184000D03*
X25901Y179054D03*
X20437Y183763D03*
X28551Y175349D03*
X31100Y175500D03*
X24011Y198187D03*
X24011Y191187D03*
X26511Y201978D03*
X27182Y191491D03*
X26511Y208978D03*
X38743Y14378D03*
X45888Y4380D03*
X38888Y4380D03*
X32100Y31000D03*
X36300Y31000D03*
X40775Y43175D03*
X40775Y39775D03*
X40775Y36175D03*
X40875Y32675D03*
X41200Y52700D03*
X40000Y70400D03*
X41000Y64600D03*
X40000Y73200D03*
X40480Y79780D03*
X40500Y82600D03*
X34800Y87300D03*
X39957Y75843D03*
X39400Y85287D03*
X37300Y100400D03*
X42500Y99800D03*
X42300Y96900D03*
X32025Y113975D03*
X34800Y109400D03*
X35000Y107000D03*
X33700Y111500D03*
X37900Y107000D03*
X36200Y111500D03*
X38700Y111500D03*
X34800Y128300D03*
X34453Y133090D03*
X34700Y135600D03*
X34498Y158100D03*
X34498Y151100D03*
X34800Y147400D03*
X42900Y186000D03*
X34000Y175100D03*
X40100Y208000D03*
X59700Y7500D03*
X59888Y4380D03*
X52888Y4380D03*
X51940Y23660D03*
X49975Y31275D03*
X56458Y38330D03*
X56458Y35830D03*
X58958Y38330D03*
X58958Y35830D03*
X56458Y40830D03*
X58958Y40830D03*
X54863Y50937D03*
X56898Y46661D03*
X56898Y49308D03*
X56851Y52567D03*
X56851Y55213D03*
X56851Y59661D03*
X55063Y63937D03*
X56898Y68113D03*
X56898Y65467D03*
X56851Y62308D03*
X56599Y82236D03*
X57658Y96230D03*
X57658Y93730D03*
X57658Y91230D03*
X60158Y96230D03*
X60158Y93730D03*
X60158Y91230D03*
X55000Y99800D03*
X55400Y106100D03*
X59400Y140900D03*
X49814Y136500D03*
X55501Y153399D03*
X48700Y156800D03*
X53800Y157900D03*
X54524Y160277D03*
X49500Y152658D03*
X54700Y184114D03*
X51500Y185000D03*
X48200Y185100D03*
X50645Y179387D03*
X50645Y176741D03*
X53900Y181200D03*
X55500Y178700D03*
X52600Y188500D03*
X57200Y182200D03*
X59661Y182168D03*
X52600Y197800D03*
X49700Y197700D03*
X70961Y8000D03*
X70885Y3404D03*
X63885Y3404D03*
X70469Y15659D03*
X70961Y24457D03*
X65600Y19300D03*
X63795Y32295D03*
X66900Y32100D03*
X62000Y34400D03*
X64600Y34400D03*
X64500Y56500D03*
X68200Y56500D03*
X71700Y56500D03*
X69800Y54700D03*
X66500Y54600D03*
X73500Y46700D03*
X63258Y50030D03*
X60758Y50030D03*
X63258Y47530D03*
X60758Y47530D03*
X61000Y57700D03*
X61000Y54900D03*
X62300Y84000D03*
X62400Y80700D03*
X70000Y105800D03*
X64289Y114848D03*
X70564Y129000D03*
X73000Y120900D03*
X67200Y128700D03*
X68200Y131800D03*
X69300Y126500D03*
X70000Y123900D03*
X64200Y145200D03*
X67400Y145400D03*
X69400Y136500D03*
X66300Y136600D03*
X66300Y133700D03*
X60600Y160200D03*
X69400Y156000D03*
X68800Y150800D03*
X71200Y151000D03*
X71300Y148000D03*
X73100Y174300D03*
X73284Y164600D03*
X71300Y172800D03*
X63098Y185498D03*
X60452Y185498D03*
X69200Y190500D03*
X84885Y3404D03*
X77885Y3404D03*
X77469Y15659D03*
X85200Y8900D03*
X77400Y25900D03*
X85000Y30200D03*
X74900Y38000D03*
X81700Y34300D03*
X84300Y34300D03*
X78273Y35595D03*
X77500Y41500D03*
X84600Y56500D03*
X84600Y54200D03*
X81700Y54200D03*
X81700Y56500D03*
X86778Y54222D03*
X77400Y49100D03*
X77400Y55400D03*
X83258Y50530D03*
X80758Y50530D03*
X83258Y48030D03*
X80758Y48030D03*
X74900Y58100D03*
X81100Y71500D03*
X81100Y74600D03*
X75600Y79600D03*
X82797Y78897D03*
X80250Y94850D03*
X87800Y106300D03*
X86300Y115000D03*
X76000Y115900D03*
X79100Y119100D03*
X80180Y127827D03*
X82500Y126800D03*
X88300Y131600D03*
X82400Y123400D03*
X87000Y125600D03*
X85300Y140100D03*
X87800Y139173D03*
X85628Y150700D03*
X87900Y150700D03*
X87849Y156049D03*
X75841Y152630D03*
X80850Y174561D03*
X86000Y174800D03*
X82243Y172757D03*
X75100Y173100D03*
X78700Y172800D03*
X83500Y174900D03*
X78646Y175113D03*
X98885Y3404D03*
X91885Y3404D03*
X92200Y8900D03*
X102724Y13998D03*
X94100Y20300D03*
X94100Y29200D03*
X90000Y28500D03*
X97200Y20300D03*
X98379Y35379D03*
X103000Y35000D03*
X99000Y51000D03*
X89214Y56124D03*
X94700Y46900D03*
X99800Y55200D03*
X102158Y48130D03*
X102158Y50630D03*
X89670Y99558D03*
X92170Y99558D03*
X94670Y99558D03*
X89670Y102058D03*
X92170Y102058D03*
X94670Y102058D03*
X96200Y110600D03*
X93000Y109600D03*
X99300Y114800D03*
X97410Y118410D03*
X101248Y117772D03*
X96772Y122248D03*
X102528Y126086D03*
X94800Y118600D03*
X90000Y122500D03*
X89200Y127200D03*
X102528Y136322D03*
X99968Y141440D03*
X102528Y141440D03*
X96143Y144814D03*
X89574Y140674D03*
X92924Y136624D03*
X90278Y136624D03*
X99968Y154236D03*
X93800Y149500D03*
X92200Y150900D03*
X89800Y157700D03*
X91548Y155811D03*
X99968Y169590D03*
X96700Y165900D03*
X97410Y169590D03*
X100800Y173900D03*
X102528Y169590D03*
X102528Y167032D03*
X102528Y164472D03*
X90787Y161387D03*
X96000Y161300D03*
X95400Y172500D03*
X117464Y13164D03*
X107000Y11200D03*
X112885Y3404D03*
X105885Y3404D03*
X110038Y13342D03*
X105370Y13998D03*
X114058Y18742D03*
X111200Y20400D03*
X105000Y35000D03*
X110500Y56100D03*
X106800Y56100D03*
X114000Y56100D03*
X108800Y54200D03*
X112100Y54300D03*
X116700Y46300D03*
X116800Y50900D03*
X104658Y48130D03*
X104658Y50630D03*
X108800Y81000D03*
X111800Y81000D03*
X110914Y76414D03*
X113200Y76414D03*
X105800Y86700D03*
X104194Y88306D03*
X107350Y100650D03*
X112100Y95600D03*
X116602Y116300D03*
X116100Y107200D03*
X111500Y104600D03*
X108700Y109200D03*
X116602Y113800D03*
X110204Y123528D03*
X107646Y128646D03*
X107646Y126086D03*
X110204Y126086D03*
X112764Y126086D03*
X105086Y131204D03*
X105086Y128646D03*
X107646Y131204D03*
X105086Y126086D03*
X112764Y128646D03*
X115322Y131204D03*
X112764Y131204D03*
X112764Y141440D03*
X110204Y138882D03*
X112764Y138882D03*
X115322Y138882D03*
X112764Y136322D03*
X115322Y136322D03*
X112764Y133764D03*
X115322Y133764D03*
X110204Y133764D03*
X105086Y141440D03*
X105086Y136322D03*
X110204Y136322D03*
X107646Y136322D03*
X105086Y159354D03*
X110204Y159354D03*
X112764Y149118D03*
X115322Y149118D03*
X112764Y146560D03*
X115322Y146560D03*
X110204Y149118D03*
X115322Y154236D03*
X112764Y154236D03*
X112764Y151678D03*
X115322Y151678D03*
X105086Y149118D03*
X112764Y156796D03*
X105086Y151678D03*
X107646Y159354D03*
X107646Y151678D03*
X110204Y151678D03*
X107646Y149118D03*
X110204Y156796D03*
X105086Y161914D03*
X105086Y164472D03*
X110204Y164472D03*
X112764Y161914D03*
X111800Y176800D03*
X108614Y190100D03*
X129547Y4438D03*
X119885Y3404D03*
X122829Y24129D03*
X124518Y26785D03*
X130000Y27900D03*
X126200Y34400D03*
X128968Y31876D03*
X131100Y56500D03*
X127400Y56500D03*
X129400Y54600D03*
X119300Y54900D03*
X125158Y50430D03*
X125158Y47930D03*
X122658Y47930D03*
X122658Y50430D03*
X123100Y63600D03*
X122000Y76300D03*
X125000Y76300D03*
X127800Y76300D03*
X129100Y99200D03*
X120100Y112000D03*
X128936Y109964D03*
X120600Y117400D03*
X124800Y115500D03*
X117882Y131204D03*
X120440Y131204D03*
X128118Y128646D03*
X125560Y126086D03*
X117882Y128646D03*
X120440Y128646D03*
X117882Y126086D03*
X120440Y126086D03*
X125560Y131200D03*
X130678Y126086D03*
X130678Y128646D03*
X128118Y126086D03*
X125900Y117900D03*
X117882Y141440D03*
X125560Y141440D03*
X120440Y141440D03*
X128118Y141440D03*
X117882Y138882D03*
X120440Y138882D03*
X117882Y136322D03*
X120440Y136322D03*
X125560Y138882D03*
X128118Y138882D03*
X125560Y136322D03*
X128118Y136322D03*
X120440Y133764D03*
X117882Y133764D03*
X130678Y141440D03*
X130678Y138882D03*
X130678Y136322D03*
X128118Y133764D03*
X125560Y133764D03*
X130678Y133764D03*
X130678Y149118D03*
X130678Y156796D03*
X130678Y154236D03*
X125560Y154236D03*
X125560Y149118D03*
X120440Y146560D03*
X128118Y154236D03*
X128118Y151678D03*
X120440Y154236D03*
X125560Y151678D03*
X120440Y149118D03*
X125560Y146560D03*
X128118Y149118D03*
X130678Y151678D03*
X128118Y146560D03*
X130678Y146560D03*
X117882Y146560D03*
X117882Y149118D03*
X117882Y154236D03*
X117882Y151678D03*
X128118Y159354D03*
X130678Y159354D03*
X117882Y159354D03*
X125560Y159354D03*
X125560Y156796D03*
X120440Y159354D03*
X120440Y156796D03*
X117882Y156796D03*
X117882Y164472D03*
X125560Y161914D03*
X128118Y164472D03*
X130678Y161914D03*
X117882Y161914D03*
X120440Y161914D03*
X126831Y185700D03*
X123500Y184900D03*
X125500Y183600D03*
X130000Y194400D03*
X134700Y17300D03*
X141700Y17500D03*
X145479Y17479D03*
X132600Y18800D03*
X139573Y18968D03*
X143510Y18968D03*
X134600Y56500D03*
X132700Y54700D03*
X136950Y47154D03*
X141000Y53700D03*
X138300Y54200D03*
X137400Y59000D03*
X132800Y64600D03*
X141058Y69530D03*
X141058Y67030D03*
X143558Y69530D03*
X143558Y67030D03*
X141058Y72030D03*
X143558Y72030D03*
X134270Y80958D03*
X136770Y80958D03*
X135670Y83658D03*
X138170Y83658D03*
X140670Y83658D03*
X139270Y80958D03*
X139132Y101150D03*
X138354Y123528D03*
X135796Y128646D03*
X135796Y126086D03*
X146032Y118410D03*
X132790Y131100D03*
X143470Y120970D03*
X143472Y126086D03*
X143472Y131204D03*
X138354Y128646D03*
X138354Y126086D03*
X140914Y126086D03*
X138354Y131204D03*
X140914Y128646D03*
X135796Y131204D03*
X140914Y131204D03*
X135796Y123528D03*
X143502Y141470D03*
X135796Y141440D03*
X135796Y144000D03*
X138354Y136322D03*
X133236Y141440D03*
X133236Y138882D03*
X133236Y136322D03*
X140913Y141440D03*
X138354Y141440D03*
X138354Y144000D03*
X140914Y144000D03*
X140896Y136304D03*
X135796Y136322D03*
X135796Y138882D03*
X133236Y146560D03*
X133236Y149118D03*
X138384Y149089D03*
X143472Y156796D03*
X138354Y156796D03*
X133236Y154236D03*
X133236Y156796D03*
X135796Y149118D03*
X135796Y151678D03*
X135796Y146560D03*
X143526Y149123D03*
X138354Y154236D03*
X135796Y154236D03*
X140914Y151678D03*
X140914Y156796D03*
X140914Y159354D03*
X143472Y161914D03*
X146032Y161914D03*
X144700Y170500D03*
X135796Y161914D03*
X138344Y164477D03*
X133204Y164498D03*
X140914Y161914D03*
X138300Y186200D03*
X142400Y190100D03*
X145200Y192800D03*
X140800Y195400D03*
X139000Y192800D03*
X132300Y196000D03*
X146300Y4300D03*
X146400Y28000D03*
X156200Y18800D03*
X153353Y18800D03*
X147447Y18968D03*
X150400Y19000D03*
X153700Y42200D03*
X157800Y44000D03*
X157800Y48000D03*
X159400Y58311D03*
X147000Y53700D03*
X154800Y47900D03*
X151000Y56200D03*
X157800Y52000D03*
X156296Y65496D03*
X154236Y73300D03*
X154600Y68000D03*
X160100Y72100D03*
X157500Y106086D03*
X155121Y107879D03*
X147600Y113800D03*
X149500Y115200D03*
X148590Y118410D03*
X149400Y122248D03*
X152650Y158150D03*
X148590Y167032D03*
X148590Y169590D03*
X160100Y167400D03*
X150400Y163300D03*
X158586Y165500D03*
X147700Y178500D03*
X153400Y184800D03*
X164100Y16200D03*
X164100Y13900D03*
X168300Y4364D03*
X167132Y16600D03*
X169102Y18968D03*
X172537Y18763D03*
X172100Y28000D03*
X161228Y18900D03*
X173900Y46000D03*
X163900Y44000D03*
X173778Y49800D03*
X165850Y56835D03*
X164000Y48100D03*
X163900Y52000D03*
X171700Y59300D03*
X165850Y69827D03*
X165850Y74157D03*
X172900Y84200D03*
X170100Y87100D03*
X174000Y90900D03*
X168900Y90600D03*
X171500Y90800D03*
X174700Y111300D03*
X168600Y111200D03*
X171500Y111200D03*
X172900Y135200D03*
X170100Y144000D03*
X170100Y140000D03*
X161301Y132001D03*
X169800Y135200D03*
X167500Y147000D03*
X174700Y154900D03*
X168600Y159100D03*
X170414Y151226D03*
X174500Y151300D03*
X174700Y158000D03*
X161700Y169500D03*
X174700Y179400D03*
X169537Y179512D03*
X171800Y179300D03*
X189100Y16500D03*
X181500Y16000D03*
X182773Y28218D03*
X188800Y24100D03*
X182000Y24000D03*
X188551Y39649D03*
X183614Y50800D03*
X179100Y48100D03*
X180600Y50800D03*
X183200Y56000D03*
X175714Y48000D03*
X177500Y50800D03*
X182200Y48200D03*
X187200Y59200D03*
X187800Y54700D03*
X187800Y51300D03*
X180100Y69500D03*
X175500Y74000D03*
X180100Y73300D03*
X176900Y85800D03*
X176223Y92276D03*
X188827Y118803D03*
X182000Y128100D03*
X187900Y123528D03*
X186986Y129800D03*
X188827Y131402D03*
X187700Y126677D03*
X178800Y126500D03*
X187614Y136112D03*
X183187Y139955D03*
X185800Y134000D03*
X184603Y141370D03*
X181701Y146099D03*
X178000Y141812D03*
X178000Y144600D03*
X186700Y154900D03*
X184400Y159814D03*
X188827Y159748D03*
X179800Y149650D03*
X177100Y152900D03*
X179800Y156650D03*
X176900Y160150D03*
X188600Y167300D03*
X186200Y167200D03*
X175100Y168800D03*
X179800Y163400D03*
X175000Y172400D03*
X180600Y170650D03*
X177854Y167057D03*
X177400Y174214D03*
X175100Y165200D03*
X174900Y161636D03*
X182100Y184650D03*
X174900Y182900D03*
X177400Y181100D03*
X178400Y188150D03*
X175700Y186100D03*
X175000Y175700D03*
X179800Y177650D03*
X195368Y8332D03*
X202405Y12416D03*
X202405Y5416D03*
X202300Y24300D03*
X189773Y28218D03*
X192666Y40262D03*
X202300Y45907D03*
X198565Y76267D03*
X199000Y87000D03*
X201450Y85550D03*
X203000Y90500D03*
X191976Y131402D03*
X195114Y125114D03*
X195100Y131400D03*
X195100Y122000D03*
X191976Y118803D03*
X202730Y123634D03*
X202602Y126409D03*
X195126Y128252D03*
X191976Y125102D03*
X195126Y118803D03*
X191976Y121953D03*
X195113Y137713D03*
X198313Y140887D03*
X199700Y132976D03*
X203000Y136378D03*
X203000Y139024D03*
X195126Y134551D03*
X191989Y137689D03*
X202999Y144599D03*
X195126Y140850D03*
X200700Y140600D03*
X195138Y147138D03*
X191965Y147161D03*
X199674Y155167D03*
X200511Y147875D03*
X203200Y151400D03*
X202700Y157600D03*
X202797Y169012D03*
X200200Y172400D03*
X201100Y165400D03*
X201636Y161564D03*
X200000Y179400D03*
X202800Y182644D03*
X200600Y185900D03*
X202200Y175900D03*
X201300Y189900D03*
X194850Y191750D03*
X209405Y12416D03*
X209405Y5416D03*
X207000Y28100D03*
X203900Y28200D03*
X209600Y30400D03*
X205600Y51400D03*
X208327Y46773D03*
X204000Y48300D03*
X209200Y54300D03*
X214100Y53900D03*
X211500Y55200D03*
X211400Y61200D03*
X213600Y70100D03*
X216900Y74900D03*
X212700Y75600D03*
X213850Y86850D03*
X217400Y88300D03*
X208200Y84100D03*
X213800Y83600D03*
X212000Y97400D03*
X216000Y97400D03*
X215879Y100252D03*
X211800Y117500D03*
X214000Y128300D03*
X217173Y121953D03*
X210863Y121963D03*
X210861Y128239D03*
X215598Y117800D03*
X210888Y125088D03*
X205800Y131400D03*
X207638Y128338D03*
X214024Y125102D03*
X214024Y122000D03*
X209299Y118400D03*
X217700Y139276D03*
X210987Y144113D03*
X214012Y143988D03*
X207300Y140300D03*
X205649Y146140D03*
X207738Y134538D03*
X210874Y134551D03*
X205300Y142100D03*
X210874Y140850D03*
X213987Y140813D03*
X217173Y159748D03*
X214024Y150299D03*
X204800Y149650D03*
X205199Y153678D03*
X204800Y156650D03*
X204711Y160408D03*
X217173Y162898D03*
X217173Y169197D03*
X217173Y166047D03*
X204100Y163400D03*
X205600Y170600D03*
X204100Y167150D03*
X203696Y174190D03*
X214100Y186900D03*
X217600Y174900D03*
X205400Y184386D03*
X204800Y181150D03*
X205982Y187663D03*
X204800Y177650D03*
X226476Y13574D03*
X219476Y13574D03*
X219354Y27121D03*
X220700Y22400D03*
X223400Y21900D03*
X219354Y34121D03*
X225400Y50400D03*
X223700Y53300D03*
X222000Y63300D03*
X222121Y78379D03*
X232021Y78379D03*
X221800Y89000D03*
X222600Y75000D03*
X220000Y97400D03*
X222879Y100252D03*
X227219Y101552D03*
X227219Y94552D03*
X227000Y107500D03*
X227000Y112500D03*
X231000Y114300D03*
X227100Y117600D03*
X221000Y107300D03*
X222300Y112911D03*
X218500Y129827D03*
X230900Y127900D03*
X230900Y122900D03*
X230900Y117900D03*
X218400Y126677D03*
X227100Y127300D03*
X227100Y122300D03*
X226000Y133200D03*
X218100Y142400D03*
X218400Y132976D03*
X230900Y132400D03*
X221700Y132976D03*
X221200Y144700D03*
X218600Y155024D03*
X228900Y159300D03*
X228900Y154700D03*
X225100Y159300D03*
X225100Y154600D03*
X220639Y156561D03*
X225000Y172600D03*
X228900Y169200D03*
X228900Y164800D03*
X225100Y169300D03*
X225100Y164300D03*
X230000Y173100D03*
X230500Y186300D03*
X227000Y181500D03*
X220004Y179986D03*
X218900Y193900D03*
X243373Y13073D03*
X240600Y16300D03*
X244600Y16300D03*
X244961Y45034D03*
X244961Y38034D03*
X241000Y50100D03*
X237300Y56100D03*
X244961Y59034D03*
X244961Y52034D03*
X233800Y52300D03*
X244900Y77700D03*
X245700Y86600D03*
X239700Y87800D03*
X245800Y94500D03*
X236800Y89900D03*
X235900Y111500D03*
X239700Y106400D03*
X245800Y103800D03*
X245800Y112500D03*
X239800Y112000D03*
X242461Y125707D03*
X236800Y117700D03*
X233600Y144000D03*
X241000Y137600D03*
X242461Y132707D03*
X233600Y136000D03*
X233300Y140000D03*
X233600Y152000D03*
X233700Y148000D03*
X245800Y157600D03*
X241500Y154900D03*
X241500Y152400D03*
X241100Y147100D03*
X236000Y169700D03*
X236000Y180900D03*
X239100Y178000D03*
X244000Y185200D03*
X239542Y202486D03*
X232542Y202486D03*
X232200Y199500D03*
X239542Y216486D03*
X232542Y216486D03*
X239542Y209486D03*
X232542Y209486D03*
X254000Y44400D03*
X257100Y34000D03*
X254400Y34000D03*
X254594Y54606D03*
X254594Y47606D03*
X254000Y73400D03*
X257000Y62800D03*
X254300Y62800D03*
X260114Y83900D03*
X257700Y82900D03*
X255000Y82900D03*
X255000Y92900D03*
X260114Y102700D03*
X257800Y102600D03*
X255100Y102600D03*
X257600Y109900D03*
X257693Y130131D03*
X251298Y123187D03*
X248652Y123187D03*
X260339Y130131D03*
X260035Y142874D03*
X256035Y142874D03*
X247299Y139304D03*
X260035Y150874D03*
X256035Y150874D03*
X260035Y146874D03*
X256035Y146874D03*
X248900Y157600D03*
X254094Y160494D03*
X258032Y163968D03*
X254000Y163500D03*
X258301Y176127D03*
X251301Y176127D03*
X252887Y180334D03*
X246542Y202486D03*
X247900Y189500D03*
X246542Y216486D03*
X246542Y209486D03*
X273372Y3576D03*
X265800Y40000D03*
X265800Y45200D03*
X265800Y42700D03*
X265850Y52050D03*
X265500Y69000D03*
X265500Y74200D03*
X265500Y71700D03*
X266500Y78000D03*
X265400Y89000D03*
X269886Y83900D03*
X275000Y92600D03*
X265400Y97700D03*
X265400Y94200D03*
X265400Y91700D03*
X269886Y102800D03*
X275000Y112300D03*
X265500Y109000D03*
X265500Y114200D03*
X265500Y111700D03*
X274000Y126900D03*
X260900Y122000D03*
X260900Y118000D03*
X264035Y142874D03*
X261968Y133468D03*
X272300Y155700D03*
X272700Y160300D03*
X264035Y150874D03*
X264035Y146874D03*
X269200Y155500D03*
X273300Y153000D03*
X265000Y168400D03*
X271826Y166835D03*
X271826Y170835D03*
X269926Y164335D03*
X269926Y168335D03*
X266244Y163869D03*
X263598Y163869D03*
X266700Y184100D03*
X274000Y195200D03*
X273389Y200657D03*
X273389Y214657D03*
X273389Y207657D03*
X287372Y3576D03*
X280372Y3576D03*
X279300Y10100D03*
X281600Y14700D03*
X278067Y29670D03*
X278067Y22670D03*
X277000Y43600D03*
X280331Y62631D03*
X278300Y70900D03*
X281600Y66800D03*
X279331Y127231D03*
X278000Y143600D03*
X278450Y134600D03*
X281096Y134600D03*
X275600Y142100D03*
X275500Y139400D03*
X280601Y154799D03*
X276698Y148630D03*
X276698Y151276D03*
X288300Y169400D03*
X280626Y174735D03*
X279800Y184400D03*
X275900Y177100D03*
X285700Y185000D03*
X280626Y178735D03*
X285800Y190800D03*
X277200Y196900D03*
X286173Y194600D03*
X281000Y215300D03*
X289000Y215300D03*
X297900Y11000D03*
X301563Y15863D03*
X301372Y3576D03*
X294372Y3576D03*
X299710Y29060D03*
X299710Y22060D03*
X299345Y83810D03*
X299345Y76810D03*
X299345Y97810D03*
X299345Y90810D03*
X297759Y141985D03*
X291000Y155800D03*
X298800Y160000D03*
X297759Y148985D03*
X303000Y161000D03*
X299350Y168350D03*
X299400Y184900D03*
X299900Y191200D03*
X293100Y196900D03*
X297000Y215300D03*
X302653Y211326D03*
X315372Y3576D03*
X308372Y3576D03*
X315900Y10600D03*
X307500Y15700D03*
X315900Y20800D03*
X309500Y58300D03*
X309300Y68700D03*
X309600Y63000D03*
X315318Y136132D03*
X307800Y169200D03*
X307800Y167000D03*
X313543Y165039D03*
X314900Y178500D03*
X314500Y185800D03*
X306600Y183900D03*
X304295Y197795D03*
X304200Y200700D03*
X313543Y204961D03*
X316653Y211326D03*
X309653Y211326D03*
X324100Y11000D03*
X327563Y15737D03*
X329341Y26987D03*
X329341Y19987D03*
X321049Y26926D03*
X321049Y19926D03*
X329341Y40987D03*
X329341Y33987D03*
X321049Y33926D03*
X320331Y57200D03*
X322391Y59739D03*
X329341Y54987D03*
X329341Y47987D03*
X329219Y70275D03*
X329219Y63275D03*
X322391Y66739D03*
X329219Y84275D03*
X329219Y77275D03*
X318123Y86565D03*
X329219Y98275D03*
X329219Y91275D03*
X318123Y100565D03*
X318123Y93565D03*
X329219Y112275D03*
X329219Y105275D03*
X318123Y107565D03*
X319331Y128469D03*
X329219Y126275D03*
X329219Y119275D03*
X319098Y131621D03*
X329219Y140275D03*
X329219Y133275D03*
X319098Y138621D03*
X320135Y159483D03*
X329219Y154275D03*
X329219Y147275D03*
X330000Y165039D03*
X320135Y173483D03*
X320135Y166483D03*
X328331Y192331D03*
X320150Y200707D03*
X320150Y193707D03*
X330000Y204961D03*
X323653Y211326D03*
G54D19*
G01X-131000Y-332000D02*
X-131000Y-32000D01*
X492100Y-32000D01*
X492100Y-332000D01*
X-131000Y-332000D01*
G01X-131000Y-307000D02*
X492100Y-307000D01*
G01X-131000Y-282000D02*
X492100Y-282000D01*
G01X-131000Y-257000D02*
X492100Y-257000D01*
G01X-131000Y-232000D02*
X492100Y-232000D01*
G01X-131000Y-207000D02*
X492100Y-207000D01*
G01X-131000Y-182000D02*
X492100Y-182000D01*
G01X-131000Y-157000D02*
X492100Y-157000D01*
G01X-131000Y-132000D02*
X492100Y-132000D01*
G01X-131000Y-107000D02*
X492100Y-107000D01*
G01X-131000Y-82000D02*
X492100Y-82000D01*
G01X-131000Y-57000D02*
X492100Y-57000D01*
G01X-119995Y-100750D02*
X-119995Y-88250D01*
X-114105Y-88250D01*
G01X-116275Y-94292D02*
X-119995Y-94292D01*
G01X-106510Y-88250D02*
X-102790Y-88250D01*
G01X-104650Y-88250D02*
X-104650Y-100750D01*
G01X-106510Y-100750D02*
X-102790Y-100750D01*
G01X-91320Y-94500D02*
X-88220Y-94500D01*
X-88220Y-98250D01*
X-89150Y-99500D01*
X-90235Y-100333D01*
X-91785Y-100750D01*
X-93335Y-100333D01*
X-94420Y-99500D01*
X-95350Y-98250D01*
X-95970Y-96792D01*
X-96280Y-95125D01*
X-96280Y-93667D01*
X-95970Y-92417D01*
X-95350Y-90958D01*
X-94420Y-89708D01*
X-93490Y-88875D01*
X-92250Y-88250D01*
X-91165Y-88250D01*
X-89925Y-88667D01*
X-88995Y-89500D01*
G01X-83260Y-88250D02*
X-83260Y-97208D01*
X-82640Y-99084D01*
X-81400Y-100333D01*
X-79850Y-100750D01*
X-78300Y-100333D01*
X-77060Y-99084D01*
X-76440Y-97208D01*
X-76440Y-88250D01*
G01X-70550Y-100750D02*
X-70550Y-88250D01*
X-66675Y-88250D01*
X-65435Y-88875D01*
X-64660Y-89708D01*
X-64350Y-91375D01*
X-64660Y-93042D01*
X-65590Y-94083D01*
X-66675Y-94708D01*
X-70550Y-94708D01*
G01X-66675Y-94708D02*
X-64350Y-100750D01*
G01X-51950Y-100750D02*
X-58150Y-100750D01*
X-58150Y-88250D01*
X-51950Y-88250D01*
G01X-54430Y-94292D02*
X-58150Y-94292D01*
G01X-41100Y-82000D02*
X-41100Y-332000D01*
G01X-8550Y-325750D02*
X-8550Y-313250D01*
X-10410Y-315750D01*
G01X-10410Y-325750D02*
X-6690Y-325750D01*
G01X3850Y-325750D02*
X3850Y-313250D01*
X1990Y-315750D01*
G01X1990Y-325750D02*
X5710Y-325750D01*
G01X18110Y-325750D02*
X18110Y-313250D01*
X12375Y-322208D01*
X20125Y-322208D01*
G01X28650Y-326167D02*
X28340Y-325958D01*
X28340Y-325542D01*
X28650Y-325333D01*
X28960Y-325542D01*
X28960Y-325958D01*
X28650Y-326167D01*
G01X41050Y-325750D02*
X41050Y-313250D01*
X39190Y-315750D01*
G01X39190Y-325750D02*
X42910Y-325750D01*
G01X53140Y-325750D02*
X53450Y-323042D01*
X53915Y-320750D01*
X54535Y-318667D01*
X55310Y-316375D01*
X56550Y-313250D01*
X50350Y-313250D01*
G01X63525Y-317417D02*
X68175Y-325750D01*
G01X68175Y-317417D02*
X63525Y-325750D01*
G01X75305Y-315333D02*
X76235Y-314084D01*
X77320Y-313458D01*
X78560Y-313250D01*
X80110Y-313667D01*
X81195Y-314708D01*
X81505Y-315958D01*
X81350Y-317209D01*
X80730Y-318250D01*
X77630Y-320333D01*
X76235Y-321792D01*
X75305Y-323875D01*
X74995Y-325750D01*
X81505Y-325750D01*
G01X90340Y-325750D02*
X90650Y-323042D01*
X91115Y-320750D01*
X91735Y-318667D01*
X92510Y-316375D01*
X93750Y-313250D01*
X87550Y-313250D01*
G01X103050Y-326167D02*
X102740Y-325958D01*
X102740Y-325542D01*
X103050Y-325333D01*
X103360Y-325542D01*
X103360Y-325958D01*
X103050Y-326167D01*
G01X112040Y-323875D02*
X112970Y-324917D01*
X114055Y-325542D01*
X115450Y-325750D01*
X116845Y-325333D01*
X117930Y-324500D01*
X118705Y-323042D01*
X118860Y-321375D01*
X118550Y-319708D01*
X117775Y-318667D01*
X116690Y-317833D01*
X115605Y-317625D01*
X114520Y-317833D01*
X113125Y-318667D01*
X113590Y-313250D01*
X117775Y-313250D01*
G01X124905Y-320542D02*
X125990Y-319083D01*
X126920Y-318250D01*
X128160Y-317833D01*
X129245Y-318250D01*
X130020Y-319083D01*
X130640Y-320333D01*
X130795Y-321792D01*
X130640Y-323042D01*
X130020Y-324292D01*
X129090Y-325333D01*
X128005Y-325750D01*
X126765Y-325333D01*
X125680Y-324084D01*
X125060Y-322208D01*
X124905Y-320125D01*
X125215Y-317417D01*
X125680Y-315958D01*
X126455Y-314500D01*
X127540Y-313458D01*
X128625Y-313250D01*
X129710Y-313667D01*
X130485Y-314708D01*
G01X-17695Y-100750D02*
X-17695Y-88250D01*
X-11805Y-88250D01*
G01X-13975Y-94292D02*
X-17695Y-94292D01*
G01X-4210Y-88250D02*
X-490Y-88250D01*
G01X-2350Y-88250D02*
X-2350Y-100750D01*
G01X-4210Y-100750D02*
X-490Y-100750D01*
G01X6485Y-100750D02*
X6485Y-88250D01*
X13615Y-100750D01*
X13615Y-88250D01*
G01X20590Y-88250D02*
X24310Y-88250D01*
G01X22450Y-88250D02*
X22450Y-100750D01*
G01X20590Y-100750D02*
X24310Y-100750D01*
G01X31595Y-99084D02*
X32835Y-100125D01*
X34230Y-100750D01*
X35470Y-100750D01*
X36710Y-100125D01*
X37640Y-99084D01*
X38105Y-97625D01*
X37795Y-96167D01*
X37020Y-94917D01*
X35625Y-94083D01*
X33765Y-93667D01*
X32680Y-92833D01*
X32215Y-91375D01*
X32525Y-89917D01*
X33300Y-88875D01*
X34385Y-88250D01*
X35470Y-88250D01*
X36555Y-88667D01*
X37485Y-89708D01*
G01X43995Y-100750D02*
X43995Y-88250D01*
G01X50505Y-88250D02*
X50505Y-100750D01*
G01X50505Y-94500D02*
X43995Y-94500D01*
G01X62750Y-100750D02*
X56550Y-100750D01*
X56550Y-88250D01*
X62750Y-88250D01*
G01X60270Y-94292D02*
X56550Y-94292D01*
G01X68640Y-100750D02*
X68640Y-88250D01*
X71740Y-88250D01*
X72980Y-88875D01*
X73910Y-89708D01*
X74685Y-90958D01*
X75305Y-92417D01*
X75460Y-94500D01*
X75305Y-96583D01*
X74685Y-98042D01*
X73910Y-99292D01*
X72980Y-100125D01*
X71740Y-100750D01*
X68640Y-100750D01*
G01X79800Y-104917D02*
X89100Y-104917D01*
G01X93595Y-99084D02*
X94835Y-100125D01*
X96230Y-100750D01*
X97470Y-100750D01*
X98710Y-100125D01*
X99640Y-99084D01*
X100105Y-97625D01*
X99795Y-96167D01*
X99020Y-94917D01*
X97625Y-94083D01*
X95765Y-93667D01*
X94680Y-92833D01*
X94215Y-91375D01*
X94525Y-89917D01*
X95300Y-88875D01*
X96385Y-88250D01*
X97470Y-88250D01*
X98555Y-88667D01*
X99485Y-89708D01*
G01X107390Y-88250D02*
X111110Y-88250D01*
G01X109250Y-88250D02*
X109250Y-100750D01*
G01X107390Y-100750D02*
X111110Y-100750D01*
G01X118705Y-88250D02*
X124595Y-88250D01*
X118705Y-100750D01*
X124595Y-100750D01*
G01X137150Y-100750D02*
X130950Y-100750D01*
X130950Y-88250D01*
X137150Y-88250D01*
G01X134670Y-94292D02*
X130950Y-94292D01*
G01X3540Y-300750D02*
X3850Y-298042D01*
X4315Y-295750D01*
X4935Y-293667D01*
X5710Y-291375D01*
X6950Y-288250D01*
X750Y-288250D01*
G01X18110Y-300750D02*
X18110Y-288250D01*
X12375Y-297208D01*
X20125Y-297208D01*
G01X28650Y-301167D02*
X28340Y-300958D01*
X28340Y-300542D01*
X28650Y-300333D01*
X28960Y-300542D01*
X28960Y-300958D01*
X28650Y-301167D01*
G01X41050Y-300750D02*
X42135Y-300542D01*
X43375Y-299917D01*
X44150Y-298875D01*
X44460Y-297417D01*
X44150Y-295959D01*
X43220Y-294708D01*
X41825Y-294083D01*
X40275Y-294083D01*
X39345Y-293667D01*
X38570Y-292625D01*
X38260Y-291167D01*
X38725Y-289708D01*
X39810Y-288667D01*
X41050Y-288250D01*
X42290Y-288667D01*
X43375Y-289708D01*
X43840Y-291167D01*
X43530Y-292625D01*
X42755Y-293667D01*
X41825Y-294083D01*
X40275Y-294083D01*
X38880Y-294708D01*
X37950Y-295959D01*
X37640Y-297417D01*
X37950Y-298875D01*
X38725Y-299917D01*
X39965Y-300542D01*
X41050Y-300750D01*
G01X51125Y-292417D02*
X55775Y-300750D01*
G01X55775Y-292417D02*
X51125Y-300750D01*
G01X62905Y-290333D02*
X63835Y-289084D01*
X64920Y-288458D01*
X66160Y-288250D01*
X67710Y-288667D01*
X68795Y-289708D01*
X69105Y-290958D01*
X68950Y-292209D01*
X68330Y-293250D01*
X65230Y-295333D01*
X63835Y-296792D01*
X62905Y-298875D01*
X62595Y-300750D01*
X69105Y-300750D01*
G01X77940Y-300750D02*
X78250Y-298042D01*
X78715Y-295750D01*
X79335Y-293667D01*
X80110Y-291375D01*
X81350Y-288250D01*
X75150Y-288250D01*
G01X90650Y-301167D02*
X90340Y-300958D01*
X90340Y-300542D01*
X90650Y-300333D01*
X90960Y-300542D01*
X90960Y-300958D01*
X90650Y-301167D01*
G01X99640Y-298875D02*
X100570Y-299917D01*
X101655Y-300542D01*
X103050Y-300750D01*
X104445Y-300333D01*
X105530Y-299500D01*
X106305Y-298042D01*
X106460Y-296375D01*
X106150Y-294708D01*
X105375Y-293667D01*
X104290Y-292833D01*
X103205Y-292625D01*
X102120Y-292833D01*
X100725Y-293667D01*
X101190Y-288250D01*
X105375Y-288250D01*
G01X112505Y-295542D02*
X113590Y-294083D01*
X114520Y-293250D01*
X115760Y-292833D01*
X116845Y-293250D01*
X117620Y-294083D01*
X118240Y-295333D01*
X118395Y-296792D01*
X118240Y-298042D01*
X117620Y-299292D01*
X116690Y-300333D01*
X115605Y-300750D01*
X114365Y-300333D01*
X113280Y-299084D01*
X112660Y-297208D01*
X112505Y-295125D01*
X112815Y-292417D01*
X113280Y-290958D01*
X114055Y-289500D01*
X115140Y-288458D01*
X116225Y-288250D01*
X117310Y-288667D01*
X118085Y-289708D01*
G01X-5295Y-270542D02*
X-4210Y-269083D01*
X-3280Y-268250D01*
X-2040Y-267833D01*
X-955Y-268250D01*
X-180Y-269083D01*
X440Y-270333D01*
X595Y-271792D01*
X440Y-273042D01*
X-180Y-274292D01*
X-1110Y-275333D01*
X-2195Y-275750D01*
X-3435Y-275333D01*
X-4520Y-274084D01*
X-5140Y-272208D01*
X-5295Y-270125D01*
X-4985Y-267417D01*
X-4520Y-265958D01*
X-3745Y-264500D01*
X-2660Y-263458D01*
X-1575Y-263250D01*
X-490Y-263667D01*
X285Y-264708D01*
G01X7105Y-265333D02*
X8035Y-264084D01*
X9120Y-263458D01*
X10360Y-263250D01*
X11910Y-263667D01*
X12995Y-264708D01*
X13305Y-265958D01*
X13150Y-267209D01*
X12530Y-268250D01*
X9430Y-270333D01*
X8035Y-271792D01*
X7105Y-273875D01*
X6795Y-275750D01*
X13305Y-275750D01*
G01X22450Y-276167D02*
X22140Y-275958D01*
X22140Y-275542D01*
X22450Y-275333D01*
X22760Y-275542D01*
X22760Y-275958D01*
X22450Y-276167D01*
G01X32215Y-274292D02*
X33300Y-275333D01*
X34540Y-275750D01*
X35780Y-275333D01*
X36865Y-274084D01*
X37640Y-272208D01*
X37950Y-270333D01*
X37950Y-268042D01*
X37640Y-266167D01*
X36865Y-264500D01*
X35935Y-263667D01*
X34850Y-263250D01*
X33610Y-263667D01*
X32680Y-264500D01*
X32060Y-265750D01*
X31750Y-267417D01*
X32060Y-268875D01*
X32835Y-270333D01*
X33765Y-271167D01*
X34850Y-271375D01*
X36090Y-270959D01*
X37020Y-269917D01*
X37950Y-268042D01*
G01X44615Y-274292D02*
X45700Y-275333D01*
X46940Y-275750D01*
X48180Y-275333D01*
X49265Y-274084D01*
X50040Y-272208D01*
X50350Y-270333D01*
X50350Y-268042D01*
X50040Y-266167D01*
X49265Y-264500D01*
X48335Y-263667D01*
X47250Y-263250D01*
X46010Y-263667D01*
X45080Y-264500D01*
X44460Y-265750D01*
X44150Y-267417D01*
X44460Y-268875D01*
X45235Y-270333D01*
X46165Y-271167D01*
X47250Y-271375D01*
X48490Y-270959D01*
X49420Y-269917D01*
X50350Y-268042D01*
G01X57325Y-267417D02*
X61975Y-275750D01*
G01X61975Y-267417D02*
X57325Y-275750D01*
G01X72050Y-275750D02*
X72050Y-263250D01*
X70190Y-265750D01*
G01X70190Y-275750D02*
X73910Y-275750D01*
G01X81815Y-274292D02*
X82900Y-275333D01*
X84140Y-275750D01*
X85380Y-275333D01*
X86465Y-274084D01*
X87240Y-272208D01*
X87550Y-270333D01*
X87550Y-268042D01*
X87240Y-266167D01*
X86465Y-264500D01*
X85535Y-263667D01*
X84450Y-263250D01*
X83210Y-263667D01*
X82280Y-264500D01*
X81660Y-265750D01*
X81350Y-267417D01*
X81660Y-268875D01*
X82435Y-270333D01*
X83365Y-271167D01*
X84450Y-271375D01*
X85690Y-270959D01*
X86620Y-269917D01*
X87550Y-268042D01*
G01X96850Y-276167D02*
X96540Y-275958D01*
X96540Y-275542D01*
X96850Y-275333D01*
X97160Y-275542D01*
X97160Y-275958D01*
X96850Y-276167D01*
G01X106305Y-270542D02*
X107390Y-269083D01*
X108320Y-268250D01*
X109560Y-267833D01*
X110645Y-268250D01*
X111420Y-269083D01*
X112040Y-270333D01*
X112195Y-271792D01*
X112040Y-273042D01*
X111420Y-274292D01*
X110490Y-275333D01*
X109405Y-275750D01*
X108165Y-275333D01*
X107080Y-274084D01*
X106460Y-272208D01*
X106305Y-270125D01*
X106615Y-267417D01*
X107080Y-265958D01*
X107855Y-264500D01*
X108940Y-263458D01*
X110025Y-263250D01*
X111110Y-263667D01*
X111885Y-264708D01*
G01X121650Y-275750D02*
X122735Y-275542D01*
X123975Y-274917D01*
X124750Y-273875D01*
X125060Y-272417D01*
X124750Y-270959D01*
X123820Y-269708D01*
X122425Y-269083D01*
X120875Y-269083D01*
X119945Y-268667D01*
X119170Y-267625D01*
X118860Y-266167D01*
X119325Y-264708D01*
X120410Y-263667D01*
X121650Y-263250D01*
X122890Y-263667D01*
X123975Y-264708D01*
X124440Y-266167D01*
X124130Y-267625D01*
X123355Y-268667D01*
X122425Y-269083D01*
X120875Y-269083D01*
X119480Y-269708D01*
X118550Y-270959D01*
X118240Y-272417D01*
X118550Y-273875D01*
X119325Y-274917D01*
X120565Y-275542D01*
X121650Y-275750D01*
G01X230293Y3550D02*
G02X232261Y1581I0J-1968D01*
G01X232261Y0D01*
X322835Y0D01*
G03X334646Y11811I0J11811D01*
G01X334646Y208661D01*
G03X322835Y220472I-11811J0D01*
G01X11811Y220472D01*
G03X0Y208661I0J-11811D01*
G01X0Y11811D01*
G03X11811Y0I11811J0D01*
G01X215332Y0D01*
X215332Y1581D01*
G02X217301Y3550I1969J0D01*
G01X230293Y3550D01*
G01X230293Y3550D02*
G02X232261Y1581I0J-1968D01*
G01X232261Y0D01*
X322835Y0D01*
G03X334646Y11811I0J11811D01*
G01X334646Y208661D01*
G03X322835Y220472I-11811J0D01*
G01X11811Y220472D01*
G03X0Y208661I0J-11811D01*
G01X0Y11811D01*
G03X11811Y0I11811J0D01*
G01X215332Y0D01*
X215332Y1581D01*
G02X217301Y3550I1969J0D01*
G01X31440Y-248875D02*
X32370Y-249917D01*
X33455Y-250542D01*
X34850Y-250750D01*
X36245Y-250333D01*
X37330Y-249500D01*
X38105Y-248042D01*
X38260Y-246375D01*
X37950Y-244708D01*
X37175Y-243667D01*
X36090Y-242833D01*
X35005Y-242625D01*
X33920Y-242833D01*
X32525Y-243667D01*
X32990Y-238250D01*
X37175Y-238250D01*
G01X43840Y-248875D02*
X44770Y-249917D01*
X45855Y-250542D01*
X47250Y-250750D01*
X48645Y-250333D01*
X49730Y-249500D01*
X50505Y-248042D01*
X50660Y-246375D01*
X50350Y-244708D01*
X49575Y-243667D01*
X48490Y-242833D01*
X47405Y-242625D01*
X46320Y-242833D01*
X44925Y-243667D01*
X45390Y-238250D01*
X49575Y-238250D01*
G01X59650Y-251167D02*
X59340Y-250958D01*
X59340Y-250542D01*
X59650Y-250333D01*
X59960Y-250542D01*
X59960Y-250958D01*
X59650Y-251167D01*
G01X72050Y-250750D02*
X72050Y-238250D01*
X70190Y-240750D01*
G01X70190Y-250750D02*
X73910Y-250750D01*
G01X81505Y-240333D02*
X82435Y-239084D01*
X83520Y-238458D01*
X84760Y-238250D01*
X86310Y-238667D01*
X87395Y-239708D01*
X87705Y-240958D01*
X87550Y-242209D01*
X86930Y-243250D01*
X83830Y-245333D01*
X82435Y-246792D01*
X81505Y-248875D01*
X81195Y-250750D01*
X87705Y-250750D01*
G01X31905Y-215333D02*
X32835Y-214084D01*
X33920Y-213458D01*
X35160Y-213250D01*
X36710Y-213667D01*
X37795Y-214708D01*
X38105Y-215958D01*
X37950Y-217209D01*
X37330Y-218250D01*
X34230Y-220333D01*
X32835Y-221792D01*
X31905Y-223875D01*
X31595Y-225750D01*
X38105Y-225750D01*
G01X43840Y-223875D02*
X44770Y-224917D01*
X45855Y-225542D01*
X47250Y-225750D01*
X48645Y-225333D01*
X49730Y-224500D01*
X50505Y-223042D01*
X50660Y-221375D01*
X50350Y-219708D01*
X49575Y-218667D01*
X48490Y-217833D01*
X47405Y-217625D01*
X46320Y-217833D01*
X44925Y-218667D01*
X45390Y-213250D01*
X49575Y-213250D01*
G01X59650Y-226167D02*
X59340Y-225958D01*
X59340Y-225542D01*
X59650Y-225333D01*
X59960Y-225542D01*
X59960Y-225958D01*
X59650Y-226167D01*
G01X68640Y-223875D02*
X69570Y-224917D01*
X70655Y-225542D01*
X72050Y-225750D01*
X73445Y-225333D01*
X74530Y-224500D01*
X75305Y-223042D01*
X75460Y-221375D01*
X75150Y-219708D01*
X74375Y-218667D01*
X73290Y-217833D01*
X72205Y-217625D01*
X71120Y-217833D01*
X69725Y-218667D01*
X70190Y-213250D01*
X74375Y-213250D01*
G01X81815Y-224292D02*
X82900Y-225333D01*
X84140Y-225750D01*
X85380Y-225333D01*
X86465Y-224084D01*
X87240Y-222208D01*
X87550Y-220333D01*
X87550Y-218042D01*
X87240Y-216167D01*
X86465Y-214500D01*
X85535Y-213667D01*
X84450Y-213250D01*
X83210Y-213667D01*
X82280Y-214500D01*
X81660Y-215750D01*
X81350Y-217417D01*
X81660Y-218875D01*
X82435Y-220333D01*
X83365Y-221167D01*
X84450Y-221375D01*
X85690Y-220959D01*
X86620Y-219917D01*
X87550Y-218042D01*
G01X28650Y-200750D02*
X28650Y-188250D01*
X26790Y-190750D01*
G01X26790Y-200750D02*
X30510Y-200750D01*
G01X38105Y-190333D02*
X39035Y-189084D01*
X40120Y-188458D01*
X41360Y-188250D01*
X42910Y-188667D01*
X43995Y-189708D01*
X44305Y-190958D01*
X44150Y-192209D01*
X43530Y-193250D01*
X40430Y-195333D01*
X39035Y-196792D01*
X38105Y-198875D01*
X37795Y-200750D01*
X44305Y-200750D01*
G01X50040Y-198875D02*
X50970Y-199917D01*
X52055Y-200542D01*
X53450Y-200750D01*
X54845Y-200333D01*
X55930Y-199500D01*
X56705Y-198042D01*
X56860Y-196375D01*
X56550Y-194708D01*
X55775Y-193667D01*
X54690Y-192833D01*
X53605Y-192625D01*
X52520Y-192833D01*
X51125Y-193667D01*
X51590Y-188250D01*
X55775Y-188250D01*
G01X65850Y-201167D02*
X65540Y-200958D01*
X65540Y-200542D01*
X65850Y-200333D01*
X66160Y-200542D01*
X66160Y-200958D01*
X65850Y-201167D01*
G01X75615Y-199292D02*
X76700Y-200333D01*
X77940Y-200750D01*
X79180Y-200333D01*
X80265Y-199084D01*
X81040Y-197208D01*
X81350Y-195333D01*
X81350Y-193042D01*
X81040Y-191167D01*
X80265Y-189500D01*
X79335Y-188667D01*
X78250Y-188250D01*
X77010Y-188667D01*
X76080Y-189500D01*
X75460Y-190750D01*
X75150Y-192417D01*
X75460Y-193875D01*
X76235Y-195333D01*
X77165Y-196167D01*
X78250Y-196375D01*
X79490Y-195959D01*
X80420Y-194917D01*
X81350Y-193042D01*
G01X90650Y-200750D02*
X91735Y-200542D01*
X92975Y-199917D01*
X93750Y-198875D01*
X94060Y-197417D01*
X93750Y-195959D01*
X92820Y-194708D01*
X91425Y-194083D01*
X89875Y-194083D01*
X88945Y-193667D01*
X88170Y-192625D01*
X87860Y-191167D01*
X88325Y-189708D01*
X89410Y-188667D01*
X90650Y-188250D01*
X91890Y-188667D01*
X92975Y-189708D01*
X93440Y-191167D01*
X93130Y-192625D01*
X92355Y-193667D01*
X91425Y-194083D01*
X89875Y-194083D01*
X88480Y-194708D01*
X87550Y-195959D01*
X87240Y-197417D01*
X87550Y-198875D01*
X88325Y-199917D01*
X89565Y-200542D01*
X90650Y-200750D01*
G01X32215Y-174292D02*
X33300Y-175333D01*
X34540Y-175750D01*
X35780Y-175333D01*
X36865Y-174084D01*
X37640Y-172208D01*
X37950Y-170333D01*
X37950Y-168042D01*
X37640Y-166167D01*
X36865Y-164500D01*
X35935Y-163667D01*
X34850Y-163250D01*
X33610Y-163667D01*
X32680Y-164500D01*
X32060Y-165750D01*
X31750Y-167417D01*
X32060Y-168875D01*
X32835Y-170333D01*
X33765Y-171167D01*
X34850Y-171375D01*
X36090Y-170959D01*
X37020Y-169917D01*
X37950Y-168042D01*
G01X47250Y-163250D02*
X46010Y-163667D01*
X45080Y-164708D01*
X44460Y-165958D01*
X43995Y-167625D01*
X43840Y-169500D01*
X43995Y-171375D01*
X44460Y-173042D01*
X45080Y-174292D01*
X46010Y-175333D01*
X47250Y-175750D01*
X48490Y-175333D01*
X49420Y-174292D01*
X50040Y-173042D01*
X50505Y-171375D01*
X50660Y-169500D01*
X50505Y-167625D01*
X50040Y-165958D01*
X49420Y-164708D01*
X48490Y-163667D01*
X47250Y-163250D01*
G01X59650Y-176167D02*
X59340Y-175958D01*
X59340Y-175542D01*
X59650Y-175333D01*
X59960Y-175542D01*
X59960Y-175958D01*
X59650Y-176167D01*
G01X68640Y-173875D02*
X69570Y-174917D01*
X70655Y-175542D01*
X72050Y-175750D01*
X73445Y-175333D01*
X74530Y-174500D01*
X75305Y-173042D01*
X75460Y-171375D01*
X75150Y-169708D01*
X74375Y-168667D01*
X73290Y-167833D01*
X72205Y-167625D01*
X71120Y-167833D01*
X69725Y-168667D01*
X70190Y-163250D01*
X74375Y-163250D01*
G01X81040Y-173875D02*
X81970Y-174917D01*
X83055Y-175542D01*
X84450Y-175750D01*
X85845Y-175333D01*
X86930Y-174500D01*
X87705Y-173042D01*
X87860Y-171375D01*
X87550Y-169708D01*
X86775Y-168667D01*
X85690Y-167833D01*
X84605Y-167625D01*
X83520Y-167833D01*
X82125Y-168667D01*
X82590Y-163250D01*
X86775Y-163250D01*
G01X22140Y-50750D02*
X22140Y-38250D01*
X25240Y-38250D01*
X26480Y-38875D01*
X27410Y-39708D01*
X28185Y-40958D01*
X28805Y-42417D01*
X28960Y-44500D01*
X28805Y-46583D01*
X28185Y-48042D01*
X27410Y-49292D01*
X26480Y-50125D01*
X25240Y-50750D01*
X22140Y-50750D01*
G01X34850Y-50750D02*
X34850Y-38250D01*
X38725Y-38250D01*
X39965Y-38875D01*
X40740Y-39708D01*
X41050Y-41375D01*
X40740Y-43042D01*
X39810Y-44083D01*
X38725Y-44708D01*
X34850Y-44708D01*
G01X38725Y-44708D02*
X41050Y-50750D01*
G01X48490Y-38250D02*
X52210Y-38250D01*
G01X50350Y-38250D02*
X50350Y-50750D01*
G01X48490Y-50750D02*
X52210Y-50750D01*
G01X59650Y-38250D02*
X59650Y-50750D01*
X65850Y-50750D01*
G01X72050Y-38250D02*
X72050Y-50750D01*
X78250Y-50750D01*
G01X103360Y-39292D02*
X102430Y-38667D01*
X101345Y-38250D01*
X100105Y-38250D01*
X98710Y-38875D01*
X97625Y-39917D01*
X96850Y-41167D01*
X96230Y-43250D01*
X96075Y-45125D01*
X96385Y-47000D01*
X96850Y-48250D01*
X97780Y-49500D01*
X98865Y-50333D01*
X99950Y-50750D01*
X101035Y-50750D01*
X102120Y-50333D01*
X103050Y-49709D01*
X103825Y-48875D01*
G01X109095Y-50750D02*
X109095Y-38250D01*
G01X115605Y-38250D02*
X115605Y-50750D01*
G01X115605Y-44500D02*
X109095Y-44500D01*
G01X120875Y-50750D02*
X124750Y-38250D01*
X128625Y-50750D01*
G01X127230Y-46375D02*
X122270Y-46375D01*
G01X134050Y-50750D02*
X134050Y-38250D01*
X137925Y-38250D01*
X139165Y-38875D01*
X139940Y-39708D01*
X140250Y-41375D01*
X139940Y-43042D01*
X139010Y-44083D01*
X137925Y-44708D01*
X134050Y-44708D01*
G01X137925Y-44708D02*
X140250Y-50750D01*
G01X149550Y-38250D02*
X149550Y-50750D01*
G01X145985Y-38250D02*
X153115Y-38250D01*
G01X161950Y-51167D02*
X161640Y-50958D01*
X161640Y-50542D01*
X161950Y-50333D01*
X162260Y-50542D01*
X162260Y-50958D01*
X161950Y-51167D01*
G01X161950Y-45542D02*
X161640Y-45333D01*
X161640Y-44917D01*
X161950Y-44708D01*
X162260Y-44917D01*
X162260Y-45333D01*
X161950Y-45542D01*
G01X186750Y-38250D02*
X186750Y-50750D01*
G01X183185Y-38250D02*
X190315Y-38250D01*
G01X199150Y-50750D02*
X197910Y-50542D01*
X196825Y-49709D01*
X195895Y-48458D01*
X195275Y-47000D01*
X194965Y-45333D01*
X194965Y-43667D01*
X195275Y-42000D01*
X195895Y-40542D01*
X196825Y-39292D01*
X197910Y-38458D01*
X199150Y-38250D01*
X200390Y-38458D01*
X201475Y-39292D01*
X202405Y-40542D01*
X203025Y-42000D01*
X203335Y-43667D01*
X203335Y-45333D01*
X203025Y-47000D01*
X202405Y-48458D01*
X201475Y-49709D01*
X200390Y-50542D01*
X199150Y-50750D01*
G01X208450Y-50750D02*
X208450Y-38250D01*
X212170Y-38250D01*
X213410Y-38875D01*
X214340Y-40333D01*
X214650Y-42000D01*
X214340Y-43667D01*
X213565Y-44917D01*
X212170Y-45542D01*
X208450Y-45542D01*
G01X236350Y-38250D02*
X236350Y-50750D01*
G01X234180Y-42417D02*
X238520Y-42417D01*
G01X248750Y-50750D02*
X247820Y-50542D01*
X246890Y-49709D01*
X246270Y-48250D01*
X245960Y-46583D01*
X246270Y-44917D01*
X246890Y-43458D01*
X247820Y-42625D01*
X248750Y-42417D01*
X249680Y-42625D01*
X250610Y-43458D01*
X251230Y-44917D01*
X251385Y-46583D01*
X251230Y-48250D01*
X250610Y-49709D01*
X249680Y-50542D01*
X248750Y-50750D01*
G01X274790Y-44083D02*
X275410Y-43458D01*
X275875Y-42417D01*
X276185Y-40958D01*
X275875Y-39708D01*
X275255Y-38875D01*
X274170Y-38250D01*
X269985Y-38250D01*
X269985Y-50750D01*
X275100Y-50750D01*
X276185Y-49917D01*
X276805Y-48667D01*
X277115Y-47208D01*
X276805Y-45750D01*
X275875Y-44500D01*
X274790Y-44083D01*
X269985Y-44083D01*
G01X285950Y-50750D02*
X284710Y-50542D01*
X283625Y-49709D01*
X282695Y-48458D01*
X282075Y-47000D01*
X281765Y-45333D01*
X281765Y-43667D01*
X282075Y-42000D01*
X282695Y-40542D01*
X283625Y-39292D01*
X284710Y-38458D01*
X285950Y-38250D01*
X287190Y-38458D01*
X288275Y-39292D01*
X289205Y-40542D01*
X289825Y-42000D01*
X290135Y-43667D01*
X290135Y-45333D01*
X289825Y-47000D01*
X289205Y-48458D01*
X288275Y-49709D01*
X287190Y-50542D01*
X285950Y-50750D01*
G01X298350Y-38250D02*
X298350Y-50750D01*
G01X294785Y-38250D02*
X301915Y-38250D01*
G01X310750Y-38250D02*
X310750Y-50750D01*
G01X307185Y-38250D02*
X314315Y-38250D01*
G01X323150Y-50750D02*
X321910Y-50542D01*
X320825Y-49709D01*
X319895Y-48458D01*
X319275Y-47000D01*
X318965Y-45333D01*
X318965Y-43667D01*
X319275Y-42000D01*
X319895Y-40542D01*
X320825Y-39292D01*
X321910Y-38458D01*
X323150Y-38250D01*
X324390Y-38458D01*
X325475Y-39292D01*
X326405Y-40542D01*
X327025Y-42000D01*
X327335Y-43667D01*
X327335Y-45333D01*
X327025Y-47000D01*
X326405Y-48458D01*
X325475Y-49709D01*
X324390Y-50542D01*
X323150Y-50750D01*
G01X331520Y-50750D02*
X331520Y-38250D01*
X335550Y-48667D01*
X339580Y-38250D01*
X339580Y-50750D01*
G01X42910Y-150750D02*
X42910Y-138250D01*
X37175Y-147208D01*
X44925Y-147208D01*
G01X53450Y-138250D02*
X52210Y-138667D01*
X51280Y-139708D01*
X50660Y-140958D01*
X50195Y-142625D01*
X50040Y-144500D01*
X50195Y-146375D01*
X50660Y-148042D01*
X51280Y-149292D01*
X52210Y-150333D01*
X53450Y-150750D01*
X54690Y-150333D01*
X55620Y-149292D01*
X56240Y-148042D01*
X56705Y-146375D01*
X56860Y-144500D01*
X56705Y-142625D01*
X56240Y-140958D01*
X55620Y-139708D01*
X54690Y-138667D01*
X53450Y-138250D01*
G01X65850Y-151167D02*
X65540Y-150958D01*
X65540Y-150542D01*
X65850Y-150333D01*
X66160Y-150542D01*
X66160Y-150958D01*
X65850Y-151167D01*
G01X78250Y-138250D02*
X77010Y-138667D01*
X76080Y-139708D01*
X75460Y-140958D01*
X74995Y-142625D01*
X74840Y-144500D01*
X74995Y-146375D01*
X75460Y-148042D01*
X76080Y-149292D01*
X77010Y-150333D01*
X78250Y-150750D01*
X79490Y-150333D01*
X80420Y-149292D01*
X81040Y-148042D01*
X81505Y-146375D01*
X81660Y-144500D01*
X81505Y-142625D01*
X81040Y-140958D01*
X80420Y-139708D01*
X79490Y-138667D01*
X78250Y-138250D01*
G01X40740Y-125750D02*
X41050Y-123042D01*
X41515Y-120750D01*
X42135Y-118667D01*
X42910Y-116375D01*
X44150Y-113250D01*
X37950Y-113250D01*
G01X53450Y-126167D02*
X53140Y-125958D01*
X53140Y-125542D01*
X53450Y-125333D01*
X53760Y-125542D01*
X53760Y-125958D01*
X53450Y-126167D01*
G01X65850Y-125750D02*
X66935Y-125542D01*
X68175Y-124917D01*
X68950Y-123875D01*
X69260Y-122417D01*
X68950Y-120959D01*
X68020Y-119708D01*
X66625Y-119083D01*
X65075Y-119083D01*
X64145Y-118667D01*
X63370Y-117625D01*
X63060Y-116167D01*
X63525Y-114708D01*
X64610Y-113667D01*
X65850Y-113250D01*
X67090Y-113667D01*
X68175Y-114708D01*
X68640Y-116167D01*
X68330Y-117625D01*
X67555Y-118667D01*
X66625Y-119083D01*
X65075Y-119083D01*
X63680Y-119708D01*
X62750Y-120959D01*
X62440Y-122417D01*
X62750Y-123875D01*
X63525Y-124917D01*
X64765Y-125542D01*
X65850Y-125750D01*
G01X77940Y-125750D02*
X78250Y-123042D01*
X78715Y-120750D01*
X79335Y-118667D01*
X80110Y-116375D01*
X81350Y-113250D01*
X75150Y-113250D01*
G01X52675Y-75750D02*
X56550Y-63250D01*
X60425Y-75750D01*
G01X59030Y-71375D02*
X54070Y-71375D01*
G01X65850Y-63250D02*
X65850Y-75750D01*
X72050Y-75750D01*
G01X78250Y-63250D02*
X78250Y-75750D01*
X84450Y-75750D01*
G01X102740Y-63250D02*
X102740Y-72208D01*
X103360Y-74084D01*
X104600Y-75333D01*
X106150Y-75750D01*
X107700Y-75333D01*
X108940Y-74084D01*
X109560Y-72208D01*
X109560Y-63250D01*
G01X114985Y-75750D02*
X114985Y-63250D01*
X122115Y-75750D01*
X122115Y-63250D01*
G01X129090Y-63250D02*
X132810Y-63250D01*
G01X130950Y-63250D02*
X130950Y-75750D01*
G01X129090Y-75750D02*
X132810Y-75750D01*
G01X143350Y-63250D02*
X143350Y-75750D01*
G01X139785Y-63250D02*
X146915Y-63250D01*
G01X152495Y-74084D02*
X153735Y-75125D01*
X155130Y-75750D01*
X156370Y-75750D01*
X157610Y-75125D01*
X158540Y-74084D01*
X159005Y-72625D01*
X158695Y-71167D01*
X157920Y-69917D01*
X156525Y-69083D01*
X154665Y-68667D01*
X153580Y-67833D01*
X153115Y-66375D01*
X153425Y-64917D01*
X154200Y-63875D01*
X155285Y-63250D01*
X156370Y-63250D01*
X157455Y-63667D01*
X158385Y-64708D01*
G01X176675Y-75750D02*
X180550Y-63250D01*
X184425Y-75750D01*
G01X183030Y-71375D02*
X178070Y-71375D01*
G01X189850Y-75750D02*
X189850Y-63250D01*
X193725Y-63250D01*
X194965Y-63875D01*
X195740Y-64708D01*
X196050Y-66375D01*
X195740Y-68042D01*
X194810Y-69083D01*
X193725Y-69708D01*
X189850Y-69708D01*
G01X193725Y-69708D02*
X196050Y-75750D01*
G01X208450Y-75750D02*
X202250Y-75750D01*
X202250Y-63250D01*
X208450Y-63250D01*
G01X205970Y-69292D02*
X202250Y-69292D01*
G01X228290Y-63250D02*
X232010Y-63250D01*
G01X230150Y-63250D02*
X230150Y-75750D01*
G01X228290Y-75750D02*
X232010Y-75750D01*
G01X238985Y-75750D02*
X238985Y-63250D01*
X246115Y-75750D01*
X246115Y-63250D01*
G01X263320Y-75750D02*
X263320Y-63250D01*
X267350Y-73667D01*
X271380Y-63250D01*
X271380Y-75750D01*
G01X277890Y-63250D02*
X281610Y-63250D01*
G01X279750Y-63250D02*
X279750Y-75750D01*
G01X277890Y-75750D02*
X281610Y-75750D01*
G01X289050Y-63250D02*
X289050Y-75750D01*
X295250Y-75750D01*
G01X301295Y-74084D02*
X302535Y-75125D01*
X303930Y-75750D01*
X305170Y-75750D01*
X306410Y-75125D01*
X307340Y-74084D01*
X307805Y-72625D01*
X307495Y-71167D01*
X306720Y-69917D01*
X305325Y-69083D01*
X303465Y-68667D01*
X302380Y-67833D01*
X301915Y-66375D01*
X302225Y-64917D01*
X303000Y-63875D01*
X304085Y-63250D01*
X305170Y-63250D01*
X306255Y-63667D01*
X307185Y-64708D01*
G01X160400Y-82000D02*
X160400Y-332000D01*
G01X190315Y-274292D02*
X191400Y-275333D01*
X192640Y-275750D01*
X193880Y-275333D01*
X194965Y-274084D01*
X195740Y-272208D01*
X196050Y-270333D01*
X196050Y-268042D01*
X195740Y-266167D01*
X194965Y-264500D01*
X194035Y-263667D01*
X192950Y-263250D01*
X191710Y-263667D01*
X190780Y-264500D01*
X190160Y-265750D01*
X189850Y-267417D01*
X190160Y-268875D01*
X190935Y-270333D01*
X191865Y-271167D01*
X192950Y-271375D01*
X194190Y-270959D01*
X195120Y-269917D01*
X196050Y-268042D01*
G01X205350Y-263250D02*
X204110Y-263667D01*
X203180Y-264708D01*
X202560Y-265958D01*
X202095Y-267625D01*
X201940Y-269500D01*
X202095Y-271375D01*
X202560Y-273042D01*
X203180Y-274292D01*
X204110Y-275333D01*
X205350Y-275750D01*
X206590Y-275333D01*
X207520Y-274292D01*
X208140Y-273042D01*
X208605Y-271375D01*
X208760Y-269500D01*
X208605Y-267625D01*
X208140Y-265958D01*
X207520Y-264708D01*
X206590Y-263667D01*
X205350Y-263250D01*
G01X217750Y-276167D02*
X217440Y-275958D01*
X217440Y-275542D01*
X217750Y-275333D01*
X218060Y-275542D01*
X218060Y-275958D01*
X217750Y-276167D01*
G01X230150Y-263250D02*
X228910Y-263667D01*
X227980Y-264708D01*
X227360Y-265958D01*
X226895Y-267625D01*
X226740Y-269500D01*
X226895Y-271375D01*
X227360Y-273042D01*
X227980Y-274292D01*
X228910Y-275333D01*
X230150Y-275750D01*
X231390Y-275333D01*
X232320Y-274292D01*
X232940Y-273042D01*
X233405Y-271375D01*
X233560Y-269500D01*
X233405Y-267625D01*
X232940Y-265958D01*
X232320Y-264708D01*
X231390Y-263667D01*
X230150Y-263250D01*
G01X242550Y-263250D02*
X241310Y-263667D01*
X240380Y-264708D01*
X239760Y-265958D01*
X239295Y-267625D01*
X239140Y-269500D01*
X239295Y-271375D01*
X239760Y-273042D01*
X240380Y-274292D01*
X241310Y-275333D01*
X242550Y-275750D01*
X243790Y-275333D01*
X244720Y-274292D01*
X245340Y-273042D01*
X245805Y-271375D01*
X245960Y-269500D01*
X245805Y-267625D01*
X245340Y-265958D01*
X244720Y-264708D01*
X243790Y-263667D01*
X242550Y-263250D01*
G01X254950Y-263250D02*
X253710Y-263667D01*
X252780Y-264708D01*
X252160Y-265958D01*
X251695Y-267625D01*
X251540Y-269500D01*
X251695Y-271375D01*
X252160Y-273042D01*
X252780Y-274292D01*
X253710Y-275333D01*
X254950Y-275750D01*
X256190Y-275333D01*
X257120Y-274292D01*
X257740Y-273042D01*
X258205Y-271375D01*
X258360Y-269500D01*
X258205Y-267625D01*
X257740Y-265958D01*
X257120Y-264708D01*
X256190Y-263667D01*
X254950Y-263250D01*
G01X177450Y-100750D02*
X177450Y-88250D01*
X181325Y-88250D01*
X182565Y-88875D01*
X183340Y-89708D01*
X183650Y-91375D01*
X183340Y-93042D01*
X182410Y-94083D01*
X181325Y-94708D01*
X177450Y-94708D01*
G01X181325Y-94708D02*
X183650Y-100750D01*
G01X192950Y-100750D02*
X191710Y-100542D01*
X190625Y-99709D01*
X189695Y-98458D01*
X189075Y-97000D01*
X188765Y-95333D01*
X188765Y-93667D01*
X189075Y-92000D01*
X189695Y-90542D01*
X190625Y-89292D01*
X191710Y-88458D01*
X192950Y-88250D01*
X194190Y-88458D01*
X195275Y-89292D01*
X196205Y-90542D01*
X196825Y-92000D01*
X197135Y-93667D01*
X197135Y-95333D01*
X196825Y-97000D01*
X196205Y-98458D01*
X195275Y-99709D01*
X194190Y-100542D01*
X192950Y-100750D01*
G01X205350Y-88250D02*
X205350Y-100750D01*
G01X201785Y-88250D02*
X208915Y-88250D01*
G01X213875Y-100750D02*
X217750Y-88250D01*
X221625Y-100750D01*
G01X220230Y-96375D02*
X215270Y-96375D01*
G01X230150Y-88250D02*
X230150Y-100750D01*
G01X226585Y-88250D02*
X233715Y-88250D01*
G01X240690Y-88250D02*
X244410Y-88250D01*
G01X242550Y-88250D02*
X242550Y-100750D01*
G01X240690Y-100750D02*
X244410Y-100750D01*
G01X254950Y-100750D02*
X253710Y-100542D01*
X252625Y-99709D01*
X251695Y-98458D01*
X251075Y-97000D01*
X250765Y-95333D01*
X250765Y-93667D01*
X251075Y-92000D01*
X251695Y-90542D01*
X252625Y-89292D01*
X253710Y-88458D01*
X254950Y-88250D01*
X256190Y-88458D01*
X257275Y-89292D01*
X258205Y-90542D01*
X258825Y-92000D01*
X259135Y-93667D01*
X259135Y-95333D01*
X258825Y-97000D01*
X258205Y-98458D01*
X257275Y-99709D01*
X256190Y-100542D01*
X254950Y-100750D01*
G01X263785Y-100750D02*
X263785Y-88250D01*
X270915Y-100750D01*
X270915Y-88250D01*
G01X199150Y-313250D02*
X197910Y-313667D01*
X196980Y-314708D01*
X196360Y-315958D01*
X195895Y-317625D01*
X195740Y-319500D01*
X195895Y-321375D01*
X196360Y-323042D01*
X196980Y-324292D01*
X197910Y-325333D01*
X199150Y-325750D01*
X200390Y-325333D01*
X201320Y-324292D01*
X201940Y-323042D01*
X202405Y-321375D01*
X202560Y-319500D01*
X202405Y-317625D01*
X201940Y-315958D01*
X201320Y-314708D01*
X200390Y-313667D01*
X199150Y-313250D01*
G01X211550Y-326167D02*
X211240Y-325958D01*
X211240Y-325542D01*
X211550Y-325333D01*
X211860Y-325542D01*
X211860Y-325958D01*
X211550Y-326167D01*
G01X223950Y-313250D02*
X222710Y-313667D01*
X221780Y-314708D01*
X221160Y-315958D01*
X220695Y-317625D01*
X220540Y-319500D01*
X220695Y-321375D01*
X221160Y-323042D01*
X221780Y-324292D01*
X222710Y-325333D01*
X223950Y-325750D01*
X225190Y-325333D01*
X226120Y-324292D01*
X226740Y-323042D01*
X227205Y-321375D01*
X227360Y-319500D01*
X227205Y-317625D01*
X226740Y-315958D01*
X226120Y-314708D01*
X225190Y-313667D01*
X223950Y-313250D01*
G01X236350Y-313250D02*
X235110Y-313667D01*
X234180Y-314708D01*
X233560Y-315958D01*
X233095Y-317625D01*
X232940Y-319500D01*
X233095Y-321375D01*
X233560Y-323042D01*
X234180Y-324292D01*
X235110Y-325333D01*
X236350Y-325750D01*
X237590Y-325333D01*
X238520Y-324292D01*
X239140Y-323042D01*
X239605Y-321375D01*
X239760Y-319500D01*
X239605Y-317625D01*
X239140Y-315958D01*
X238520Y-314708D01*
X237590Y-313667D01*
X236350Y-313250D01*
G01X248750Y-313250D02*
X247510Y-313667D01*
X246580Y-314708D01*
X245960Y-315958D01*
X245495Y-317625D01*
X245340Y-319500D01*
X245495Y-321375D01*
X245960Y-323042D01*
X246580Y-324292D01*
X247510Y-325333D01*
X248750Y-325750D01*
X249990Y-325333D01*
X250920Y-324292D01*
X251540Y-323042D01*
X252005Y-321375D01*
X252160Y-319500D01*
X252005Y-317625D01*
X251540Y-315958D01*
X250920Y-314708D01*
X249990Y-313667D01*
X248750Y-313250D01*
G01X199150Y-288250D02*
X197910Y-288667D01*
X196980Y-289708D01*
X196360Y-290958D01*
X195895Y-292625D01*
X195740Y-294500D01*
X195895Y-296375D01*
X196360Y-298042D01*
X196980Y-299292D01*
X197910Y-300333D01*
X199150Y-300750D01*
X200390Y-300333D01*
X201320Y-299292D01*
X201940Y-298042D01*
X202405Y-296375D01*
X202560Y-294500D01*
X202405Y-292625D01*
X201940Y-290958D01*
X201320Y-289708D01*
X200390Y-288667D01*
X199150Y-288250D01*
G01X211550Y-301167D02*
X211240Y-300958D01*
X211240Y-300542D01*
X211550Y-300333D01*
X211860Y-300542D01*
X211860Y-300958D01*
X211550Y-301167D01*
G01X223950Y-288250D02*
X222710Y-288667D01*
X221780Y-289708D01*
X221160Y-290958D01*
X220695Y-292625D01*
X220540Y-294500D01*
X220695Y-296375D01*
X221160Y-298042D01*
X221780Y-299292D01*
X222710Y-300333D01*
X223950Y-300750D01*
X225190Y-300333D01*
X226120Y-299292D01*
X226740Y-298042D01*
X227205Y-296375D01*
X227360Y-294500D01*
X227205Y-292625D01*
X226740Y-290958D01*
X226120Y-289708D01*
X225190Y-288667D01*
X223950Y-288250D01*
G01X236350Y-288250D02*
X235110Y-288667D01*
X234180Y-289708D01*
X233560Y-290958D01*
X233095Y-292625D01*
X232940Y-294500D01*
X233095Y-296375D01*
X233560Y-298042D01*
X234180Y-299292D01*
X235110Y-300333D01*
X236350Y-300750D01*
X237590Y-300333D01*
X238520Y-299292D01*
X239140Y-298042D01*
X239605Y-296375D01*
X239760Y-294500D01*
X239605Y-292625D01*
X239140Y-290958D01*
X238520Y-289708D01*
X237590Y-288667D01*
X236350Y-288250D01*
G01X248750Y-288250D02*
X247510Y-288667D01*
X246580Y-289708D01*
X245960Y-290958D01*
X245495Y-292625D01*
X245340Y-294500D01*
X245495Y-296375D01*
X245960Y-298042D01*
X246580Y-299292D01*
X247510Y-300333D01*
X248750Y-300750D01*
X249990Y-300333D01*
X250920Y-299292D01*
X251540Y-298042D01*
X252005Y-296375D01*
X252160Y-294500D01*
X252005Y-292625D01*
X251540Y-290958D01*
X250920Y-289708D01*
X249990Y-288667D01*
X248750Y-288250D01*
G01X221935Y-246583D02*
X225965Y-246583D01*
G01X221935Y-221583D02*
X225965Y-221583D01*
G01X221935Y-196583D02*
X225965Y-196583D01*
G01X221935Y-171583D02*
X225965Y-171583D01*
G01X221935Y-146583D02*
X225965Y-146583D01*
G01X221935Y-121583D02*
X225965Y-121583D01*
G01X230293Y3550D02*
X217301Y3550D01*
G01X287500Y-82000D02*
X287500Y-332000D01*
G01X291685Y-250750D02*
X291685Y-238250D01*
X298815Y-250750D01*
X298815Y-238250D01*
G01X307650Y-250750D02*
X306410Y-250542D01*
X305325Y-249709D01*
X304395Y-248458D01*
X303775Y-247000D01*
X303465Y-245333D01*
X303465Y-243667D01*
X303775Y-242000D01*
X304395Y-240542D01*
X305325Y-239292D01*
X306410Y-238458D01*
X307650Y-238250D01*
X308890Y-238458D01*
X309975Y-239292D01*
X310905Y-240542D01*
X311525Y-242000D01*
X311835Y-243667D01*
X311835Y-245333D01*
X311525Y-247000D01*
X310905Y-248458D01*
X309975Y-249709D01*
X308890Y-250542D01*
X307650Y-250750D01*
G01X316485Y-250750D02*
X316485Y-238250D01*
X323615Y-250750D01*
X323615Y-238250D01*
G01X330435Y-246583D02*
X334465Y-246583D01*
G01X341750Y-250750D02*
X341750Y-238250D01*
X345470Y-238250D01*
X346710Y-238875D01*
X347640Y-240333D01*
X347950Y-242000D01*
X347640Y-243667D01*
X346865Y-244917D01*
X345470Y-245542D01*
X341750Y-245542D01*
G01X354150Y-238250D02*
X354150Y-250750D01*
X360350Y-250750D01*
G01X365775Y-250750D02*
X369650Y-238250D01*
X373525Y-250750D01*
G01X372130Y-246375D02*
X367170Y-246375D01*
G01X382050Y-238250D02*
X382050Y-250750D01*
G01X378485Y-238250D02*
X385615Y-238250D01*
G01X397550Y-250750D02*
X391350Y-250750D01*
X391350Y-238250D01*
X397550Y-238250D01*
G01X395070Y-244292D02*
X391350Y-244292D01*
G01X403440Y-250750D02*
X403440Y-238250D01*
X406540Y-238250D01*
X407780Y-238875D01*
X408710Y-239708D01*
X409485Y-240958D01*
X410105Y-242417D01*
X410260Y-244500D01*
X410105Y-246583D01*
X409485Y-248042D01*
X408710Y-249292D01*
X407780Y-250125D01*
X406540Y-250750D01*
X403440Y-250750D01*
G01X291685Y-225750D02*
X291685Y-213250D01*
X298815Y-225750D01*
X298815Y-213250D01*
G01X307650Y-225750D02*
X306410Y-225542D01*
X305325Y-224709D01*
X304395Y-223458D01*
X303775Y-222000D01*
X303465Y-220333D01*
X303465Y-218667D01*
X303775Y-217000D01*
X304395Y-215542D01*
X305325Y-214292D01*
X306410Y-213458D01*
X307650Y-213250D01*
X308890Y-213458D01*
X309975Y-214292D01*
X310905Y-215542D01*
X311525Y-217000D01*
X311835Y-218667D01*
X311835Y-220333D01*
X311525Y-222000D01*
X310905Y-223458D01*
X309975Y-224709D01*
X308890Y-225542D01*
X307650Y-225750D01*
G01X316485Y-225750D02*
X316485Y-213250D01*
X323615Y-225750D01*
X323615Y-213250D01*
G01X330435Y-221583D02*
X334465Y-221583D01*
G01X341750Y-225750D02*
X341750Y-213250D01*
X345470Y-213250D01*
X346710Y-213875D01*
X347640Y-215333D01*
X347950Y-217000D01*
X347640Y-218667D01*
X346865Y-219917D01*
X345470Y-220542D01*
X341750Y-220542D01*
G01X354150Y-213250D02*
X354150Y-225750D01*
X360350Y-225750D01*
G01X365775Y-225750D02*
X369650Y-213250D01*
X373525Y-225750D01*
G01X372130Y-221375D02*
X367170Y-221375D01*
G01X382050Y-213250D02*
X382050Y-225750D01*
G01X378485Y-213250D02*
X385615Y-213250D01*
G01X397550Y-225750D02*
X391350Y-225750D01*
X391350Y-213250D01*
X397550Y-213250D01*
G01X395070Y-219292D02*
X391350Y-219292D01*
G01X403440Y-225750D02*
X403440Y-213250D01*
X406540Y-213250D01*
X407780Y-213875D01*
X408710Y-214708D01*
X409485Y-215958D01*
X410105Y-217417D01*
X410260Y-219500D01*
X410105Y-221583D01*
X409485Y-223042D01*
X408710Y-224292D01*
X407780Y-225125D01*
X406540Y-225750D01*
X403440Y-225750D01*
G01X316950Y-325750D02*
X316950Y-313250D01*
X320670Y-313250D01*
X321910Y-313875D01*
X322840Y-315333D01*
X323150Y-317000D01*
X322840Y-318667D01*
X322065Y-319917D01*
X320670Y-320542D01*
X316950Y-320542D01*
G01X329350Y-313250D02*
X329350Y-325750D01*
X335550Y-325750D01*
G01X340975Y-325750D02*
X344850Y-313250D01*
X348725Y-325750D01*
G01X347330Y-321375D02*
X342370Y-321375D01*
G01X357250Y-313250D02*
X357250Y-325750D01*
G01X353685Y-313250D02*
X360815Y-313250D01*
G01X372750Y-325750D02*
X366550Y-325750D01*
X366550Y-313250D01*
X372750Y-313250D01*
G01X370270Y-319292D02*
X366550Y-319292D01*
G01X378640Y-325750D02*
X378640Y-313250D01*
X381740Y-313250D01*
X382980Y-313875D01*
X383910Y-314708D01*
X384685Y-315958D01*
X385305Y-317417D01*
X385460Y-319500D01*
X385305Y-321583D01*
X384685Y-323042D01*
X383910Y-324292D01*
X382980Y-325125D01*
X381740Y-325750D01*
X378640Y-325750D01*
G01X316950Y-300750D02*
X316950Y-288250D01*
X320670Y-288250D01*
X321910Y-288875D01*
X322840Y-290333D01*
X323150Y-292000D01*
X322840Y-293667D01*
X322065Y-294917D01*
X320670Y-295542D01*
X316950Y-295542D01*
G01X329350Y-288250D02*
X329350Y-300750D01*
X335550Y-300750D01*
G01X340975Y-300750D02*
X344850Y-288250D01*
X348725Y-300750D01*
G01X347330Y-296375D02*
X342370Y-296375D01*
G01X357250Y-288250D02*
X357250Y-300750D01*
G01X353685Y-288250D02*
X360815Y-288250D01*
G01X372750Y-300750D02*
X366550Y-300750D01*
X366550Y-288250D01*
X372750Y-288250D01*
G01X370270Y-294292D02*
X366550Y-294292D01*
G01X378640Y-300750D02*
X378640Y-288250D01*
X381740Y-288250D01*
X382980Y-288875D01*
X383910Y-289708D01*
X384685Y-290958D01*
X385305Y-292417D01*
X385460Y-294500D01*
X385305Y-296583D01*
X384685Y-298042D01*
X383910Y-299292D01*
X382980Y-300125D01*
X381740Y-300750D01*
X378640Y-300750D01*
G01X316950Y-275750D02*
X316950Y-263250D01*
X320670Y-263250D01*
X321910Y-263875D01*
X322840Y-265333D01*
X323150Y-267000D01*
X322840Y-268667D01*
X322065Y-269917D01*
X320670Y-270542D01*
X316950Y-270542D01*
G01X329350Y-263250D02*
X329350Y-275750D01*
X335550Y-275750D01*
G01X340975Y-275750D02*
X344850Y-263250D01*
X348725Y-275750D01*
G01X347330Y-271375D02*
X342370Y-271375D01*
G01X357250Y-263250D02*
X357250Y-275750D01*
G01X353685Y-263250D02*
X360815Y-263250D01*
G01X372750Y-275750D02*
X366550Y-275750D01*
X366550Y-263250D01*
X372750Y-263250D01*
G01X370270Y-269292D02*
X366550Y-269292D01*
G01X378640Y-275750D02*
X378640Y-263250D01*
X381740Y-263250D01*
X382980Y-263875D01*
X383910Y-264708D01*
X384685Y-265958D01*
X385305Y-267417D01*
X385460Y-269500D01*
X385305Y-271583D01*
X384685Y-273042D01*
X383910Y-274292D01*
X382980Y-275125D01*
X381740Y-275750D01*
X378640Y-275750D01*
G01X316950Y-200750D02*
X316950Y-188250D01*
X320670Y-188250D01*
X321910Y-188875D01*
X322840Y-190333D01*
X323150Y-192000D01*
X322840Y-193667D01*
X322065Y-194917D01*
X320670Y-195542D01*
X316950Y-195542D01*
G01X329350Y-188250D02*
X329350Y-200750D01*
X335550Y-200750D01*
G01X340975Y-200750D02*
X344850Y-188250D01*
X348725Y-200750D01*
G01X347330Y-196375D02*
X342370Y-196375D01*
G01X357250Y-188250D02*
X357250Y-200750D01*
G01X353685Y-188250D02*
X360815Y-188250D01*
G01X372750Y-200750D02*
X366550Y-200750D01*
X366550Y-188250D01*
X372750Y-188250D01*
G01X370270Y-194292D02*
X366550Y-194292D01*
G01X378640Y-200750D02*
X378640Y-188250D01*
X381740Y-188250D01*
X382980Y-188875D01*
X383910Y-189708D01*
X384685Y-190958D01*
X385305Y-192417D01*
X385460Y-194500D01*
X385305Y-196583D01*
X384685Y-198042D01*
X383910Y-199292D01*
X382980Y-200125D01*
X381740Y-200750D01*
X378640Y-200750D01*
G01X316950Y-175750D02*
X316950Y-163250D01*
X320670Y-163250D01*
X321910Y-163875D01*
X322840Y-165333D01*
X323150Y-167000D01*
X322840Y-168667D01*
X322065Y-169917D01*
X320670Y-170542D01*
X316950Y-170542D01*
G01X329350Y-163250D02*
X329350Y-175750D01*
X335550Y-175750D01*
G01X340975Y-175750D02*
X344850Y-163250D01*
X348725Y-175750D01*
G01X347330Y-171375D02*
X342370Y-171375D01*
G01X357250Y-163250D02*
X357250Y-175750D01*
G01X353685Y-163250D02*
X360815Y-163250D01*
G01X372750Y-175750D02*
X366550Y-175750D01*
X366550Y-163250D01*
X372750Y-163250D01*
G01X370270Y-169292D02*
X366550Y-169292D01*
G01X378640Y-175750D02*
X378640Y-163250D01*
X381740Y-163250D01*
X382980Y-163875D01*
X383910Y-164708D01*
X384685Y-165958D01*
X385305Y-167417D01*
X385460Y-169500D01*
X385305Y-171583D01*
X384685Y-173042D01*
X383910Y-174292D01*
X382980Y-175125D01*
X381740Y-175750D01*
X378640Y-175750D01*
G01X316950Y-150750D02*
X316950Y-138250D01*
X320670Y-138250D01*
X321910Y-138875D01*
X322840Y-140333D01*
X323150Y-142000D01*
X322840Y-143667D01*
X322065Y-144917D01*
X320670Y-145542D01*
X316950Y-145542D01*
G01X329350Y-138250D02*
X329350Y-150750D01*
X335550Y-150750D01*
G01X340975Y-150750D02*
X344850Y-138250D01*
X348725Y-150750D01*
G01X347330Y-146375D02*
X342370Y-146375D01*
G01X357250Y-138250D02*
X357250Y-150750D01*
G01X353685Y-138250D02*
X360815Y-138250D01*
G01X372750Y-150750D02*
X366550Y-150750D01*
X366550Y-138250D01*
X372750Y-138250D01*
G01X370270Y-144292D02*
X366550Y-144292D01*
G01X378640Y-150750D02*
X378640Y-138250D01*
X381740Y-138250D01*
X382980Y-138875D01*
X383910Y-139708D01*
X384685Y-140958D01*
X385305Y-142417D01*
X385460Y-144500D01*
X385305Y-146583D01*
X384685Y-148042D01*
X383910Y-149292D01*
X382980Y-150125D01*
X381740Y-150750D01*
X378640Y-150750D01*
G01X316950Y-125750D02*
X316950Y-113250D01*
X320670Y-113250D01*
X321910Y-113875D01*
X322840Y-115333D01*
X323150Y-117000D01*
X322840Y-118667D01*
X322065Y-119917D01*
X320670Y-120542D01*
X316950Y-120542D01*
G01X329350Y-113250D02*
X329350Y-125750D01*
X335550Y-125750D01*
G01X340975Y-125750D02*
X344850Y-113250D01*
X348725Y-125750D01*
G01X347330Y-121375D02*
X342370Y-121375D01*
G01X357250Y-113250D02*
X357250Y-125750D01*
G01X353685Y-113250D02*
X360815Y-113250D01*
G01X372750Y-125750D02*
X366550Y-125750D01*
X366550Y-113250D01*
X372750Y-113250D01*
G01X370270Y-119292D02*
X366550Y-119292D01*
G01X378640Y-125750D02*
X378640Y-113250D01*
X381740Y-113250D01*
X382980Y-113875D01*
X383910Y-114708D01*
X384685Y-115958D01*
X385305Y-117417D01*
X385460Y-119500D01*
X385305Y-121583D01*
X384685Y-123042D01*
X383910Y-124292D01*
X382980Y-125125D01*
X381740Y-125750D01*
X378640Y-125750D01*
G01X316950Y-100750D02*
X316950Y-88250D01*
X320670Y-88250D01*
X321910Y-88875D01*
X322840Y-90333D01*
X323150Y-92000D01*
X322840Y-93667D01*
X322065Y-94917D01*
X320670Y-95542D01*
X316950Y-95542D01*
G01X329350Y-88250D02*
X329350Y-100750D01*
X335550Y-100750D01*
G01X340975Y-100750D02*
X344850Y-88250D01*
X348725Y-100750D01*
G01X347330Y-96375D02*
X342370Y-96375D01*
G01X357250Y-88250D02*
X357250Y-100750D01*
G01X353685Y-88250D02*
X360815Y-88250D01*
G01X372750Y-100750D02*
X366550Y-100750D01*
X366550Y-88250D01*
X372750Y-88250D01*
G01X370270Y-94292D02*
X366550Y-94292D01*
G01X378640Y-100750D02*
X378640Y-88250D01*
X381740Y-88250D01*
X382980Y-88875D01*
X383910Y-89708D01*
X384685Y-90958D01*
X385305Y-92417D01*
X385460Y-94500D01*
X385305Y-96583D01*
X384685Y-98042D01*
X383910Y-99292D01*
X382980Y-100125D01*
X381740Y-100750D01*
X378640Y-100750D01*
G01X414600Y-82000D02*
X414600Y-332000D01*
G01X434750Y-125750D02*
X434750Y-113250D01*
X432890Y-115750D01*
G01X432890Y-125750D02*
X436610Y-125750D01*
G01X447150Y-125750D02*
X447150Y-113250D01*
X445290Y-115750D01*
G01X445290Y-125750D02*
X449010Y-125750D01*
G01X459550Y-125750D02*
X459550Y-113250D01*
X457690Y-115750D01*
G01X457690Y-125750D02*
X461410Y-125750D01*
G01X469005Y-115333D02*
X469935Y-114084D01*
X471020Y-113458D01*
X472260Y-113250D01*
X473810Y-113667D01*
X474895Y-114708D01*
X475205Y-115958D01*
X475050Y-117209D01*
X474430Y-118250D01*
X471330Y-120333D01*
X469935Y-121792D01*
X469005Y-123875D01*
X468695Y-125750D01*
X475205Y-125750D01*
G01X444205Y-145542D02*
X445290Y-144083D01*
X446220Y-143250D01*
X447460Y-142833D01*
X448545Y-143250D01*
X449320Y-144083D01*
X449940Y-145333D01*
X450095Y-146792D01*
X449940Y-148042D01*
X449320Y-149292D01*
X448390Y-150333D01*
X447305Y-150750D01*
X446065Y-150333D01*
X444980Y-149084D01*
X444360Y-147208D01*
X444205Y-145125D01*
X444515Y-142417D01*
X444980Y-140958D01*
X445755Y-139500D01*
X446840Y-138458D01*
X447925Y-138250D01*
X449010Y-138667D01*
X449785Y-139708D01*
G01X456140Y-148875D02*
X457070Y-149917D01*
X458155Y-150542D01*
X459550Y-150750D01*
X460945Y-150333D01*
X462030Y-149500D01*
X462805Y-148042D01*
X462960Y-146375D01*
X462650Y-144708D01*
X461875Y-143667D01*
X460790Y-142833D01*
X459705Y-142625D01*
X458620Y-142833D01*
X457225Y-143667D01*
X457690Y-138250D01*
X461875Y-138250D01*
G01X440950Y-100750D02*
X439710Y-100542D01*
X438625Y-99709D01*
X437695Y-98458D01*
X437075Y-97000D01*
X436765Y-95333D01*
X436765Y-93667D01*
X437075Y-92000D01*
X437695Y-90542D01*
X438625Y-89292D01*
X439710Y-88458D01*
X440950Y-88250D01*
X442190Y-88458D01*
X443275Y-89292D01*
X444205Y-90542D01*
X444825Y-92000D01*
X445135Y-93667D01*
X445135Y-95333D01*
X444825Y-97000D01*
X444205Y-98458D01*
X443275Y-99709D01*
X442190Y-100542D01*
X440950Y-100750D01*
G01X442190Y-97417D02*
X444050Y-100750D01*
G01X453350Y-88250D02*
X453350Y-100750D01*
G01X449785Y-88250D02*
X456915Y-88250D01*
G01X465750Y-100750D02*
X465750Y-95125D01*
X462650Y-88250D01*
G01X468850Y-88250D02*
X465750Y-95125D01*
G01X450405Y-315333D02*
X451335Y-314084D01*
X452420Y-313458D01*
X453660Y-313250D01*
X455210Y-313667D01*
X456295Y-314708D01*
X456605Y-315958D01*
X456450Y-317209D01*
X455830Y-318250D01*
X452730Y-320333D01*
X451335Y-321792D01*
X450405Y-323875D01*
X450095Y-325750D01*
X456605Y-325750D01*
G01X450405Y-290333D02*
X451335Y-289084D01*
X452420Y-288458D01*
X453660Y-288250D01*
X455210Y-288667D01*
X456295Y-289708D01*
X456605Y-290958D01*
X456450Y-292209D01*
X455830Y-293250D01*
X452730Y-295333D01*
X451335Y-296792D01*
X450405Y-298875D01*
X450095Y-300750D01*
X456605Y-300750D01*
G01X450405Y-270542D02*
X451490Y-269083D01*
X452420Y-268250D01*
X453660Y-267833D01*
X454745Y-268250D01*
X455520Y-269083D01*
X456140Y-270333D01*
X456295Y-271792D01*
X456140Y-273042D01*
X455520Y-274292D01*
X454590Y-275333D01*
X453505Y-275750D01*
X452265Y-275333D01*
X451180Y-274084D01*
X450560Y-272208D01*
X450405Y-270125D01*
X450715Y-267417D01*
X451180Y-265958D01*
X451955Y-264500D01*
X453040Y-263458D01*
X454125Y-263250D01*
X455210Y-263667D01*
X455985Y-264708D01*
G01X453350Y-250750D02*
X453350Y-238250D01*
X451490Y-240750D01*
G01X451490Y-250750D02*
X455210Y-250750D01*
G01X455210Y-225750D02*
X455210Y-213250D01*
X449475Y-222208D01*
X457225Y-222208D01*
G01X455210Y-200750D02*
X455210Y-188250D01*
X449475Y-197208D01*
X457225Y-197208D01*
G01X453350Y-175750D02*
X454435Y-175542D01*
X455675Y-174917D01*
X456450Y-173875D01*
X456760Y-172417D01*
X456450Y-170959D01*
X455520Y-169708D01*
X454125Y-169083D01*
X452575Y-169083D01*
X451645Y-168667D01*
X450870Y-167625D01*
X450560Y-166167D01*
X451025Y-164708D01*
X452110Y-163667D01*
X453350Y-163250D01*
X454590Y-163667D01*
X455675Y-164708D01*
X456140Y-166167D01*
X455830Y-167625D01*
X455055Y-168667D01*
X454125Y-169083D01*
X452575Y-169083D01*
X451180Y-169708D01*
X450250Y-170959D01*
X449940Y-172417D01*
X450250Y-173875D01*
X451025Y-174917D01*
X452265Y-175542D01*
X453350Y-175750D01*
M02*
