G04 ================== begin FILE IDENTIFICATION RECORD ==================*
G04 Layout Name:  F:/PCB_PROJECT/D1/PCB/D1.brd*
G04 Film Name:    L2*
G04 File Format:  Gerber RS274X*
G04 File Origin:  Cadence Allegro 17.2-S079*
G04 Origin Date:  Sun Feb 13 14:17:02 2022*
G04 *
G04 Layer:  BOARD GEOMETRY/OUTLINE*
G04 Layer:  ETCH/L2*
G04 Layer:  PIN/L2*
G04 Layer:  VIA CLASS/L2*
G04 *
G04 Offset:    (0.00 0.00)*
G04 Mirror:    No*
G04 Mode:      Positive*
G04 Rotation:  0*
G04 FullContactRelief:  No*
G04 UndefLineWidth:     1.00*
G04 ================== end FILE IDENTIFICATION RECORD ====================*
%FSLAX25Y25*MOIN*%
%IR0*IPPOS*OFA0.00000B0.00000*MIA0B0*SFA1.00000B1.00000*%
%ADD15C,.06*%
%ADD18C,.05512*%
%ADD16R,.06X.06*%
%ADD13O,.1378X.05118*%
%ADD11C,.01772*%
%ADD14C,.02559*%
%ADD19C,.11024*%
%ADD10C,.20866*%
%ADD12O,.09843X.05118*%
%ADD17O,.03937X.09055*%
%ADD20C,.01*%
%ADD21C,.001*%
%ADD25C,.07004*%
%ADD26C,.08004*%
%ADD24C,.0219*%
%ADD28C,.04162*%
%ADD22O,.0594X.11058*%
%ADD23C,.07486*%
%ADD27C,.12028*%
G75*
%LPD*%
G75*
G36*
G01X266861Y217971D02*
X322835Y217971D01*
G02X332145Y208661I0J-9310D01*
G01X332145Y11811D01*
G02X322835Y2501I-9310J0D01*
G01X266861Y2501D01*
G02X266648Y3129I0J350D01*
G03X270935Y11811I-6648J8682D01*
G03X249065Y11811I-10935J0D01*
G03X253352Y3129I10935J0D01*
G02X253139Y2501I-213J-278D01*
G01X234669Y2501D01*
X234637Y2635D01*
G03X233938Y4168I-4344J-1055D01*
G02X234245Y4720I286J203D01*
G03X234427Y4714I189J2964D01*
G03X237397Y7684I0J2970D01*
G01X237397Y12802D01*
G03X235912Y15374I-2970J0D01*
G02X235829Y15914I175J303D01*
G03X236609Y17920I-2190J2006D01*
G01X236609Y23038D01*
G03X230669Y23038I-2970J0D01*
G01X230669Y17920D01*
G03X232154Y15348I2970J0D01*
G02X232237Y14808I-175J-303D01*
G03X231457Y12802I2190J-2006D01*
G01X231457Y7684D01*
G03X231741Y6416I2970J-1D01*
G02X231343Y5926I-316J-150D01*
G03X230293Y6051I-1050J-4345D01*
G01X217646Y6051D01*
G02X217335Y6560I0J350D01*
G03X217605Y7684I-2200J1123D01*
G01X217605Y12802D01*
G03X212665Y12802I-2470J0D01*
G01X212665Y7684D01*
G03X214146Y5420I2471J0D01*
G02X214246Y4844I-140J-321D01*
G03X212956Y2635I3054J-3264D01*
G01X212924Y2501D01*
X18672Y2501D01*
G02X18459Y3129I0J350D01*
G03X22746Y11811I-6648J8682D01*
G03X11811Y22746I-10935J0D01*
G03X3129Y18459I0J-10935D01*
G02X2501Y18672I-278J213D01*
G01X2501Y35588D01*
G02X3144Y35780I350J0D01*
G03X5704Y34396I2560J1676D01*
G01X10428Y34396D01*
G03X10428Y40518I0J3061D01*
G01X5704Y40518D01*
G03X3144Y39134I0J-3060D01*
G02X2501Y39326I-293J192D01*
G01X2501Y92674D01*
G02X3144Y92866I350J0D01*
G03X5704Y91482I2560J1676D01*
G01X10428Y91482D01*
G03X10428Y97604I0J3061D01*
G01X5704Y97604D01*
G03X3144Y96220I0J-3060D01*
G02X2501Y96412I-293J192D01*
G01X2501Y164998D01*
X3998Y164998D01*
X3998Y154999D01*
X5999Y152998D01*
X32001Y152998D01*
X33002Y153999D01*
X33002Y158001D01*
X32001Y159002D01*
X11001Y159002D01*
X10002Y160001D01*
X10002Y164998D01*
X16002Y164998D01*
X16002Y195002D01*
X2501Y195002D01*
X2501Y201800D01*
G02X3129Y202013I350J0D01*
G03X11811Y197726I8682J6648D01*
G03X22746Y208661I0J10935D01*
G03X18459Y217343I-10935J0D01*
G02X18672Y217971I213J278D01*
G01X253139Y217971D01*
G02X253352Y217343I0J-350D01*
G03X249065Y208661I6648J-8682D01*
G03X270935Y208661I10935J0D01*
G03X266648Y217343I-10935J0D01*
G02X266861Y217971I213J278D01*
G37*
%LPC*%
G75*
G36*
G01X110998Y190000D02*
X110998Y196000D01*
G02X112000Y197002I1002J0D01*
G01X118000Y197002D01*
G02X119002Y196000I0J-1002D01*
G01X119002Y190000D01*
G02X118000Y188998I-1002J0D01*
G01X112000Y188998D01*
G02X110998Y190000I0J1002D01*
G37*
G36*
G01X220998Y200000D02*
X220998Y206000D01*
G02X222000Y207002I1002J0D01*
G01X228000Y207002D01*
G02X229002Y206000I0J-1002D01*
G01X229002Y200000D01*
G02X228000Y198998I-1002J0D01*
G01X222000Y198998D01*
G02X220998Y200000I0J1002D01*
G37*
G36*
G01X70998Y190000D02*
X70998Y196000D01*
G02X72000Y197002I1002J0D01*
G01X78000Y197002D01*
G02X79002Y196000I0J-1002D01*
G01X79002Y190000D01*
G02X78000Y188998I-1002J0D01*
G01X72000Y188998D01*
G02X70998Y190000I0J1002D01*
G37*
G36*
G01X27278Y97604D02*
X35940Y97604D01*
G02X35940Y91482I0J-3061D01*
G01X27278Y91482D01*
G02X27278Y97604I0J3061D01*
G37*
G36*
G01X27278Y40518D02*
X35940Y40518D01*
G02X35940Y34396I0J-3061D01*
G01X27278Y34396D01*
G02X27278Y40518I0J3061D01*
G37*
G36*
G01X213805Y41712D02*
G02X213740Y42329I2905J618D01*
G01X213740Y47447D01*
G02X219680Y47447I2970J0D01*
G01X219680Y42329D01*
G02X216710Y39359I-2970J0D01*
G02X216093Y39424I1J2970D01*
G03X215678Y39009I-72J-343D01*
G02X215743Y38392I-2905J-618D01*
G01X215743Y33274D01*
G02X209803Y33274I-2970J0D01*
G01X209803Y38392D01*
G02X212773Y41362I2970J0D01*
G02X213390Y41297I-1J-2970D01*
G03X213805Y41712I72J343D01*
G37*
G36*
G01X288295Y54683D02*
G03X288295Y55317I-150J317D01*
G02X285998Y58937I1704J3620D01*
G02X294002Y58937I4002J0D01*
G02X291705Y55317I-4001J0D01*
G03X291705Y54683I150J-317D01*
G02X294002Y51063I-1704J-3620D01*
G02X285998Y51063I-4002J0D01*
G02X288295Y54683I4001J0D01*
G37*
G36*
G01X298610Y54683D02*
G03X298610Y55317I-150J317D01*
G02X296313Y58937I1704J3620D01*
G02X304317Y58937I4002J0D01*
G02X302020Y55317I-4001J0D01*
G03X302020Y54683I150J-317D01*
G02X304317Y51063I-1704J-3620D01*
G02X296313Y51063I-4002J0D01*
G02X298610Y54683I4001J0D01*
G37*
G36*
G01X288295Y119683D02*
G03X288295Y120317I-150J317D01*
G02X285998Y123937I1704J3620D01*
G02X294002Y123937I4002J0D01*
G02X291705Y120317I-4001J0D01*
G03X291705Y119683I150J-317D01*
G02X294002Y116063I-1704J-3620D01*
G02X285998Y116063I-4002J0D01*
G02X288295Y119683I4001J0D01*
G37*
G36*
G01X298610Y119683D02*
G03X298610Y120317I-150J317D01*
G02X296313Y123937I1704J3620D01*
G02X304317Y123937I4002J0D01*
G02X302020Y120317I-4001J0D01*
G03X302020Y119683I150J-317D01*
G02X304317Y116063I-1704J-3620D01*
G02X296313Y116063I-4002J0D01*
G02X298610Y119683I4001J0D01*
G37*
G36*
G01X183165Y141050D02*
G03X183508Y141392I-7J350D01*
G02X184603Y142465I1095J-22D01*
G02X185698Y141370I0J-1095D01*
G02X184625Y140275I-1095J0D01*
G03X184282Y139933I7J-350D01*
G02X183187Y138860I-1095J22D01*
G02X182092Y139955I0J1095D01*
G02X183165Y141050I1095J0D01*
G37*
G36*
G01X92705Y149472D02*
G03X92318Y149811I-350J-9D01*
G02X92200Y149805I-115J1089D01*
G02X92200Y151995I0J1095D01*
G02X93295Y150928I0J-1095D01*
G03X93682Y150589I350J9D01*
G02X93800Y150595I115J-1089D01*
G02X93800Y148405I0J-1095D01*
G02X92705Y149472I0J1095D01*
G37*
G36*
G01X107676Y189535D02*
G03X107185Y189647I-300J-181D01*
G02X105000Y188998I-2185J3354D01*
G02X109002Y193000I0J4002D01*
G02X108746Y191593I-4002J1D01*
G03X108963Y191138I328J-123D01*
G02X109709Y190100I-349J-1038D01*
G02X108614Y189005I-1095J0D01*
G02X107676Y189535I0J1095D01*
G37*
G36*
G01X142416Y18915D02*
G02X142415Y18968I1094J47D01*
G02X143510Y17873I1095J0D01*
G02X143232Y17909I0J1095D01*
G03X142794Y17553I-89J-339D01*
G02X142795Y17500I-1094J-47D01*
G02X141700Y18595I-1095J0D01*
G02X141978Y18559I0J-1095D01*
G03X142416Y18915I89J339D01*
G37*
G36*
G01X55909Y39883D02*
G02X55363Y40830I548J947D01*
G02X56458Y41925I1095J0D01*
G02X57405Y41379I0J-1094D01*
G03X58011Y41379I303J176D01*
G02X58958Y41925I947J-548D01*
G02X60053Y40830I0J-1095D01*
G02X59507Y39883I-1094J0D01*
G03X59507Y39277I176J-303D01*
G02X59507Y37383I-548J-947D01*
G03X59507Y36777I176J-303D01*
G02X60053Y35830I-548J-947D01*
G02X58958Y34735I-1095J0D01*
G02X58011Y35281I0J1094D01*
G03X57405Y35281I-303J-176D01*
G02X56458Y34735I-947J548D01*
G02X55363Y35830I0J1095D01*
G02X55909Y36777I1094J0D01*
G03X55909Y37383I-176J303D01*
G02X55909Y39277I548J947D01*
G03X55909Y39883I-176J303D01*
G37*
G36*
G01X60209Y49083D02*
G02X59663Y50030I548J947D01*
G02X60758Y51125I1095J0D01*
G02X61705Y50579I0J-1094D01*
G03X62311Y50579I303J176D01*
G02X63258Y51125I947J-548D01*
G02X64353Y50030I0J-1095D01*
G02X63807Y49083I-1094J0D01*
G03X63807Y48477I176J-303D01*
G02X64353Y47530I-548J-947D01*
G02X63258Y46435I-1095J0D01*
G02X62311Y46981I0J1094D01*
G03X61705Y46981I-303J-176D01*
G02X60758Y46435I-947J548D01*
G02X59663Y47530I0J1095D01*
G02X60209Y48477I1094J0D01*
G03X60209Y49083I-176J303D01*
G37*
G36*
G01X122109Y49483D02*
G02X121563Y50430I548J947D01*
G02X122658Y51525I1095J0D01*
G02X123605Y50979I0J-1094D01*
G03X124211Y50979I303J176D01*
G02X125158Y51525I947J-548D01*
G02X126253Y50430I0J-1095D01*
G02X125707Y49483I-1094J0D01*
G03X125707Y48877I176J-303D01*
G02X126253Y47930I-548J-947D01*
G02X125158Y46835I-1095J0D01*
G02X124211Y47381I0J1094D01*
G03X123605Y47381I-303J-176D01*
G02X122658Y46835I-947J548D01*
G02X121563Y47930I0J1095D01*
G02X122109Y48877I1094J0D01*
G03X122109Y49483I-176J303D01*
G37*
G36*
G01X80209Y49583D02*
G02X79663Y50530I548J947D01*
G02X80758Y51625I1095J0D01*
G02X81705Y51079I0J-1094D01*
G03X82311Y51079I303J176D01*
G02X83258Y51625I947J-548D01*
G02X84353Y50530I0J-1095D01*
G02X83807Y49583I-1094J0D01*
G03X83807Y48977I176J-303D01*
G02X84353Y48030I-548J-947D01*
G02X83258Y46935I-1095J0D01*
G02X82311Y47481I0J1094D01*
G03X81705Y47481I-303J-176D01*
G02X80758Y46935I-947J548D01*
G02X79663Y48030I0J1095D01*
G02X80209Y48977I1094J0D01*
G03X80209Y49583I-176J303D01*
G37*
G36*
G01X101609Y49683D02*
G02X101063Y50630I548J947D01*
G02X102158Y51725I1095J0D01*
G02X103105Y51179I0J-1094D01*
G03X103711Y51179I303J176D01*
G02X104658Y51725I947J-548D01*
G02X105753Y50630I0J-1095D01*
G02X105207Y49683I-1094J0D01*
G03X105207Y49077I176J-303D01*
G02X105753Y48130I-548J-947D01*
G02X104658Y47035I-1095J0D01*
G02X103711Y47581I0J1094D01*
G03X103105Y47581I-303J-176D01*
G02X102158Y47035I-947J548D01*
G02X101063Y48130I0J1095D01*
G02X101609Y49077I1094J0D01*
G03X101609Y49683I-176J303D01*
G37*
G36*
G01X210421Y55388D02*
G02X211500Y56295I1079J-188D01*
G02X211500Y54105I0J-1095D01*
G02X210836Y54330I1J1095D01*
G03X210279Y54112I-212J-278D01*
G02X209200Y53205I-1079J188D01*
G02X209200Y55395I0J1095D01*
G02X209864Y55170I-1J-1095D01*
G03X210421Y55388I212J278D01*
G37*
G36*
G01X140509Y71083D02*
G02X139963Y72030I548J947D01*
G02X141058Y73125I1095J0D01*
G02X142005Y72579I0J-1094D01*
G03X142611Y72579I303J176D01*
G02X143558Y73125I947J-548D01*
G02X144653Y72030I0J-1095D01*
G02X144107Y71083I-1094J0D01*
G03X144107Y70477I176J-303D01*
G02X144107Y68583I-548J-947D01*
G03X144107Y67977I176J-303D01*
G02X144653Y67030I-548J-947D01*
G02X143558Y65935I-1095J0D01*
G02X142611Y66481I0J1094D01*
G03X142005Y66481I-303J-176D01*
G02X141058Y65935I-947J548D01*
G02X139963Y67030I0J1095D01*
G02X140509Y67977I1094J0D01*
G03X140509Y68583I-176J303D01*
G02X140509Y70477I548J947D01*
G03X140509Y71083I-176J303D01*
G37*
G36*
G01X111780Y75744D02*
G02X110914Y75319I-866J670D01*
G02X110914Y77509I0J1095D01*
G02X111780Y77084I0J-1095D01*
G03X112334Y77084I277J214D01*
G02X113200Y77509I866J-670D01*
G02X113200Y75319I0J-1095D01*
G02X112334Y75744I0J1095D01*
G03X111780Y75744I-277J-214D01*
G37*
G36*
G01X135823Y81507D02*
G02X137717Y81507I947J-548D01*
G03X138323Y81507I303J176D01*
G02X139270Y82053I947J-548D01*
G02X139270Y79863I0J-1095D01*
G02X138323Y80409I0J1094D01*
G03X137717Y80409I-303J-176D01*
G02X135823Y80409I-947J548D01*
G03X135217Y80409I-303J-176D01*
G02X134270Y79863I-947J548D01*
G02X134270Y82053I0J1095D01*
G02X135217Y81507I0J-1094D01*
G03X135823Y81507I303J176D01*
G37*
G36*
G01X137223Y84207D02*
G02X139117Y84207I947J-548D01*
G03X139723Y84207I303J176D01*
G02X140670Y84753I947J-548D01*
G02X140670Y82563I0J-1095D01*
G02X139723Y83109I0J1094D01*
G03X139117Y83109I-303J-176D01*
G02X137223Y83109I-947J548D01*
G03X136617Y83109I-303J-176D01*
G02X135670Y82563I-947J548D01*
G02X135670Y84753I0J1095D01*
G02X136617Y84207I0J-1094D01*
G03X137223Y84207I303J176D01*
G37*
G36*
G01X104324Y87219D02*
G02X104194Y87211I-132J1087D01*
G02X105289Y88306I0J1095D01*
G02X105281Y88176I-1095J2D01*
G03X105670Y87787I348J-41D01*
G02X105800Y87795I132J-1087D01*
G02X104705Y86700I0J-1095D01*
G02X104713Y86830I1095J-2D01*
G03X104324Y87219I-348J41D01*
G37*
G36*
G01X172469Y90290D02*
G02X171500Y89705I-969J510D01*
G02X171500Y91895I0J1095D01*
G02X172425Y91385I0J-1094D01*
G03X173031Y91410I296J187D01*
G02X174000Y91995I969J-510D01*
G02X174000Y89805I0J-1095D01*
G02X173075Y90315I0J1094D01*
G03X172469Y90290I-296J-187D01*
G37*
G36*
G01X57109Y95283D02*
G02X56563Y96230I548J947D01*
G02X57658Y97325I1095J0D01*
G02X58605Y96779I0J-1094D01*
G03X59211Y96779I303J176D01*
G02X60158Y97325I947J-548D01*
G02X61253Y96230I0J-1095D01*
G02X60707Y95283I-1094J0D01*
G03X60707Y94677I176J-303D01*
G02X60707Y92783I-548J-947D01*
G03X60707Y92177I176J-303D01*
G02X61253Y91230I-548J-947D01*
G02X60158Y90135I-1095J0D01*
G02X59211Y90681I0J1094D01*
G03X58605Y90681I-303J-176D01*
G02X57658Y90135I-947J548D01*
G02X56563Y91230I0J1095D01*
G02X57109Y92177I1094J0D01*
G03X57109Y92783I-176J303D01*
G02X57109Y94677I548J947D01*
G03X57109Y95283I-176J303D01*
G37*
G36*
G01X91223Y102607D02*
G02X93117Y102607I947J-548D01*
G03X93723Y102607I303J176D01*
G02X94670Y103153I947J-548D01*
G02X95765Y102058I0J-1095D01*
G02X95219Y101111I-1094J0D01*
G03X95219Y100505I176J-303D01*
G02X95765Y99558I-548J-947D01*
G02X94670Y98463I-1095J0D01*
G02X93723Y99009I0J1094D01*
G03X93117Y99009I-303J-176D01*
G02X91223Y99009I-947J548D01*
G03X90617Y99009I-303J-176D01*
G02X89670Y98463I-947J548D01*
G02X88575Y99558I0J1095D01*
G02X89121Y100505I1094J0D01*
G03X89121Y101111I-176J303D01*
G02X88575Y102058I548J947D01*
G02X89670Y103153I1095J0D01*
G02X90617Y102607I0J-1094D01*
G03X91223Y102607I303J176D01*
G37*
G36*
G01X258705Y101984D02*
G02X257800Y101505I-905J615D01*
G02X257800Y103695I0J1095D01*
G02X258649Y103292I0J-1096D01*
G03X259209Y103316I271J221D01*
G02X260114Y103795I905J-615D01*
G02X260114Y101605I0J-1095D01*
G02X259265Y102008I0J1096D01*
G03X258705Y101984I-271J-221D01*
G37*
G36*
G01X35253Y112049D02*
G02X37147Y112049I947J-548D01*
G03X37753Y112049I303J176D01*
G02X38700Y112595I947J-548D01*
G02X38700Y110405I0J-1095D01*
G02X37753Y110951I0J1094D01*
G03X37147Y110951I-303J-176D01*
G02X36200Y110405I-947J548D01*
G02X36113Y110408I-6J1095D01*
G03X35774Y109900I-27J-349D01*
G02X35895Y109400I-974J-500D01*
G02X35479Y108541I-1095J0D01*
G03X35527Y107960I217J-275D01*
G02X36095Y107000I-527J-960D01*
G02X33905Y107000I-1095J0D01*
G02X34321Y107859I1095J0D01*
G03X34273Y108440I-217J275D01*
G02X33705Y109400I527J960D01*
G02X33828Y109905I1095J1D01*
G03X33562Y110414I-310J162D01*
G02X32605Y111500I138J1086D01*
G02X33700Y112595I1095J0D01*
G02X34647Y112049I0J-1094D01*
G03X35253Y112049I303J176D01*
G37*
G36*
G01X148405Y115178D02*
X148405Y115200D01*
G02X149500Y114105I1095J0D01*
G02X149155Y114161I1J1095D01*
G03X148695Y113822I-110J-332D01*
G01X148695Y113800D01*
G02X147600Y114895I-1095J0D01*
G02X147945Y114839I-1J-1095D01*
G03X148405Y115178I110J332D01*
G37*
G36*
G01X80847Y126958D02*
G02X80180Y126732I-666J869D01*
G02X80180Y128922I0J1095D01*
G02X81271Y127917I0J-1095D01*
G03X81833Y127669I349J29D01*
G02X82500Y127895I666J-869D01*
G02X82500Y125705I0J-1095D01*
G02X81409Y126710I0J1095D01*
G03X80847Y126958I-349J-29D01*
G37*
G36*
G01X187744Y131237D02*
G02X187732Y131402I1083J162D01*
G02X188827Y130307I1095J0D01*
G02X188514Y130353I1J1095D01*
G03X188069Y129965I-99J-336D01*
G02X188081Y129800I-1083J-162D01*
G02X186986Y130895I-1095J0D01*
G02X187299Y130849I-1J-1095D01*
G03X187744Y131237I99J336D01*
G37*
G36*
G01X88481Y140602D02*
G02X88479Y140674I1093J66D01*
G02X89574Y139579I1095J0D01*
G02X89322Y139608I-2J1095D01*
G03X88893Y139245I-80J-340D01*
G02X88895Y139173I-1093J-66D01*
G02X87800Y140268I-1095J0D01*
G02X88052Y140239I2J-1095D01*
G03X88481Y140602I80J340D01*
G37*
G36*
G01X199145Y140175D02*
G02X198313Y139792I-832J712D01*
G02X198313Y141982I0J1095D01*
G02X199290Y141382I0J-1095D01*
G03X199868Y141312I312J158D01*
G02X200700Y141695I832J-712D01*
G02X200700Y139505I0J-1095D01*
G02X199723Y140105I0J1095D01*
G03X199145Y140175I-312J-158D01*
G37*
G36*
G01X69760Y150273D02*
G02X68800Y149705I-960J527D01*
G02X68800Y151895I0J1095D01*
G02X69659Y151479I0J-1095D01*
G03X70240Y151527I275J217D01*
G02X71200Y152095I960J-527D01*
G02X71200Y149905I0J-1095D01*
G02X70341Y150321I0J1095D01*
G03X69760Y150273I-275J-217D01*
G37*
G36*
G01X203344Y150315D02*
G02X203200Y150305I-148J1085D01*
G02X204295Y151400I0J1095D01*
G02X204268Y151159I-1095J1D01*
G03X204656Y150735I342J-77D01*
G02X204800Y150745I148J-1085D01*
G02X203705Y149650I0J-1095D01*
G02X203732Y149891I1095J-1D01*
G03X203344Y150315I-342J77D01*
G37*
G36*
G01X240951Y153953D02*
G02X240405Y154900I548J947D01*
G02X242595Y154900I1095J0D01*
G02X242049Y153953I-1094J0D01*
G03X242049Y153347I176J-303D01*
G02X242595Y152400I-548J-947D01*
G02X240405Y152400I-1095J0D01*
G02X240951Y153347I1094J0D01*
G03X240951Y153953I-176J303D01*
G37*
G36*
G01X203223Y156638D02*
G02X202700Y156505I-523J962D01*
G02X202700Y158695I0J1095D01*
G02X203768Y157842I0J-1095D01*
G03X204277Y157612I341J77D01*
G02X204800Y157745I523J-962D01*
G02X204800Y155555I0J-1095D01*
G02X203732Y156408I0J1095D01*
G03X203223Y156638I-341J-77D01*
G37*
G36*
G01X53715Y159539D02*
G02X53429Y160277I809J738D01*
G02X55619Y160277I1095J0D01*
G02X54785Y159213I-1096J0D01*
G03X54609Y158638I83J-340D01*
G02X54895Y157900I-809J-738D01*
G02X52705Y157900I-1095J0D01*
G02X53539Y158964I1096J0D01*
G03X53715Y159539I-83J340D01*
G37*
G36*
G01X175327Y160628D02*
G02X174900Y160541I-428J1008D01*
G02X175995Y161636I0J1095D01*
G02X175989Y161518I-1095J-3D01*
G03X176473Y161158I348J-38D01*
G02X176900Y161245I428J-1008D01*
G02X175805Y160150I0J-1095D01*
G02X175811Y160268I1095J3D01*
G03X175327Y160628I-348J38D01*
G37*
G36*
G01X159063Y167050D02*
G02X159005Y167400I1037J352D01*
G02X160100Y166305I1095J0D01*
G02X159990Y166311I5J1095D01*
G03X159623Y165850I-35J-349D01*
G02X159681Y165500I-1037J-352D01*
G02X158586Y166595I-1095J0D01*
G02X158696Y166589I-5J-1095D01*
G03X159063Y167050I35J349D01*
G37*
G36*
G01X270275Y167297D02*
G02X269926Y167240I-349J1038D01*
G02X271021Y168335I0J1095D01*
G02X271017Y168236I-1095J-5D01*
G03X271477Y167873I348J-32D01*
G02X271826Y167930I349J-1038D01*
G02X270731Y166835I0J-1095D01*
G02X270735Y166934I1095J5D01*
G03X270275Y167297I-348J32D01*
G37*
G36*
G01X202737Y167919D02*
G02X201702Y169012I60J1093D01*
G02X203892Y169012I1095J0D01*
G02X203845Y168694I-1095J-1D01*
G03X204160Y168243I335J-102D01*
G02X205195Y167150I-60J-1093D01*
G02X203005Y167150I-1095J0D01*
G02X203052Y167468I1095J1D01*
G03X202737Y167919I-335J102D01*
G37*
G36*
G01X78010Y174221D02*
G02X77551Y175113I637J892D01*
G02X79741Y175113I1095J0D01*
G02X79322Y174252I-1094J0D01*
G03X79336Y173692I217J-275D01*
G02X79795Y172800I-637J-892D01*
G02X77605Y172800I-1095J0D01*
G02X78024Y173661I1094J0D01*
G03X78010Y174221I-217J275D01*
G37*
G36*
G01X202258Y174807D02*
G02X202200Y174805I-67J1093D01*
G02X203295Y175900I0J1095D01*
G02X203276Y175698I-1095J1D01*
G03X203638Y175283I344J-65D01*
G02X203696Y175285I67J-1093D01*
G02X202601Y174190I0J-1095D01*
G02X202620Y174392I1095J-1D01*
G03X202258Y174807I-344J65D01*
G37*
G36*
G01X170331Y178758D02*
G02X169537Y178417I-794J754D01*
G02X169537Y180607I0J1095D01*
G02X170458Y180105I0J-1096D01*
G03X171006Y180054I294J190D01*
G02X171800Y180395I794J-754D01*
G02X171800Y178205I0J-1095D01*
G02X170879Y178707I0J1096D01*
G03X170331Y178758I-294J-190D01*
G37*
G36*
G01X58125Y181614D02*
G02X57200Y181105I-925J586D01*
G02X57200Y183295I0J1095D01*
G02X58140Y182762I0J-1095D01*
G03X58736Y182754I300J179D01*
G02X59661Y183263I925J-586D01*
G02X59661Y181073I0J-1095D01*
G02X58721Y181606I0J1095D01*
G03X58125Y181614I-300J-179D01*
G37*
G36*
G01X203228Y181636D02*
G02X202800Y181549I-428J1009D01*
G02X203895Y182644I0J1095D01*
G02X203888Y182520I-1095J0D01*
G03X204372Y182158I348J-40D01*
G02X204800Y182245I428J-1009D01*
G02X203705Y181150I0J-1095D01*
G02X203712Y181274I1095J0D01*
G03X203228Y181636I-348J40D01*
G37*
G36*
G01X125855Y185203D02*
G02X125736Y185700I976J496D01*
G02X126831Y184605I1095J0D01*
G01X126798Y184605D01*
G03X126476Y184097I-10J-350D01*
G02X126595Y183600I-976J-496D01*
G02X125500Y182505I-1095J0D01*
G02X124405Y183574I0J1095D01*
G03X123921Y183889I-350J-8D01*
G02X123500Y183805I-421J1011D01*
G02X123500Y185995I0J1095D01*
G02X124595Y184926I0J-1095D01*
G03X125079Y184611I350J8D01*
G02X125500Y184695I421J-1011D01*
G01X125533Y184695D01*
G03X125855Y185203I10J350D01*
G37*
G36*
G01X52353Y196733D02*
G02X51505Y197800I247J1067D01*
G02X53695Y197800I1095J0D01*
G02X53602Y197358I-1095J0D01*
G03X54009Y196877I320J-142D01*
G02X55000Y197002I992J-3877D01*
G02X55000Y188998I0J-4002D01*
G02X54100Y189100I-2J4002D01*
G03X53677Y188697I-79J-341D01*
G02X53695Y188500I-1077J-198D01*
G02X51505Y188500I-1095J0D01*
G02X52163Y189504I1095J0D01*
G03X52263Y190080I-140J321D01*
G02X50998Y193000I2738J2920D01*
G02X52493Y196120I4003J0D01*
G03X52353Y196733I-219J272D01*
G37*
G54D25*
X35000Y193000D03*
X35000Y213000D03*
X225000Y213000D03*
X145000Y213000D03*
X145000Y203000D03*
X175000Y213000D03*
X85000Y193000D03*
X300315Y68780D03*
X290000Y68780D03*
X300315Y133780D03*
X290000Y133780D03*
G54D26*
X45000Y193000D03*
X65000Y193000D03*
X185000Y203000D03*
X195000Y213000D03*
X195000Y203000D03*
X205000Y213000D03*
X205000Y203000D03*
X215000Y213000D03*
X35000Y203000D03*
X45000Y213000D03*
X45000Y203000D03*
X55000Y213000D03*
X55000Y203000D03*
X65000Y213000D03*
X65000Y203000D03*
X75000Y213000D03*
X75000Y203000D03*
X85000Y213000D03*
X215000Y203000D03*
X85000Y203000D03*
X95000Y213000D03*
X95000Y203000D03*
X105000Y213000D03*
X105000Y203000D03*
X115000Y213000D03*
X115000Y203000D03*
X125000Y213000D03*
X125000Y203000D03*
X135000Y213000D03*
X135000Y203000D03*
X155000Y213000D03*
X155000Y203000D03*
X165000Y213000D03*
X165000Y203000D03*
X175000Y203000D03*
X185000Y213000D03*
X95000Y193000D03*
X300315Y41220D03*
X290000Y41220D03*
X300315Y106220D03*
X290000Y106220D03*
G54D24*
X117882Y156796D03*
X117882Y159354D03*
X117882Y161914D03*
X128118Y159354D03*
X117882Y151678D03*
X117882Y154236D03*
X115322Y154236D03*
X112764Y156796D03*
X112764Y161914D03*
X110204Y159354D03*
X102528Y169590D03*
X120440Y161914D03*
X120440Y159354D03*
X120440Y156796D03*
X90000Y122500D03*
X204000Y48300D03*
X213987Y140813D03*
X110204Y156796D03*
X102528Y167032D03*
X133236Y138882D03*
X140896Y136304D03*
X140914Y161914D03*
X140914Y159354D03*
X140914Y156796D03*
X133236Y154236D03*
X135796Y151678D03*
X140914Y151678D03*
X135796Y149118D03*
X143526Y149123D03*
X135796Y131204D03*
X140914Y131204D03*
X138354Y131204D03*
X140914Y128646D03*
X130678Y141440D03*
X133236Y141440D03*
X140914Y126086D03*
X130678Y138882D03*
X133236Y136322D03*
X130678Y136322D03*
X130678Y159354D03*
X105086Y126086D03*
X105086Y128646D03*
X112764Y133764D03*
X112764Y136322D03*
X115322Y136322D03*
X115322Y138882D03*
X112764Y138882D03*
X105086Y141440D03*
X107646Y149118D03*
X105086Y149118D03*
X107646Y151678D03*
X110204Y151678D03*
X105086Y151678D03*
X115322Y151678D03*
X112764Y151678D03*
X112764Y154236D03*
X105086Y159354D03*
X105086Y161914D03*
X102528Y164472D03*
X107646Y126086D03*
X110204Y126086D03*
X112764Y128646D03*
X112764Y126086D03*
X115322Y133764D03*
X107646Y136322D03*
X117882Y126086D03*
X117882Y128646D03*
X120440Y126086D03*
X120440Y128646D03*
X125560Y133764D03*
X128118Y133764D03*
X128118Y126086D03*
X130678Y133764D03*
X130678Y126086D03*
X130678Y128646D03*
X135796Y128646D03*
X135796Y126086D03*
X135796Y123528D03*
X138354Y126086D03*
X138354Y123528D03*
X191976Y121953D03*
X195126Y140850D03*
X195126Y118803D03*
X199700Y132976D03*
X202999Y144599D03*
X205300Y142100D03*
X207300Y140300D03*
X207638Y128338D03*
X191976Y125102D03*
X203000Y136378D03*
X205800Y131400D03*
X210874Y140850D03*
X195126Y134551D03*
X191989Y137689D03*
X202730Y123634D03*
X209299Y118400D03*
X214024Y125102D03*
X207738Y134538D03*
X210874Y134551D03*
X214024Y122000D03*
X195126Y128252D03*
X202602Y126409D03*
X203000Y139024D03*
X211800Y117500D03*
X186200Y167200D03*
X188827Y159748D03*
X170100Y144000D03*
X214024Y150299D03*
X214012Y143988D03*
X221700Y132976D03*
X210861Y128239D03*
X215598Y117800D03*
X218400Y126677D03*
X210888Y125088D03*
X191976Y118803D03*
X187700Y126677D03*
X217173Y159748D03*
X217173Y166047D03*
X171500Y111200D03*
X174700Y111300D03*
X178800Y126500D03*
X168600Y111200D03*
X195100Y131400D03*
X195100Y122000D03*
X191965Y147161D03*
X185800Y134000D03*
X161301Y132001D03*
X201300Y189900D03*
X200600Y185900D03*
X205400Y184386D03*
X200000Y179400D03*
X204800Y177650D03*
X200200Y172400D03*
X205600Y170600D03*
X201100Y165400D03*
X204100Y163400D03*
X201636Y161564D03*
X204711Y160408D03*
X199674Y155167D03*
X205199Y153678D03*
X200511Y147875D03*
X205649Y146140D03*
X205982Y187663D03*
X179800Y156650D03*
X175000Y172400D03*
X182100Y184650D03*
X178000Y144600D03*
X175100Y165200D03*
X181701Y146099D03*
X174700Y158000D03*
X170414Y151226D03*
X175100Y168800D03*
X177400Y181100D03*
X174700Y179400D03*
X175700Y186100D03*
X179800Y149650D03*
X174700Y154900D03*
X177854Y167057D03*
X174500Y151300D03*
X178000Y141812D03*
X180600Y170650D03*
X177100Y152900D03*
X179800Y177650D03*
X178400Y188150D03*
X175000Y175700D03*
X177400Y174214D03*
X179800Y163400D03*
X174900Y182900D03*
X172900Y135200D03*
X152650Y158150D03*
X168600Y159100D03*
X169800Y135200D03*
X161700Y169500D03*
X170100Y140000D03*
X150400Y163300D03*
X135796Y146560D03*
X133236Y156796D03*
X220639Y156561D03*
X221200Y144700D03*
X138354Y144000D03*
X135796Y138882D03*
X110204Y136322D03*
X138354Y141440D03*
X140914Y144000D03*
X135796Y136322D03*
X105086Y136322D03*
X125560Y159354D03*
X125560Y156796D03*
X110204Y133764D03*
X105370Y13998D03*
X107646Y159354D03*
X233300Y140000D03*
X115322Y131204D03*
X138354Y156796D03*
X112764Y131204D03*
X135796Y154236D03*
X172900Y84200D03*
X138354Y154236D03*
X177500Y50800D03*
X161228Y18900D03*
X138344Y164477D03*
X225100Y154600D03*
X56898Y46661D03*
X56898Y49308D03*
X99300Y114800D03*
X132600Y18800D03*
X164000Y48100D03*
X66300Y136600D03*
X66300Y133700D03*
X201450Y85550D03*
X32025Y113975D03*
X56851Y52567D03*
X56851Y55213D03*
X40000Y73200D03*
X39400Y85287D03*
X102724Y13998D03*
X39957Y75843D03*
X260339Y130131D03*
X164100Y16200D03*
X314500Y185800D03*
X86300Y115000D03*
X306600Y183900D03*
X56851Y62308D03*
X37900Y107000D03*
X56851Y59661D03*
X37300Y100400D03*
X56898Y65467D03*
X56898Y68113D03*
X82400Y123400D03*
X227100Y127300D03*
X124800Y115500D03*
X88300Y131600D03*
X40000Y70400D03*
X225100Y169300D03*
X225100Y164300D03*
X40775Y36175D03*
X90787Y161387D03*
X227100Y117600D03*
X74900Y58100D03*
X227100Y122300D03*
X225100Y159300D03*
X233600Y136000D03*
X125560Y131200D03*
X176900Y85800D03*
X187200Y59200D03*
X25300Y138000D03*
X176223Y92276D03*
X169102Y18968D03*
X87000Y125600D03*
X111800Y176800D03*
X85000Y30200D03*
X105086Y131204D03*
X208200Y84100D03*
X213850Y86850D03*
X74900Y38000D03*
X50645Y179387D03*
X112100Y95600D03*
X170100Y87100D03*
X156200Y18800D03*
X182200Y48200D03*
X139132Y101150D03*
X68200Y131800D03*
X153353Y18800D03*
X40875Y32675D03*
X28551Y175349D03*
X275600Y142100D03*
X90000Y28500D03*
X28900Y172700D03*
X89800Y157700D03*
X254094Y160494D03*
X40775Y43175D03*
X165850Y69827D03*
X31100Y175500D03*
X221800Y89000D03*
X31700Y170600D03*
X168900Y90600D03*
X134700Y17300D03*
X217600Y174900D03*
X165850Y74157D03*
X63098Y185498D03*
X71300Y148000D03*
X69300Y126500D03*
X147447Y18968D03*
X111500Y104600D03*
X167132Y16600D03*
X125900Y117900D03*
X179100Y48100D03*
X213800Y83600D03*
X139573Y18968D03*
X150400Y19000D03*
X71300Y172800D03*
X60452Y185498D03*
X50645Y176741D03*
X91548Y155811D03*
X55500Y178700D03*
X53900Y181200D03*
X183614Y50800D03*
X175714Y48000D03*
X180600Y50800D03*
X67200Y128700D03*
X187800Y51300D03*
X69400Y136500D03*
X116602Y113800D03*
X70000Y123900D03*
X188551Y39649D03*
X25300Y142000D03*
X187800Y54700D03*
X108700Y109200D03*
X94800Y118600D03*
X89200Y127200D03*
X247299Y139304D03*
X64200Y145200D03*
X217400Y88300D03*
X34700Y135600D03*
X82243Y172757D03*
X51940Y23660D03*
X76000Y115900D03*
X257693Y130131D03*
X40775Y39775D03*
X90278Y136624D03*
X96000Y161300D03*
X171700Y59300D03*
X49975Y31275D03*
X107350Y100650D03*
X92924Y136624D03*
X163900Y44000D03*
X93000Y109600D03*
X199000Y87000D03*
X97200Y20300D03*
X42500Y99800D03*
X251298Y123187D03*
X260114Y83900D03*
X260900Y118000D03*
X260900Y122000D03*
X138300Y54200D03*
X286173Y194600D03*
X180100Y73300D03*
X23000Y109000D03*
X278450Y134600D03*
X254000Y163500D03*
X275500Y139400D03*
X281096Y134600D03*
X314900Y178500D03*
X276698Y148630D03*
X276698Y151276D03*
X163900Y52000D03*
X222600Y75000D03*
X266244Y163869D03*
X293100Y196900D03*
X263598Y163869D03*
X248652Y123187D03*
X258032Y163968D03*
X222000Y63300D03*
X157800Y44000D03*
X157800Y52000D03*
X214100Y53900D03*
X165850Y56835D03*
X223700Y53300D03*
X233800Y52300D03*
X225400Y50400D03*
X220004Y179986D03*
X20000Y110700D03*
X111200Y20400D03*
X236000Y169700D03*
X220700Y22400D03*
X223400Y21900D03*
X222300Y112911D03*
X269886Y83900D03*
X269886Y102800D03*
X261968Y133468D03*
X299350Y168350D03*
X279800Y184400D03*
X230000Y173100D03*
X67400Y145400D03*
X221000Y107300D03*
X34800Y128300D03*
X96143Y144814D03*
X194850Y191750D03*
X139000Y192800D03*
X130678Y161914D03*
X107646Y131204D03*
X40500Y82600D03*
X133204Y164498D03*
X132300Y196000D03*
X130000Y194400D03*
X95400Y172500D03*
X49700Y197700D03*
X99800Y55200D03*
X20437Y183763D03*
X61000Y54900D03*
X48200Y185100D03*
X140800Y195400D03*
X307500Y15700D03*
X138300Y186200D03*
X51500Y185000D03*
X75100Y173100D03*
X61000Y57700D03*
X232200Y199500D03*
X42300Y96900D03*
X130000Y27900D03*
X34000Y175100D03*
X281600Y14700D03*
X23000Y105000D03*
X69400Y156000D03*
X73000Y120900D03*
X241100Y147100D03*
X17700Y82900D03*
X96200Y110600D03*
X55000Y99800D03*
X239700Y87800D03*
X119300Y54900D03*
X108800Y81000D03*
X25600Y131900D03*
X257000Y62800D03*
X34800Y87300D03*
X255100Y102600D03*
X34800Y147400D03*
X111800Y81000D03*
X85200Y8900D03*
X49500Y152658D03*
X122000Y76300D03*
X22500Y116000D03*
X269200Y155500D03*
X65600Y19300D03*
X125000Y76300D03*
X255000Y82900D03*
X17200Y70000D03*
X137400Y59000D03*
X279300Y10100D03*
X182000Y24000D03*
X127800Y76300D03*
X213600Y70100D03*
X257100Y34000D03*
X266700Y184100D03*
X132800Y64600D03*
X247900Y189500D03*
X236800Y89900D03*
X92200Y8900D03*
X160100Y72100D03*
X151000Y56200D03*
X273300Y153000D03*
X248900Y157600D03*
X81100Y74600D03*
X280626Y174735D03*
X254400Y34000D03*
X42900Y186000D03*
X22000Y52300D03*
X254300Y62800D03*
X280626Y178735D03*
X75600Y79600D03*
X271826Y170835D03*
X257700Y82900D03*
X269926Y164335D03*
X245800Y157600D03*
X315900Y10600D03*
X87800Y106300D03*
X277200Y196900D03*
X140913Y141440D03*
G54D28*
X315630Y196378D03*
X315630Y173622D03*
X39622Y22370D03*
X62378Y22370D03*
G54D22*
X233639Y40164D03*
G54D23*
X223797Y40951D03*
G54D27*
X288622Y29134D03*
X288622Y80866D03*
X310984Y29134D03*
X310984Y80866D03*
X288622Y94134D03*
X288622Y145866D03*
X310984Y94134D03*
X310984Y145866D03*
%LPD*%
G75*
G54D10*
X11811Y11811D03*
X11811Y208661D03*
X260000Y11811D03*
X260000Y208661D03*
G54D20*
G01X11811Y11811D02*
X11811Y22921D01*
G01X11811Y11811D02*
X22921Y11811D01*
G01X8066Y34221D02*
X8066Y37457D01*
G01X8066Y37457D02*
X8066Y40693D01*
G01X8066Y37457D02*
X13665Y37457D01*
G01X8066Y91307D02*
X8066Y94543D01*
G01X8066Y94543D02*
X8066Y97779D01*
G01X8066Y94543D02*
X13665Y94543D01*
G01X11811Y197551D02*
X11811Y208661D01*
G01X11811Y208661D02*
X22921Y208661D01*
G01X24042Y37457D02*
X31609Y37457D01*
G01X24042Y94543D02*
X31609Y94543D01*
G01X31323Y193000D02*
X35000Y193000D01*
G01X31323Y213000D02*
X35000Y213000D01*
G01X31609Y34221D02*
X31609Y37457D01*
G01X31609Y37457D02*
X31609Y40693D01*
G01X31609Y37457D02*
X39176Y37457D01*
G01X31609Y91307D02*
X31609Y94543D01*
G01X31609Y94543D02*
X31609Y97779D01*
G01X31609Y94543D02*
X39176Y94543D01*
G01X35000Y189323D02*
X35000Y193000D01*
G01X35000Y193000D02*
X35000Y196677D01*
G01X35000Y193000D02*
X38677Y193000D01*
G01X35000Y209323D02*
X35000Y213000D01*
G01X35000Y213000D02*
X35000Y216677D01*
G01X35000Y213000D02*
X38677Y213000D01*
G01X85000Y189323D02*
X85000Y193000D01*
G01X85000Y193000D02*
X85000Y196677D01*
G01X81323Y193000D02*
X85000Y193000D01*
G01X85000Y193000D02*
X88677Y193000D01*
G01X145000Y199323D02*
X145000Y203000D01*
G01X145000Y203000D02*
X145000Y206677D01*
G01X141323Y203000D02*
X145000Y203000D01*
G01X145000Y203000D02*
X148677Y203000D01*
G01X145000Y209323D02*
X145000Y213000D01*
G01X145000Y213000D02*
X145000Y216677D01*
G01X141323Y213000D02*
X145000Y213000D01*
G01X145000Y213000D02*
X148677Y213000D01*
G01X171323Y213000D02*
X175000Y213000D01*
G01X175000Y209323D02*
X175000Y213000D01*
G01X175000Y213000D02*
X175000Y216677D01*
G01X175000Y213000D02*
X178677Y213000D01*
G01X215135Y10243D02*
X215135Y15448D01*
G01X212489Y10243D02*
X215135Y10243D01*
G01X215135Y10243D02*
X217781Y10243D01*
G01X225000Y209323D02*
X225000Y213000D01*
G01X225000Y213000D02*
X225000Y216677D01*
G01X221323Y213000D02*
X225000Y213000D01*
G01X225000Y213000D02*
X228677Y213000D01*
G01X260000Y11811D02*
X260000Y22921D01*
G01X248890Y11811D02*
X260000Y11811D01*
G01X260000Y11811D02*
X271110Y11811D01*
G01X260000Y197551D02*
X260000Y208661D01*
G01X248890Y208661D02*
X260000Y208661D01*
G01X260000Y208661D02*
X271110Y208661D01*
G01X288622Y22945D02*
X288622Y29134D01*
G01X288622Y29134D02*
X288622Y35323D01*
G01X282433Y29134D02*
X288622Y29134D01*
G01X288622Y29134D02*
X294811Y29134D01*
G01X286323Y68780D02*
X290000Y68780D01*
G01X288622Y74677D02*
X288622Y80866D01*
G01X288622Y80866D02*
X288622Y87055D01*
G01X282433Y80866D02*
X288622Y80866D01*
G01X288622Y80866D02*
X294811Y80866D01*
G01X288622Y87945D02*
X288622Y94134D01*
G01X288622Y94134D02*
X288622Y100323D01*
G01X282433Y94134D02*
X288622Y94134D01*
G01X288622Y94134D02*
X294811Y94134D01*
G01X288622Y139677D02*
X288622Y145866D01*
G01X288622Y145866D02*
X288622Y152055D01*
G01X282433Y145866D02*
X288622Y145866D01*
G01X288622Y145866D02*
X294811Y145866D01*
G01X286323Y133780D02*
X290000Y133780D01*
G01X300315Y65103D02*
X300315Y68780D01*
G01X300315Y68780D02*
X300315Y72457D01*
G01X296638Y68780D02*
X300315Y68780D01*
G01X300315Y68780D02*
X303992Y68780D01*
G01X290000Y65103D02*
X290000Y68780D01*
G01X290000Y68780D02*
X290000Y72457D01*
G01X290000Y68780D02*
X293677Y68780D01*
G01X290000Y130103D02*
X290000Y133780D01*
G01X300315Y130103D02*
X300315Y133780D01*
G01X290000Y133780D02*
X290000Y137457D01*
G01X290000Y133780D02*
X293677Y133780D01*
G01X300315Y133780D02*
X300315Y137457D01*
G01X296638Y133780D02*
X300315Y133780D01*
G01X300315Y133780D02*
X303992Y133780D01*
G01X310984Y22945D02*
X310984Y29134D01*
G01X310984Y29134D02*
X310984Y35323D01*
G01X304795Y29134D02*
X310984Y29134D01*
G01X310984Y29134D02*
X317173Y29134D01*
G01X310984Y74677D02*
X310984Y80866D01*
G01X310984Y80866D02*
X310984Y87055D01*
G01X304795Y80866D02*
X310984Y80866D01*
G01X310984Y80866D02*
X317173Y80866D01*
G01X310984Y87945D02*
X310984Y94134D01*
G01X310984Y94134D02*
X310984Y100323D01*
G01X304795Y94134D02*
X310984Y94134D01*
G01X310984Y94134D02*
X317173Y94134D01*
G01X310984Y139677D02*
X310984Y145866D01*
G01X310984Y145866D02*
X310984Y152055D01*
G01X304795Y145866D02*
X310984Y145866D01*
G01X310984Y145866D02*
X317173Y145866D01*
G54D11*
X17427Y26328D03*
X17427Y40328D03*
X17427Y33328D03*
X6330Y54789D03*
X6330Y47789D03*
X11574Y55033D03*
X11574Y48033D03*
X6330Y68789D03*
X6330Y61789D03*
X11574Y69033D03*
X11574Y62033D03*
X6330Y82789D03*
X6330Y75789D03*
X7398Y100802D03*
X4365Y103835D03*
X5233Y112659D03*
X7100Y127600D03*
X7446Y122654D03*
X9300Y118400D03*
X5233Y126659D03*
X5233Y119659D03*
X10700Y134000D03*
X5782Y143132D03*
X5782Y136132D03*
X7000Y149500D03*
X10900Y160500D03*
X4000Y153400D03*
X11000Y152000D03*
X11000Y163000D03*
X31039Y8000D03*
X31743Y14378D03*
X24743Y14378D03*
X31039Y24457D03*
X28463Y56157D03*
X28463Y50252D03*
X25646Y58398D03*
X18646Y58398D03*
X28027Y67773D03*
X28027Y65501D03*
X28463Y62063D03*
X28027Y74000D03*
X25646Y65398D03*
X18646Y65398D03*
X27800Y88200D03*
X28027Y82000D03*
X28027Y78000D03*
X20000Y95900D03*
X20000Y101900D03*
X19200Y118400D03*
X19500Y134000D03*
X19000Y142900D03*
X19100Y138100D03*
X23000Y149700D03*
X24400Y146800D03*
X30159Y161941D03*
X31400Y164300D03*
X27400Y184000D03*
X25901Y179054D03*
X24011Y198187D03*
X24011Y191187D03*
X26511Y201978D03*
X27182Y191491D03*
X26511Y208978D03*
X38743Y14378D03*
X45888Y4380D03*
X38888Y4380D03*
X32100Y31000D03*
X36300Y31000D03*
X41200Y52700D03*
X41000Y64600D03*
X40480Y79780D03*
X34453Y133090D03*
X34498Y158100D03*
X34498Y151100D03*
X40100Y208000D03*
X59700Y7500D03*
X59888Y4380D03*
X52888Y4380D03*
X54863Y50937D03*
X55063Y63937D03*
X56599Y82236D03*
X55400Y106100D03*
X59400Y140900D03*
X49814Y136500D03*
X55501Y153399D03*
X48700Y156800D03*
X54700Y184114D03*
X70961Y8000D03*
X70885Y3404D03*
X63885Y3404D03*
X70469Y15659D03*
X70961Y24457D03*
X63795Y32295D03*
X66900Y32100D03*
X62000Y34400D03*
X64600Y34400D03*
X64500Y56500D03*
X68200Y56500D03*
X71700Y56500D03*
X69800Y54700D03*
X66500Y54600D03*
X73500Y46700D03*
X62300Y84000D03*
X62400Y80700D03*
X70000Y105800D03*
X64289Y114848D03*
X70564Y129000D03*
X60600Y160200D03*
X73100Y174300D03*
X73284Y164600D03*
X69200Y190500D03*
X84885Y3404D03*
X77885Y3404D03*
X77469Y15659D03*
X77400Y25900D03*
X81700Y34300D03*
X84300Y34300D03*
X78273Y35595D03*
X77500Y41500D03*
X84600Y56500D03*
X84600Y54200D03*
X81700Y54200D03*
X81700Y56500D03*
X86778Y54222D03*
X77400Y49100D03*
X77400Y55400D03*
X81100Y71500D03*
X82797Y78897D03*
X80250Y94850D03*
X79100Y119100D03*
X85300Y140100D03*
X85628Y150700D03*
X87900Y150700D03*
X87849Y156049D03*
X75841Y152630D03*
X80850Y174561D03*
X86000Y174800D03*
X83500Y174900D03*
X98885Y3404D03*
X91885Y3404D03*
X94100Y20300D03*
X94100Y29200D03*
X98379Y35379D03*
X103000Y35000D03*
X99000Y51000D03*
X89214Y56124D03*
X94700Y46900D03*
X97410Y118410D03*
X101248Y117772D03*
X96772Y122248D03*
X102528Y126086D03*
X102528Y136322D03*
X99968Y141440D03*
X102528Y141440D03*
X99968Y154236D03*
X99968Y169590D03*
X96700Y165900D03*
X97410Y169590D03*
X100800Y173900D03*
X117464Y13164D03*
X107000Y11200D03*
X112885Y3404D03*
X105885Y3404D03*
X110038Y13342D03*
X114058Y18742D03*
X105000Y35000D03*
X110500Y56100D03*
X106800Y56100D03*
X114000Y56100D03*
X108800Y54200D03*
X112100Y54300D03*
X116700Y46300D03*
X116800Y50900D03*
X116602Y116300D03*
X116100Y107200D03*
X110204Y123528D03*
X107646Y128646D03*
X112764Y141440D03*
X110204Y138882D03*
X112764Y149118D03*
X115322Y149118D03*
X112764Y146560D03*
X115322Y146560D03*
X110204Y149118D03*
X105086Y164472D03*
X110204Y164472D03*
X129547Y4438D03*
X119885Y3404D03*
X122829Y24129D03*
X124518Y26785D03*
X126200Y34400D03*
X128968Y31876D03*
X131100Y56500D03*
X127400Y56500D03*
X129400Y54600D03*
X123100Y63600D03*
X129100Y99200D03*
X120100Y112000D03*
X128936Y109964D03*
X120600Y117400D03*
X117882Y131204D03*
X120440Y131204D03*
X128118Y128646D03*
X125560Y126086D03*
X117882Y141440D03*
X125560Y141440D03*
X120440Y141440D03*
X128118Y141440D03*
X117882Y138882D03*
X120440Y138882D03*
X117882Y136322D03*
X120440Y136322D03*
X125560Y138882D03*
X128118Y138882D03*
X125560Y136322D03*
X128118Y136322D03*
X120440Y133764D03*
X117882Y133764D03*
X130678Y149118D03*
X130678Y156796D03*
X130678Y154236D03*
X125560Y154236D03*
X125560Y149118D03*
X120440Y146560D03*
X128118Y154236D03*
X128118Y151678D03*
X120440Y154236D03*
X125560Y151678D03*
X120440Y149118D03*
X125560Y146560D03*
X128118Y149118D03*
X130678Y151678D03*
X128118Y146560D03*
X130678Y146560D03*
X117882Y146560D03*
X117882Y149118D03*
X117882Y164472D03*
X125560Y161914D03*
X128118Y164472D03*
X145479Y17479D03*
X134600Y56500D03*
X132700Y54700D03*
X136950Y47154D03*
X141000Y53700D03*
X146032Y118410D03*
X132790Y131100D03*
X143470Y120970D03*
X143472Y126086D03*
X143472Y131204D03*
X138354Y128646D03*
X143502Y141470D03*
X135796Y141440D03*
X135796Y144000D03*
X138354Y136322D03*
X133236Y146560D03*
X133236Y149118D03*
X138384Y149089D03*
X143472Y156796D03*
X143472Y161914D03*
X146032Y161914D03*
X144700Y170500D03*
X135796Y161914D03*
X142400Y190100D03*
X145200Y192800D03*
X146300Y4300D03*
X146400Y28000D03*
X153700Y42200D03*
X157800Y48000D03*
X159400Y58311D03*
X147000Y53700D03*
X154800Y47900D03*
X156296Y65496D03*
X154236Y73300D03*
X154600Y68000D03*
X157500Y106086D03*
X155121Y107879D03*
X148590Y118410D03*
X149400Y122248D03*
X148590Y167032D03*
X148590Y169590D03*
X147700Y178500D03*
X153400Y184800D03*
X164100Y13900D03*
X168300Y4364D03*
X172537Y18763D03*
X172100Y28000D03*
X173900Y46000D03*
X173778Y49800D03*
X167500Y147000D03*
X189100Y16500D03*
X181500Y16000D03*
X182773Y28218D03*
X188800Y24100D03*
X183200Y56000D03*
X180100Y69500D03*
X175500Y74000D03*
X188827Y118803D03*
X182000Y128100D03*
X187900Y123528D03*
X187614Y136112D03*
X186700Y154900D03*
X184400Y159814D03*
X188600Y167300D03*
X195368Y8332D03*
X202405Y12416D03*
X202405Y5416D03*
X202300Y24300D03*
X189773Y28218D03*
X192666Y40262D03*
X202300Y45907D03*
X198565Y76267D03*
X203000Y90500D03*
X191976Y131402D03*
X195114Y125114D03*
X195113Y137713D03*
X195138Y147138D03*
X209405Y12416D03*
X209405Y5416D03*
X207000Y28100D03*
X203900Y28200D03*
X209600Y30400D03*
X205600Y51400D03*
X208327Y46773D03*
X211400Y61200D03*
X216900Y74900D03*
X212700Y75600D03*
X212000Y97400D03*
X216000Y97400D03*
X215879Y100252D03*
X214000Y128300D03*
X217173Y121953D03*
X210863Y121963D03*
X217700Y139276D03*
X210987Y144113D03*
X217173Y162898D03*
X217173Y169197D03*
X214100Y186900D03*
X226476Y13574D03*
X219476Y13574D03*
X219354Y27121D03*
X219354Y34121D03*
X222121Y78379D03*
X232021Y78379D03*
X220000Y97400D03*
X222879Y100252D03*
X227219Y101552D03*
X227219Y94552D03*
X227000Y107500D03*
X227000Y112500D03*
X231000Y114300D03*
X218500Y129827D03*
X230900Y127900D03*
X230900Y122900D03*
X230900Y117900D03*
X226000Y133200D03*
X218100Y142400D03*
X218400Y132976D03*
X230900Y132400D03*
X218600Y155024D03*
X228900Y159300D03*
X228900Y154700D03*
X225000Y172600D03*
X228900Y169200D03*
X228900Y164800D03*
X230500Y186300D03*
X227000Y181500D03*
X218900Y193900D03*
X243373Y13073D03*
X240600Y16300D03*
X244600Y16300D03*
X244961Y45034D03*
X244961Y38034D03*
X241000Y50100D03*
X237300Y56100D03*
X244961Y59034D03*
X244961Y52034D03*
X244900Y77700D03*
X245700Y86600D03*
X245800Y94500D03*
X235900Y111500D03*
X239700Y106400D03*
X245800Y103800D03*
X245800Y112500D03*
X239800Y112000D03*
X242461Y125707D03*
X236800Y117700D03*
X233600Y144000D03*
X241000Y137600D03*
X242461Y132707D03*
X233600Y152000D03*
X233700Y148000D03*
X236000Y180900D03*
X239100Y178000D03*
X244000Y185200D03*
X239542Y202486D03*
X232542Y202486D03*
X239542Y216486D03*
X232542Y216486D03*
X239542Y209486D03*
X232542Y209486D03*
X254000Y44400D03*
X254594Y54606D03*
X254594Y47606D03*
X254000Y73400D03*
X255000Y92900D03*
X257600Y109900D03*
X260035Y142874D03*
X256035Y142874D03*
X260035Y150874D03*
X256035Y150874D03*
X260035Y146874D03*
X256035Y146874D03*
X258301Y176127D03*
X251301Y176127D03*
X252887Y180334D03*
X246542Y202486D03*
X246542Y216486D03*
X246542Y209486D03*
X273372Y3576D03*
X265800Y40000D03*
X265800Y45200D03*
X265800Y42700D03*
X265850Y52050D03*
X265500Y69000D03*
X265500Y74200D03*
X265500Y71700D03*
X266500Y78000D03*
X265400Y89000D03*
X275000Y92600D03*
X265400Y97700D03*
X265400Y94200D03*
X265400Y91700D03*
X275000Y112300D03*
X265500Y109000D03*
X265500Y114200D03*
X265500Y111700D03*
X274000Y126900D03*
X264035Y142874D03*
X272300Y155700D03*
X272700Y160300D03*
X264035Y150874D03*
X264035Y146874D03*
X265000Y168400D03*
X274000Y195200D03*
X273389Y200657D03*
X273389Y214657D03*
X273389Y207657D03*
X287372Y3576D03*
X280372Y3576D03*
X278067Y29670D03*
X278067Y22670D03*
X277000Y43600D03*
X280331Y62631D03*
X278300Y70900D03*
X281600Y66800D03*
X279331Y127231D03*
X278000Y143600D03*
X280601Y154799D03*
X288300Y169400D03*
X275900Y177100D03*
X285700Y185000D03*
X285800Y190800D03*
X281000Y215300D03*
X289000Y215300D03*
X297900Y11000D03*
X301563Y15863D03*
X301372Y3576D03*
X294372Y3576D03*
X299710Y29060D03*
X299710Y22060D03*
X299345Y83810D03*
X299345Y76810D03*
X299345Y97810D03*
X299345Y90810D03*
X297759Y141985D03*
X291000Y155800D03*
X298800Y160000D03*
X297759Y148985D03*
X303000Y161000D03*
X299400Y184900D03*
X299900Y191200D03*
X297000Y215300D03*
X302653Y211326D03*
X315372Y3576D03*
X308372Y3576D03*
X315900Y20800D03*
X309500Y58300D03*
X309300Y68700D03*
X309600Y63000D03*
X315318Y136132D03*
X307800Y169200D03*
X307800Y167000D03*
X313543Y165039D03*
X304295Y197795D03*
X304200Y200700D03*
X313543Y204961D03*
X316653Y211326D03*
X309653Y211326D03*
X324100Y11000D03*
X327563Y15737D03*
X329341Y26987D03*
X329341Y19987D03*
X321049Y26926D03*
X321049Y19926D03*
X329341Y40987D03*
X329341Y33987D03*
X321049Y33926D03*
X320331Y57200D03*
X322391Y59739D03*
X329341Y54987D03*
X329341Y47987D03*
X329219Y70275D03*
X329219Y63275D03*
X322391Y66739D03*
X329219Y84275D03*
X329219Y77275D03*
X318123Y86565D03*
X329219Y98275D03*
X329219Y91275D03*
X318123Y100565D03*
X318123Y93565D03*
X329219Y112275D03*
X329219Y105275D03*
X318123Y107565D03*
X319331Y128469D03*
X329219Y126275D03*
X329219Y119275D03*
X319098Y131621D03*
X329219Y140275D03*
X329219Y133275D03*
X319098Y138621D03*
X320135Y159483D03*
X329219Y154275D03*
X329219Y147275D03*
X330000Y165039D03*
X320135Y173483D03*
X320135Y166483D03*
X328331Y192331D03*
X320150Y200707D03*
X320150Y193707D03*
X330000Y204961D03*
X323653Y211326D03*
G54D21*
G01X230293Y3550D02*
G02X232261Y1581I0J-1968D01*
G01X232261Y0D01*
X322835Y0D01*
G03X334646Y11811I0J11811D01*
G01X334646Y208661D01*
G03X322835Y220472I-11811J0D01*
G01X11811Y220472D01*
G03X0Y208661I0J-11811D01*
G01X0Y11811D01*
G03X11811Y0I11811J0D01*
G01X215332Y0D01*
X215332Y1581D01*
G02X217301Y3550I1969J0D01*
G01X230293Y3550D01*
G01X230293Y3550D02*
G02X232261Y1581I0J-1968D01*
G01X232261Y0D01*
X322835Y0D01*
G03X334646Y11811I0J11811D01*
G01X334646Y208661D01*
G03X322835Y220472I-11811J0D01*
G01X11811Y220472D01*
G03X0Y208661I0J-11811D01*
G01X0Y11811D01*
G03X11811Y0I11811J0D01*
G01X215332Y0D01*
X215332Y1581D01*
G02X217301Y3550I1969J0D01*
G01X230293Y3550D02*
X217301Y3550D01*
G54D12*
X8066Y37457D03*
X8066Y94543D03*
G54D13*
X31609Y37457D03*
X31609Y94543D03*
G54D14*
X39622Y22370D03*
X62378Y22370D03*
X315630Y173622D03*
X315630Y196378D03*
G54D15*
X35000Y193000D03*
X45000Y193000D03*
X35000Y203000D03*
X45000Y203000D03*
X35000Y213000D03*
X45000Y213000D03*
X55000Y193000D03*
X55000Y203000D03*
X55000Y213000D03*
X65000Y193000D03*
X65000Y203000D03*
X75000Y203000D03*
X65000Y213000D03*
X75000Y213000D03*
X85000Y193000D03*
X85000Y203000D03*
X85000Y213000D03*
X95000Y193000D03*
X105000Y193000D03*
X95000Y203000D03*
X105000Y203000D03*
X95000Y213000D03*
X105000Y213000D03*
X115000Y203000D03*
X115000Y213000D03*
X125000Y203000D03*
X125000Y213000D03*
X135000Y203000D03*
X145000Y203000D03*
X135000Y213000D03*
X145000Y213000D03*
X155000Y203000D03*
X155000Y213000D03*
X165000Y203000D03*
X175000Y203000D03*
X165000Y213000D03*
X175000Y213000D03*
X185000Y203000D03*
X185000Y213000D03*
X195000Y203000D03*
X205000Y203000D03*
X195000Y213000D03*
X205000Y213000D03*
X215000Y203000D03*
X215000Y213000D03*
X225000Y213000D03*
X290000Y41220D03*
X290000Y58937D03*
X290000Y51063D03*
X290000Y68780D03*
X290000Y116063D03*
X290000Y106220D03*
X290000Y133780D03*
X290000Y123937D03*
X300315Y41220D03*
X300315Y51063D03*
X300315Y58937D03*
X300315Y68780D03*
X300315Y106220D03*
X300315Y116063D03*
X300315Y123937D03*
X300315Y133780D03*
G54D16*
X75000Y193000D03*
X115000Y193000D03*
X225000Y203000D03*
G54D17*
X215135Y10243D03*
X212773Y35833D03*
X216710Y44888D03*
X234427Y10243D03*
X233639Y20479D03*
X233639Y40164D03*
G54D18*
X223797Y40951D03*
G54D19*
X288622Y29134D03*
X288622Y80866D03*
X288622Y94134D03*
X288622Y145866D03*
X310984Y29134D03*
X310984Y80866D03*
X310984Y94134D03*
X310984Y145866D03*
M02*
