G04 ================== begin FILE IDENTIFICATION RECORD ==================*
G04 Layout Name:  F:/PCB_PROJECT/D1/PCB/D1.brd*
G04 Film Name:    SMB*
G04 File Format:  Gerber RS274X*
G04 File Origin:  Cadence Allegro 17.2-S079*
G04 Origin Date:  Sun Feb 13 14:23:57 2022*
G04 *
G04 Layer:  PIN/SOLDERMASK_BOTTOM*
G04 Layer:  BOARD GEOMETRY/OUTLINE*
G04 *
G04 Offset:    (0.00 0.00)*
G04 Mirror:    No*
G04 Mode:      Positive*
G04 Rotation:  0*
G04 FullContactRelief:  No*
G04 UndefLineWidth:     0.00*
G04 ================== end FILE IDENTIFICATION RECORD ====================*
%FSLAX25Y25*MOIN*%
%IR0*IPPOS*OFA0.00000B0.00000*MIA0B0*SFA1.00000B1.00000*%
%ADD11O,.10236X.05512*%
%ADD16C,.0605*%
%ADD26C,.01614*%
%ADD12O,.14173X.05512*%
%ADD20R,.0605X.0605*%
%ADD31R,.09055X.11417*%
%ADD28C,.05906*%
%ADD14R,.02362X.02362*%
%ADD29R,.031X.035*%
%ADD24R,.051X.046*%
%ADD21R,.038X.041*%
%ADD32C,.11024*%
%ADD22R,.041X.038*%
%ADD15R,.046X.051*%
%ADD13R,.029X.026*%
%ADD19R,.026X.029*%
%ADD10C,.2126*%
%ADD17R,.04016X.05591*%
%ADD33R,.05591X.04016*%
%ADD25R,.02047X.07165*%
%ADD23R,.03941X.07091*%
%ADD18R,.03228X.05591*%
%ADD30R,.05591X.03228*%
%ADD27O,.03937X.09055*%
%ADD34R,.04764X.03189*%
%LPD*%
G75*
G54D10*
X11811Y11811D03*
X11811Y208661D03*
X260000Y11811D03*
X260000Y208661D03*
G54D20*
X75000Y193000D03*
X115000Y193000D03*
X225000Y203000D03*
G54D11*
X8066Y37457D03*
X8066Y94543D03*
G54D30*
X271669Y58740D03*
X271669Y51260D03*
X270669Y116260D03*
X270669Y123740D03*
X280331Y51260D03*
X279331Y116260D03*
X311669Y46260D03*
X311669Y53740D03*
X310669Y117260D03*
X319331Y117260D03*
X310669Y124740D03*
X319669Y188740D03*
X319669Y181260D03*
X320331Y46260D03*
X328331Y181260D03*
G54D21*
X75900Y63500D03*
X75900Y69500D03*
X123400Y65300D03*
X123400Y71300D03*
X129400Y65300D03*
X129400Y71300D03*
X147000Y57000D03*
X141000Y57000D03*
X147000Y63000D03*
X141000Y63000D03*
G54D12*
X31609Y37457D03*
X31609Y94543D03*
G54D13*
X23900Y70000D03*
X20100Y70000D03*
X20100Y74000D03*
X23900Y74000D03*
X20100Y78000D03*
X23900Y78000D03*
X20100Y86000D03*
X23900Y86000D03*
X23900Y82000D03*
X20100Y82000D03*
X31600Y86000D03*
X27800Y86000D03*
X25100Y101000D03*
X28900Y101000D03*
X25100Y113000D03*
X28900Y113000D03*
X25100Y117000D03*
X28900Y117000D03*
X25100Y109000D03*
X28900Y109000D03*
X25100Y105000D03*
X28900Y105000D03*
X25100Y121000D03*
X28900Y121000D03*
X25100Y125000D03*
X28900Y125000D03*
X30100Y131000D03*
X30100Y142000D03*
X30100Y138000D03*
X30100Y184000D03*
X33900Y131000D03*
X33900Y142000D03*
X33900Y138000D03*
X33900Y184000D03*
X42900Y184000D03*
X39100Y184000D03*
X73100Y128000D03*
X72100Y120000D03*
X73100Y156000D03*
X76900Y128000D03*
X75900Y120000D03*
X80100Y120000D03*
X83900Y120000D03*
X76900Y156000D03*
X84900Y156000D03*
X81100Y156000D03*
X81900Y167000D03*
X78100Y167000D03*
X86100Y167000D03*
X86100Y171000D03*
X101900Y109000D03*
X98100Y109000D03*
X89900Y167000D03*
X98100Y166000D03*
X101900Y166000D03*
X89900Y171000D03*
X114700Y143600D03*
X114800Y135300D03*
X114800Y139300D03*
X129900Y60000D03*
X126100Y60000D03*
X120100Y113000D03*
X123900Y113000D03*
X131900Y113000D03*
X128100Y113000D03*
X131900Y142000D03*
X128100Y142000D03*
X118500Y143600D03*
X118600Y135300D03*
X131900Y138000D03*
X128100Y138000D03*
X118600Y139300D03*
X160100Y44000D03*
X160100Y48000D03*
X160100Y52000D03*
X160100Y56000D03*
X160100Y70000D03*
X160100Y74000D03*
X175100Y16000D03*
X163900Y44000D03*
X163900Y48000D03*
X163900Y52000D03*
X163900Y56000D03*
X163900Y70000D03*
X163900Y74000D03*
X170100Y140000D03*
X173900Y140000D03*
X170100Y144000D03*
X173900Y144000D03*
X178900Y16000D03*
X232100Y109000D03*
X227100Y130000D03*
X230900Y130000D03*
X227100Y125000D03*
X230900Y125000D03*
X227100Y120000D03*
X230900Y120000D03*
X230900Y148000D03*
X227100Y148000D03*
X227100Y152000D03*
X230900Y152000D03*
X225100Y157000D03*
X228900Y157000D03*
X225100Y167000D03*
X228900Y167000D03*
X225100Y162000D03*
X228900Y162000D03*
X241100Y75000D03*
X244900Y75000D03*
X235900Y109000D03*
X245100Y155000D03*
X245100Y151000D03*
X245100Y147000D03*
X257100Y118000D03*
X260900Y118000D03*
X257100Y122000D03*
X260900Y122000D03*
X248900Y155000D03*
X248900Y151000D03*
X248900Y147000D03*
X269100Y141000D03*
X272900Y141000D03*
X267100Y153000D03*
X270900Y153000D03*
X315900Y14000D03*
X312100Y14000D03*
X312100Y18000D03*
X315900Y18000D03*
G54D22*
X110000Y72000D03*
X116000Y72000D03*
X110000Y65000D03*
X116000Y65000D03*
X176000Y21000D03*
X182000Y21000D03*
X229000Y75000D03*
X227000Y110000D03*
X221000Y110000D03*
X226000Y177000D03*
X220000Y177000D03*
X235000Y75000D03*
G54D31*
X278339Y167000D03*
X295661Y167000D03*
G54D23*
X130921Y105000D03*
X121079Y105000D03*
G54D32*
X288622Y29134D03*
X288622Y80866D03*
X288622Y94134D03*
X288622Y145866D03*
X310984Y29134D03*
X310984Y80866D03*
X310984Y94134D03*
X310984Y145866D03*
G54D14*
X28027Y74000D03*
X31373Y74000D03*
X28027Y70000D03*
X31373Y70000D03*
X28027Y82000D03*
X31373Y82000D03*
X28027Y78000D03*
X31373Y78000D03*
X20000Y93673D03*
X20000Y90327D03*
X171673Y44000D03*
X168327Y44000D03*
X171673Y48000D03*
X168327Y48000D03*
X171673Y52000D03*
X168327Y52000D03*
X171673Y56000D03*
X168327Y56000D03*
X171673Y70000D03*
X168327Y70000D03*
X171673Y74000D03*
X168327Y74000D03*
X179673Y56000D03*
X176327Y56000D03*
X207000Y31327D03*
X207000Y34673D03*
X208327Y49000D03*
X211673Y49000D03*
X240600Y13073D03*
X240600Y9727D03*
X240600Y18727D03*
X240600Y22073D03*
G54D33*
X280331Y57953D03*
X279331Y122953D03*
X319331Y123953D03*
X320331Y52953D03*
X328331Y187953D03*
G54D15*
X44000Y35000D03*
X44000Y42000D03*
X52000Y35000D03*
X52000Y42000D03*
X116400Y81300D03*
X124400Y81300D03*
X261000Y83000D03*
X261000Y102000D03*
X269000Y83000D03*
X269000Y102000D03*
G54D24*
X147000Y70000D03*
X147000Y78000D03*
G54D34*
X288520Y180000D03*
X303480Y180000D03*
G54D25*
X186500Y71189D03*
X186500Y94811D03*
X201500Y71189D03*
X196500Y71189D03*
X191500Y71189D03*
X191500Y94811D03*
X196500Y94811D03*
X201500Y94811D03*
G54D16*
X35000Y193000D03*
X45000Y193000D03*
X35000Y203000D03*
X45000Y203000D03*
X35000Y213000D03*
X45000Y213000D03*
X55000Y193000D03*
X55000Y203000D03*
X55000Y213000D03*
X65000Y193000D03*
X65000Y203000D03*
X75000Y203000D03*
X65000Y213000D03*
X75000Y213000D03*
X85000Y193000D03*
X85000Y203000D03*
X85000Y213000D03*
X95000Y193000D03*
X105000Y193000D03*
X95000Y203000D03*
X105000Y203000D03*
X95000Y213000D03*
X105000Y213000D03*
X115000Y203000D03*
X115000Y213000D03*
X125000Y203000D03*
X125000Y213000D03*
X135000Y203000D03*
X145000Y203000D03*
X135000Y213000D03*
X145000Y213000D03*
X155000Y203000D03*
X155000Y213000D03*
X165000Y203000D03*
X175000Y203000D03*
X165000Y213000D03*
X175000Y213000D03*
X185000Y203000D03*
X185000Y213000D03*
X195000Y203000D03*
X205000Y203000D03*
X195000Y213000D03*
X205000Y213000D03*
X215000Y203000D03*
X215000Y213000D03*
X225000Y213000D03*
X290000Y41220D03*
X290000Y58937D03*
X290000Y51063D03*
X290000Y68780D03*
X290000Y116063D03*
X290000Y106220D03*
X290000Y133780D03*
X290000Y123937D03*
X300315Y41220D03*
X300315Y51063D03*
X300315Y58937D03*
X300315Y68780D03*
X300315Y106220D03*
X300315Y116063D03*
X300315Y123937D03*
X300315Y133780D03*
G54D17*
X53953Y9669D03*
G54D26*
X196701Y129827D03*
X193551Y129827D03*
X190402Y129827D03*
X196701Y126677D03*
X193551Y126677D03*
X190402Y126677D03*
X196701Y123528D03*
X193551Y123528D03*
X190402Y123528D03*
X196701Y120378D03*
X193551Y120378D03*
X190402Y120378D03*
X196701Y145575D03*
X193551Y145575D03*
X190402Y145575D03*
X196701Y142425D03*
X193551Y142425D03*
X190402Y142425D03*
X196701Y139276D03*
X193551Y139276D03*
X190402Y139276D03*
X196701Y136126D03*
X193551Y136126D03*
X190402Y136126D03*
X196701Y132976D03*
X193551Y132976D03*
X190402Y132976D03*
X196701Y158173D03*
X193551Y158173D03*
X190402Y158173D03*
X196701Y155024D03*
X193551Y155024D03*
X190402Y155024D03*
X196701Y151874D03*
X193551Y151874D03*
X190402Y151874D03*
X196701Y148724D03*
X193551Y148724D03*
X190402Y148724D03*
X196701Y167622D03*
X193551Y167622D03*
X190402Y167622D03*
X196701Y164472D03*
X193551Y164472D03*
X190402Y164472D03*
X196701Y161323D03*
X193551Y161323D03*
X190402Y161323D03*
X215598Y129827D03*
X212449Y129827D03*
X209299Y129827D03*
X215598Y126677D03*
X212449Y126677D03*
X209299Y126677D03*
X215598Y123528D03*
X212449Y123528D03*
X209299Y123528D03*
X215598Y120378D03*
X212449Y120378D03*
X209299Y120378D03*
X215598Y145575D03*
X212449Y145575D03*
X209299Y145575D03*
X215598Y142425D03*
X212449Y142425D03*
X209299Y142425D03*
X215598Y139276D03*
X212449Y139276D03*
X209299Y139276D03*
X215598Y136126D03*
X212449Y136126D03*
X209299Y136126D03*
X215598Y132976D03*
X212449Y132976D03*
X209299Y132976D03*
X215598Y158173D03*
X212449Y158173D03*
X209299Y158173D03*
X215598Y155024D03*
X212449Y155024D03*
X209299Y155024D03*
X215598Y151874D03*
X212449Y151874D03*
X209299Y151874D03*
X215598Y148724D03*
X212449Y148724D03*
X209299Y148724D03*
X215598Y167622D03*
X212449Y167622D03*
X209299Y167622D03*
X215598Y164472D03*
X212449Y164472D03*
X209299Y164472D03*
X215598Y161323D03*
X212449Y161323D03*
X209299Y161323D03*
G54D27*
X215135Y10243D03*
X212773Y35833D03*
X216710Y44888D03*
X234427Y10243D03*
X233639Y20479D03*
X233639Y40164D03*
G54D18*
X54740Y18331D03*
X47260Y18331D03*
X47260Y9669D03*
G54D19*
X51000Y158900D03*
X51000Y155100D03*
X81000Y66900D03*
X81000Y63100D03*
X85000Y66900D03*
X85000Y63100D03*
X103500Y123500D03*
X103500Y119700D03*
X103000Y173900D03*
X103000Y170100D03*
X107700Y123500D03*
X107700Y119700D03*
X112800Y123500D03*
X112800Y119700D03*
X105000Y144100D03*
X109000Y146200D03*
X109000Y142400D03*
X105000Y147900D03*
X112800Y152300D03*
X112800Y148500D03*
X116900Y152400D03*
X116900Y148600D03*
X112100Y167700D03*
X112100Y171500D03*
X130000Y21100D03*
X130000Y24900D03*
X128200Y124700D03*
X128200Y120900D03*
X128100Y129200D03*
X123200Y123500D03*
X123200Y119700D03*
X119100Y123500D03*
X119100Y119700D03*
X123200Y127600D03*
X123200Y131400D03*
X119100Y127600D03*
X119100Y131400D03*
X128100Y133000D03*
X123100Y135400D03*
X123100Y139200D03*
X128200Y157300D03*
X128200Y153500D03*
X123000Y151500D03*
X123000Y147700D03*
X137000Y103100D03*
X137000Y106900D03*
X133200Y130100D03*
X133200Y133900D03*
X133300Y152800D03*
X133300Y149000D03*
X137300Y156900D03*
X137300Y160700D03*
X133300Y156900D03*
X133300Y160700D03*
X141000Y174100D03*
X145000Y174100D03*
X145000Y183100D03*
X145000Y186900D03*
X141000Y186900D03*
X141000Y183100D03*
X141000Y177900D03*
X145000Y177900D03*
X154000Y21100D03*
X154000Y24900D03*
X158000Y21100D03*
X158000Y24900D03*
X180100Y73300D03*
X180100Y69500D03*
X182000Y131100D03*
X182000Y134900D03*
X207000Y72900D03*
X207000Y69100D03*
X211000Y72900D03*
X211000Y69100D03*
X212000Y91100D03*
X212000Y94900D03*
X216000Y91100D03*
X216000Y94900D03*
X227000Y87100D03*
X227000Y90900D03*
X220000Y91100D03*
X220000Y94900D03*
X258000Y157900D03*
X258000Y154100D03*
X254000Y154100D03*
X254000Y157900D03*
X262000Y139900D03*
X262000Y136100D03*
X262000Y157900D03*
X262000Y154100D03*
X277000Y10100D03*
X277000Y13900D03*
G54D28*
X223797Y40951D03*
G54D29*
X232300Y89900D03*
X232300Y103900D03*
X236000Y82100D03*
X239700Y89900D03*
X239700Y103900D03*
X236000Y96100D03*
M02*
