G04 ================== begin FILE IDENTIFICATION RECORD ==================*
G04 Layout Name:  F:/PCB_PROJECT/D1/PCB/D1.brd*
G04 Film Name:    SST*
G04 File Format:  Gerber RS274X*
G04 File Origin:  Cadence Allegro 17.2-S079*
G04 Origin Date:  Sun Feb 13 14:23:57 2022*
G04 *
G04 Layer:  MANUFACTURING/AUTOSILK_TOP*
G04 Layer:  BOARD GEOMETRY/OUTLINE*
G04 *
G04 Offset:    (0.00 0.00)*
G04 Mirror:    No*
G04 Mode:      Positive*
G04 Rotation:  0*
G04 FullContactRelief:  No*
G04 UndefLineWidth:     6.00*
G04 ================== end FILE IDENTIFICATION RECORD ====================*
%FSLAX25Y25*MOIN*%
%IR0*IPPOS*OFA0.00000B0.00000*MIA0B0*SFA1.00000B1.00000*%
%ADD10C,.006*%
G75*
%LPD*%
G75*
G54D10*
G01X230293Y3550D02*
G02X232261Y1581I0J-1968D01*
G01X232261Y0D01*
X322835Y0D01*
G03X334646Y11811I0J11811D01*
G01X334646Y208661D01*
G03X322835Y220472I-11811J0D01*
G01X11811Y220472D01*
G03X0Y208661I0J-11811D01*
G01X0Y11811D01*
G03X11811Y0I11811J0D01*
G01X215332Y0D01*
X215332Y1581D01*
G02X217301Y3550I1969J0D01*
G01X230293Y3550D01*
G01X230293Y3550D02*
G02X232261Y1581I0J-1968D01*
G01X232261Y0D01*
X322835Y0D01*
G03X334646Y11811I0J11811D01*
G01X334646Y208661D01*
G03X322835Y220472I-11811J0D01*
G01X11811Y220472D01*
G03X0Y208661I0J-11811D01*
G01X0Y11811D01*
G03X11811Y0I11811J0D01*
G01X215332Y0D01*
X215332Y1581D01*
G02X217301Y3550I1969J0D01*
G01X576Y79048D02*
X3676Y79048D01*
X3676Y78128D01*
X3521Y77821D01*
X3159Y77591D01*
X2746Y77514D01*
X2333Y77591D01*
X2023Y77783D01*
X1868Y78128D01*
X1868Y79048D01*
G01X3418Y74338D02*
X3573Y74568D01*
X3676Y74836D01*
X3676Y75143D01*
X3521Y75488D01*
X3263Y75756D01*
X2953Y75948D01*
X2436Y76101D01*
X1971Y76139D01*
X1506Y76063D01*
X1196Y75948D01*
X886Y75718D01*
X679Y75449D01*
X576Y75181D01*
X576Y74913D01*
X679Y74644D01*
X834Y74414D01*
X1041Y74223D01*
G01X2229Y71774D02*
X2384Y71621D01*
X2643Y71506D01*
X3004Y71429D01*
X3314Y71506D01*
X3521Y71659D01*
X3676Y71928D01*
X3676Y72963D01*
X576Y72963D01*
X576Y71698D01*
X783Y71429D01*
X1093Y71276D01*
X1454Y71199D01*
X1816Y71276D01*
X2126Y71506D01*
X2229Y71774D01*
X2229Y72963D01*
G01X576Y65114D02*
X576Y66648D01*
X3676Y66648D01*
X3676Y65114D01*
G01X2178Y65728D02*
X2178Y66648D01*
G01X576Y63624D02*
X3676Y63624D01*
X3676Y62858D01*
X3521Y62551D01*
X3314Y62321D01*
X3004Y62129D01*
X2643Y61976D01*
X2126Y61938D01*
X1609Y61976D01*
X1248Y62129D01*
X938Y62321D01*
X731Y62551D01*
X576Y62858D01*
X576Y63624D01*
G01X2126Y59451D02*
X2126Y58684D01*
X1196Y58684D01*
X886Y58914D01*
X679Y59183D01*
X576Y59566D01*
X679Y59949D01*
X886Y60218D01*
X1196Y60448D01*
X1558Y60601D01*
X1971Y60678D01*
X2333Y60678D01*
X2643Y60601D01*
X3004Y60448D01*
X3314Y60218D01*
X3521Y59988D01*
X3676Y59681D01*
X3676Y59413D01*
X3573Y59106D01*
X3366Y58876D01*
G01X576Y55814D02*
X576Y57348D01*
X3676Y57348D01*
X3676Y55814D01*
G01X2178Y56428D02*
X2178Y57348D01*
G01X78500Y90800D02*
X78583Y90587D01*
X78792Y90427D01*
X79042Y90320D01*
X79375Y90240D01*
X79750Y90213D01*
X80125Y90240D01*
X80458Y90320D01*
X80708Y90427D01*
X80917Y90587D01*
X81000Y90800D01*
X80917Y91013D01*
X80708Y91173D01*
X80458Y91280D01*
X80125Y91360D01*
X79750Y91387D01*
X79375Y91360D01*
X79042Y91280D01*
X78792Y91173D01*
X78583Y91013D01*
X78500Y90800D01*
G01X81083Y93000D02*
X81042Y92947D01*
X80958Y92947D01*
X80917Y93000D01*
X80958Y93053D01*
X81042Y93053D01*
X81083Y93000D01*
G01X80708Y94747D02*
X80917Y94933D01*
X81000Y95147D01*
X80917Y95360D01*
X80667Y95547D01*
X80292Y95680D01*
X79917Y95733D01*
X79458Y95733D01*
X79083Y95680D01*
X78750Y95547D01*
X78583Y95387D01*
X78500Y95200D01*
X78583Y94987D01*
X78750Y94827D01*
X79000Y94720D01*
X79333Y94667D01*
X79625Y94720D01*
X79917Y94853D01*
X80083Y95013D01*
X80125Y95200D01*
X80042Y95413D01*
X79833Y95573D01*
X79458Y95733D01*
G01X78500Y96733D02*
X81000Y97400D01*
X78500Y98067D01*
G01X99500Y90213D02*
X99792Y90373D01*
X99958Y90587D01*
X100000Y90827D01*
X99958Y91040D01*
X99750Y91253D01*
X99500Y91387D01*
X99250Y91413D01*
X98958Y91360D01*
X98750Y91173D01*
X98667Y90987D01*
X98667Y90747D01*
G01X98667Y90987D02*
X98542Y91147D01*
X98333Y91280D01*
X98083Y91333D01*
X97833Y91280D01*
X97625Y91147D01*
X97500Y90907D01*
X97542Y90667D01*
X97708Y90427D01*
G01X100083Y93000D02*
X100042Y92947D01*
X99958Y92947D01*
X99917Y93000D01*
X99958Y93053D01*
X100042Y93053D01*
X100083Y93000D01*
G01X99500Y94613D02*
X99792Y94773D01*
X99958Y94987D01*
X100000Y95227D01*
X99958Y95440D01*
X99750Y95653D01*
X99500Y95787D01*
X99250Y95813D01*
X98958Y95760D01*
X98750Y95573D01*
X98667Y95387D01*
X98667Y95147D01*
G01X98667Y95387D02*
X98542Y95547D01*
X98333Y95680D01*
X98083Y95733D01*
X97833Y95680D01*
X97625Y95547D01*
X97500Y95307D01*
X97542Y95067D01*
X97708Y94827D01*
G01X97500Y96733D02*
X100000Y97400D01*
X97500Y98067D01*
G01X115293Y87083D02*
X115453Y87333D01*
X115640Y87458D01*
X115853Y87500D01*
X116120Y87417D01*
X116307Y87208D01*
X116360Y86958D01*
X116333Y86708D01*
X116227Y86500D01*
X115693Y86083D01*
X115453Y85792D01*
X115293Y85375D01*
X115240Y85000D01*
X116360Y85000D01*
G01X118000Y84917D02*
X117947Y84958D01*
X117947Y85042D01*
X118000Y85083D01*
X118053Y85042D01*
X118053Y84958D01*
X118000Y84917D01*
G01X120200Y85000D02*
X120387Y85042D01*
X120600Y85167D01*
X120733Y85375D01*
X120787Y85667D01*
X120733Y85958D01*
X120573Y86208D01*
X120333Y86333D01*
X120067Y86333D01*
X119907Y86417D01*
X119773Y86625D01*
X119720Y86917D01*
X119800Y87208D01*
X119987Y87417D01*
X120200Y87500D01*
X120413Y87417D01*
X120600Y87208D01*
X120680Y86917D01*
X120627Y86625D01*
X120493Y86417D01*
X120333Y86333D01*
X120067Y86333D01*
X119827Y86208D01*
X119667Y85958D01*
X119613Y85667D01*
X119667Y85375D01*
X119800Y85167D01*
X120013Y85042D01*
X120200Y85000D01*
G01X121733Y87500D02*
X122400Y85000D01*
X123067Y87500D01*
G01X124800Y186000D02*
X124800Y188500D01*
X124480Y188000D01*
G01X124480Y186000D02*
X125120Y186000D01*
G01X127000Y185917D02*
X126947Y185958D01*
X126947Y186042D01*
X127000Y186083D01*
X127053Y186042D01*
X127053Y185958D01*
X127000Y185917D01*
G01X129200Y186000D02*
X129387Y186042D01*
X129600Y186167D01*
X129733Y186375D01*
X129787Y186667D01*
X129733Y186958D01*
X129573Y187208D01*
X129333Y187333D01*
X129067Y187333D01*
X128907Y187417D01*
X128773Y187625D01*
X128720Y187917D01*
X128800Y188208D01*
X128987Y188417D01*
X129200Y188500D01*
X129413Y188417D01*
X129600Y188208D01*
X129680Y187917D01*
X129627Y187625D01*
X129493Y187417D01*
X129333Y187333D01*
X129067Y187333D01*
X128827Y187208D01*
X128667Y186958D01*
X128613Y186667D01*
X128667Y186375D01*
X128800Y186167D01*
X129013Y186042D01*
X129200Y186000D01*
G01X130733Y188500D02*
X131400Y186000D01*
X132067Y188500D01*
G01X132800Y80000D02*
X132800Y82500D01*
X132480Y82000D01*
G01X132480Y80000D02*
X133120Y80000D01*
G01X135000Y79917D02*
X134947Y79958D01*
X134947Y80042D01*
X135000Y80083D01*
X135053Y80042D01*
X135053Y79958D01*
X135000Y79917D01*
G01X136613Y80500D02*
X136773Y80208D01*
X136987Y80042D01*
X137227Y80000D01*
X137440Y80042D01*
X137653Y80250D01*
X137787Y80500D01*
X137813Y80750D01*
X137760Y81042D01*
X137573Y81250D01*
X137387Y81333D01*
X137147Y81333D01*
G01X137387Y81333D02*
X137547Y81458D01*
X137680Y81667D01*
X137733Y81917D01*
X137680Y82167D01*
X137547Y82375D01*
X137307Y82500D01*
X137067Y82458D01*
X136827Y82292D01*
G01X138813Y80375D02*
X138973Y80167D01*
X139160Y80042D01*
X139400Y80000D01*
X139640Y80083D01*
X139827Y80250D01*
X139960Y80542D01*
X139987Y80875D01*
X139933Y81208D01*
X139800Y81417D01*
X139613Y81583D01*
X139427Y81625D01*
X139240Y81583D01*
X139000Y81417D01*
X139080Y82500D01*
X139800Y82500D01*
G01X140933Y82500D02*
X141600Y80000D01*
X142267Y82500D01*
G01X220717Y169591D02*
X185283Y169591D01*
X185283Y118409D01*
X220717Y118409D01*
X220717Y169591D01*
G01X217764Y117819D02*
X188236Y117819D01*
X188236Y170181D01*
X217764Y170181D01*
X217764Y117819D01*
G01X210500Y97400D02*
X212500Y97400D01*
X212100Y97640D01*
G01X210500Y97640D02*
X210500Y97159D01*
G01X230293Y3550D02*
X217301Y3550D01*
G01X-320Y36472D02*
X-320Y95450D01*
X-243Y95528D01*
G01X-9020Y36472D02*
X2844Y36472D01*
G01X2844Y95528D02*
X-9020Y95528D01*
X-9020Y36472D01*
G01X13288Y36472D02*
X24419Y36472D01*
G01X24419Y95528D02*
X13288Y95528D01*
G01X9465Y102063D02*
X9465Y109937D01*
G01X9031Y102063D02*
X9031Y102157D01*
G01X8638Y102063D02*
X8638Y102157D01*
G01X6669Y102063D02*
X6669Y102157D01*
G01X15331Y102157D02*
X15331Y102063D01*
X6669Y102063D01*
G01X9031Y105513D02*
X9031Y106487D01*
G01X9031Y109843D02*
X9031Y109937D01*
G01X8638Y105513D02*
X8638Y106487D01*
G01X8638Y109843D02*
X8638Y109937D01*
G01X6669Y105513D02*
X6669Y106487D01*
G01X6669Y109843D02*
X6669Y109937D01*
X15331Y109937D01*
X15331Y109843D01*
G01X15331Y106487D02*
X15331Y105513D01*
G01X4543Y109032D02*
G03X4543Y109032I-984J-1D01*
G01X14291Y130921D02*
X13709Y130921D01*
G01X10063Y127078D02*
X10063Y124922D01*
G01X13709Y121079D02*
X14291Y121079D01*
G01X10937Y184409D02*
X10937Y173591D01*
G01X3063Y173591D02*
X3063Y184409D01*
G01X17937Y124922D02*
X17937Y127078D01*
G01X29378Y118378D02*
X33802Y118378D01*
G01X29378Y129890D02*
X29378Y129308D01*
G01X29378Y126346D02*
X29378Y125764D01*
G01X29378Y122802D02*
X29378Y118378D01*
G01X29378Y144062D02*
X29378Y143480D01*
G01X29378Y140520D02*
X29378Y139938D01*
G01X29378Y136976D02*
X29378Y136394D01*
G01X29378Y133432D02*
X29378Y132850D01*
G01X29378Y158236D02*
X29378Y157654D01*
G01X29378Y154692D02*
X29378Y154110D01*
G01X29378Y151150D02*
X29378Y150568D01*
G01X29378Y147606D02*
X29378Y147024D01*
G01X21126Y173354D02*
X21126Y171094D01*
X36874Y171094D01*
X36874Y173354D01*
G01X28591Y167984D02*
X27016Y166409D01*
X28591Y166409D01*
X28591Y167984D01*
G01X33802Y165622D02*
X29378Y165622D01*
X29378Y161198D01*
G01X21126Y182906D02*
X21126Y180646D01*
G01X36874Y180646D02*
X36874Y182906D01*
X21126Y182906D01*
G01X33402Y-2236D02*
X68598Y-2236D01*
G01X68598Y5338D02*
X68598Y-3535D01*
X33402Y-3535D01*
X33402Y5338D01*
G01X33402Y10662D02*
X33402Y21302D01*
G01X34882Y25205D02*
X36724Y25205D01*
G01X39686Y25205D02*
X39873Y25205D01*
G01X42835Y25205D02*
X43220Y25205D01*
G01X45000Y25205D02*
X45188Y25205D01*
G01X38420Y40316D02*
X38420Y47392D01*
G01X41216Y45882D02*
G03X41216Y45882I-985J0D01*
G01X38420Y49174D02*
X38420Y49361D01*
G01X38420Y51143D02*
X38420Y51329D01*
G01X38420Y53111D02*
X38420Y53298D01*
G01X38420Y55080D02*
X38420Y55266D01*
G01X38420Y57048D02*
X38420Y57235D01*
G01X38420Y59017D02*
X38420Y59203D01*
G01X38420Y60985D02*
X38420Y61172D01*
G01X38420Y62954D02*
X38420Y63140D01*
G01X38420Y64922D02*
X38420Y65109D01*
G01X38420Y66891D02*
X38420Y67078D01*
G01X38420Y68860D02*
X38420Y69046D01*
G01X38420Y70828D02*
X38420Y71015D01*
G01X38420Y72797D02*
X38420Y72983D01*
G01X38420Y74765D02*
X38420Y74952D01*
G01X38420Y76734D02*
X38420Y76920D01*
G01X38420Y78702D02*
X38420Y78889D01*
G01X38420Y80671D02*
X38420Y80857D01*
G01X38420Y82639D02*
X38420Y82826D01*
G01X38420Y84608D02*
X38420Y91684D01*
G01X36764Y118378D02*
X37346Y118378D01*
G01X40308Y118378D02*
X40890Y118378D01*
G01X43850Y118378D02*
X44432Y118378D01*
G01X44432Y165622D02*
X43850Y165622D01*
G01X40890Y165622D02*
X40308Y165622D01*
G01X37346Y165622D02*
X36764Y165622D01*
G01X46970Y25205D02*
X47156Y25205D01*
G01X48938Y25205D02*
X49126Y25205D01*
G01X50906Y25205D02*
X51094Y25205D01*
G01X52874Y25205D02*
X53062Y25205D01*
G01X54844Y25205D02*
X55030Y25205D01*
G01X56812Y25205D02*
X57000Y25205D01*
G01X58780Y25205D02*
X59165Y25205D01*
G01X54850Y76882D02*
X54850Y87118D01*
X53575Y87118D01*
G01X49825Y87118D02*
X48550Y87118D01*
X48550Y76882D01*
X49825Y76882D01*
G01X53575Y76882D02*
X54850Y76882D01*
G01X48550Y79063D02*
X48550Y78980D01*
G01X48550Y79000D02*
X54850Y79000D01*
G01X47394Y118378D02*
X47976Y118378D01*
G01X50938Y118378D02*
X51520Y118378D01*
G01X54480Y118378D02*
X55062Y118378D01*
G01X58024Y118378D02*
X58606Y118378D01*
G01X58606Y165622D02*
X58024Y165622D01*
G01X55062Y165622D02*
X54480Y165622D01*
G01X51520Y165622D02*
X50938Y165622D01*
G01X47976Y165622D02*
X47394Y165622D01*
G01X68598Y21302D02*
X68598Y10662D01*
G01X62127Y25205D02*
X62314Y25205D01*
G01X65276Y25205D02*
X67118Y25205D01*
G01X62191Y58650D02*
X62191Y52350D01*
X73609Y52350D01*
X73609Y58650D01*
X62191Y58650D01*
G01X61568Y118378D02*
X62150Y118378D01*
G01X65110Y118378D02*
X65692Y118378D01*
G01X68654Y118378D02*
X69236Y118378D01*
G01X72198Y118378D02*
X76622Y118378D01*
X76622Y122802D01*
G01X76622Y161198D02*
X76622Y165622D01*
X72198Y165622D01*
G01X69236Y165622D02*
X68654Y165622D01*
G01X65692Y165622D02*
X65110Y165622D01*
G01X62150Y165622D02*
X61568Y165622D01*
G01X84000Y13000D02*
X84000Y18000D01*
X78000Y18000D01*
X78000Y13000D01*
G01X84000Y11000D02*
X84000Y6000D01*
X78000Y6000D01*
X78000Y11000D01*
G01X84000Y16000D02*
X82800Y16000D01*
G01X79200Y16000D02*
X78000Y16000D01*
G01X91000Y13000D02*
X91000Y18000D01*
X85000Y18000D01*
X85000Y13000D01*
G01X91000Y11000D02*
X91000Y6000D01*
X85000Y6000D01*
X85000Y11000D01*
G01X86200Y16000D02*
X85000Y16000D01*
G01X83191Y58650D02*
X83191Y52350D01*
X94609Y52350D01*
X94609Y58650D01*
X83191Y58650D01*
G01X76622Y125764D02*
X76622Y126346D01*
G01X76622Y129308D02*
X76622Y129890D01*
G01X76622Y132850D02*
X76622Y133432D01*
G01X76622Y136394D02*
X76622Y136976D01*
G01X76622Y139938D02*
X76622Y140520D01*
G01X76622Y143480D02*
X76622Y144062D01*
G01X76622Y147024D02*
X76622Y147606D01*
G01X76622Y150568D02*
X76622Y151150D01*
G01X76622Y154110D02*
X76622Y154692D01*
G01X76622Y157654D02*
X76622Y158236D01*
G01X91000Y16000D02*
X89800Y16000D01*
G01X98000Y13000D02*
X98000Y18000D01*
X92000Y18000D01*
X92000Y13000D01*
G01X98000Y11000D02*
X98000Y6000D01*
X92000Y6000D01*
X92000Y11000D01*
G01X98000Y16000D02*
X96800Y16000D01*
G01X93200Y16000D02*
X92000Y16000D01*
G01X112906Y11094D02*
X112906Y22906D01*
X101094Y22906D01*
X101094Y11094D01*
X112906Y11094D01*
G01X103063Y11094D02*
X101094Y13063D01*
G01X99536Y116795D02*
G03X98551Y117780I-985J0D01*
G01X98551Y117780D02*
G03X97566Y116795I0J-985D01*
G01X97566Y116795D02*
G03X98551Y115810I985J0D01*
G01X98551Y115810D02*
G03X99536Y116795I0J985D01*
G01X97213Y118213D02*
X97213Y169787D01*
X148787Y169787D01*
X148787Y118213D01*
X97213Y118213D01*
G01X183865Y2140D02*
X116935Y2140D01*
X116935Y6958D01*
G01X116935Y19369D02*
X116935Y20644D01*
X124809Y20644D01*
X124809Y28518D01*
X175991Y28518D01*
X175991Y20644D01*
X183865Y20644D01*
X183865Y19369D01*
G01X104591Y58250D02*
X104591Y51950D01*
X116009Y51950D01*
X116009Y58250D01*
X104591Y58250D01*
G01X125191Y58750D02*
X125191Y52450D01*
X136609Y52450D01*
X136609Y58750D01*
X125191Y58750D01*
G01X117079Y101291D02*
X117079Y100709D01*
G01X120922Y97063D02*
X123078Y97063D01*
G01X126921Y100709D02*
X126921Y101291D01*
G01X123078Y104937D02*
X120922Y104937D01*
G01X141400Y56100D02*
X138400Y56100D01*
X138400Y63100D01*
X141400Y63100D01*
X141400Y56100D01*
G01X150400Y7652D02*
X149613Y6864D01*
G01X150400Y4502D02*
X150400Y7652D01*
X151187Y6864D01*
G01X147346Y36559D02*
X147346Y81441D01*
X147440Y81441D01*
G01X155275Y36559D02*
X147346Y36559D01*
G01X157189Y59000D02*
X155220Y60969D01*
G01X149315Y59000D02*
X157189Y59000D01*
X155220Y57031D01*
G01X169000Y42165D02*
X169000Y36559D01*
X161781Y36559D01*
G01X169000Y59487D02*
X169000Y58513D01*
G01X169000Y55157D02*
X169000Y54182D01*
G01X169000Y50826D02*
X169000Y49851D01*
G01X169000Y46495D02*
X169000Y45521D01*
G01X169000Y72479D02*
X169000Y71505D01*
G01X169000Y68149D02*
X169000Y67174D01*
G01X169000Y63818D02*
X169000Y62843D01*
G01X161032Y81441D02*
X169000Y81441D01*
X169000Y75835D01*
G01X183865Y6958D02*
X183865Y2140D01*
G01X181500Y156500D02*
X184500Y156500D01*
X184500Y149500D01*
X181500Y149500D01*
X181500Y156500D01*
G01X211150Y93630D02*
X211150Y72370D01*
X194850Y72370D01*
X194850Y93630D01*
X211150Y93630D01*
G01X233049Y-781D02*
X233049Y-8655D01*
X213364Y-8655D01*
X213364Y-781D01*
G01X235411Y-781D02*
X211002Y-781D01*
X211002Y31006D01*
G01X211002Y40660D02*
X211002Y47054D01*
X214442Y47054D01*
G01X218978Y47054D02*
X235411Y47054D01*
X235411Y44991D01*
G01X234320Y66765D02*
X225762Y66765D01*
X225762Y75520D01*
G01X225762Y77300D02*
X225762Y77489D01*
G01X225762Y79270D02*
X225762Y79457D01*
G01X225762Y81238D02*
X225762Y81426D01*
G01X225762Y83206D02*
X225762Y83394D01*
G01X225762Y85174D02*
X225762Y85363D01*
G01X225762Y87144D02*
X225762Y87331D01*
G01X225762Y89112D02*
X225762Y89300D01*
G01X225762Y91080D02*
X225762Y99835D01*
X234320Y99835D01*
G01X219000Y116000D02*
X223000Y116000D01*
X223000Y120000D01*
G01X229850Y182291D02*
X236150Y182291D01*
X236150Y193709D01*
X229850Y193709D01*
X229850Y182291D01*
G01X235411Y5416D02*
X235411Y-781D01*
G01X235411Y15652D02*
X235411Y15070D01*
G01X235411Y35337D02*
X235411Y25306D01*
G01X249384Y99835D02*
X249384Y66765D01*
X240826Y66765D01*
G01X245447Y83300D02*
X246235Y82513D01*
G01X248597Y83300D02*
X245447Y83300D01*
X246235Y84087D01*
G01X240826Y99835D02*
X249384Y99835D01*
G01X248000Y138000D02*
X248000Y135000D01*
X251000Y135000D01*
G01X250157Y144141D02*
X250157Y143954D01*
G01X250157Y142172D02*
X250157Y141985D01*
G01X250157Y140204D02*
X250157Y137157D01*
X253204Y137157D01*
G01X254985Y137157D02*
X255172Y137157D01*
G01X256954Y137157D02*
X257141Y137157D01*
G01X258922Y137157D02*
X259109Y137157D01*
G01X259109Y156843D02*
X258922Y156843D01*
G01X257141Y156843D02*
X256954Y156843D01*
G01X255172Y156843D02*
X254985Y156843D01*
G01X253204Y156843D02*
X250157Y156843D01*
X250157Y153796D01*
G01X250157Y152015D02*
X250157Y151828D01*
G01X250157Y150046D02*
X250157Y149859D01*
G01X250157Y148078D02*
X250157Y147891D01*
G01X250157Y146109D02*
X250157Y145922D01*
G01X268150Y46709D02*
X261850Y46709D01*
X261850Y35291D01*
X268150Y35291D01*
X268150Y46709D01*
G01X268150Y75709D02*
X261850Y75709D01*
X261850Y64291D01*
X268150Y64291D01*
X268150Y75709D01*
G01X268150Y95709D02*
X261850Y95709D01*
X261850Y84291D01*
X268150Y84291D01*
X268150Y95709D01*
G01X268150Y115709D02*
X261850Y115709D01*
X261850Y104291D01*
X268150Y104291D01*
X268150Y115709D01*
G01X269843Y137157D02*
X269843Y140204D01*
G01X269843Y141985D02*
X269843Y142172D01*
G01X269843Y143954D02*
X269843Y144141D01*
G01X260891Y137157D02*
X261078Y137157D01*
G01X262859Y137157D02*
X263046Y137157D01*
G01X264828Y137157D02*
X265015Y137157D01*
G01X266796Y137157D02*
X269843Y137157D01*
G01X269843Y145922D02*
X269843Y146109D01*
G01X269843Y147891D02*
X269843Y148078D01*
G01X269843Y149859D02*
X269843Y150046D01*
G01X269843Y151828D02*
X269843Y152015D01*
G01X269843Y153796D02*
X269843Y156843D01*
X266796Y156843D01*
G01X265015Y156843D02*
X264828Y156843D01*
G01X263046Y156843D02*
X262859Y156843D01*
G01X261078Y156843D02*
X260891Y156843D01*
G01X285126Y16906D02*
X285126Y14646D01*
G01X285126Y7354D02*
X285126Y5094D01*
X300874Y5094D01*
X300874Y7354D01*
G01X300874Y14646D02*
X300874Y16906D01*
X285126Y16906D01*
G01X282811Y29213D02*
X281457Y29213D01*
X281457Y80787D01*
X282811Y80787D01*
G01X282811Y94213D02*
X281457Y94213D01*
X281457Y145787D01*
X282811Y145787D01*
G01X287709Y158079D02*
X288291Y158079D01*
G01X284063Y164078D02*
X284063Y161922D01*
G01X288291Y167921D02*
X287709Y167921D01*
G01X289150Y190709D02*
X282850Y190709D01*
X282850Y179291D01*
X289150Y179291D01*
X289150Y190709D01*
G01X292000Y201000D02*
X292000Y206000D01*
X286000Y206000D01*
X286000Y201000D01*
G01X292000Y199000D02*
X292000Y194000D01*
X286000Y194000D01*
X286000Y199000D01*
G01X284000Y201000D02*
X284000Y206000D01*
X278000Y206000D01*
X278000Y201000D01*
G01X284000Y199000D02*
X284000Y194000D01*
X278000Y194000D01*
X278000Y199000D01*
G01X287200Y204000D02*
X286000Y204000D01*
G01X284000Y204000D02*
X282800Y204000D01*
G01X279200Y204000D02*
X278000Y204000D01*
G01X305173Y29213D02*
X294433Y29213D01*
G01X294433Y80787D02*
X305173Y80787D01*
G01X305173Y94213D02*
X294433Y94213D01*
G01X294433Y145787D02*
X305173Y145787D01*
G01X291937Y161922D02*
X291937Y164078D01*
G01X300000Y201000D02*
X300000Y206000D01*
X294000Y206000D01*
X294000Y201000D01*
G01X300000Y199000D02*
X300000Y194000D01*
X294000Y194000D01*
X294000Y199000D01*
G01X292000Y204000D02*
X290800Y204000D01*
G01X300000Y204000D02*
X298800Y204000D01*
G01X295200Y204000D02*
X294000Y204000D01*
G01X311126Y16906D02*
X311126Y14646D01*
G01X311126Y7354D02*
X311126Y5094D01*
X326874Y5094D01*
X326874Y7354D01*
G01X326874Y14646D02*
X326874Y16906D01*
X311126Y16906D01*
G01X350354Y80787D02*
X350354Y29213D01*
X316796Y29213D01*
G01X316796Y80787D02*
X350354Y80787D01*
G01X350354Y145787D02*
X350354Y94213D01*
X316796Y94213D01*
G01X316796Y145787D02*
X350354Y145787D01*
G01X312795Y168882D02*
X312795Y170724D01*
G01X312795Y173686D02*
X312795Y173873D01*
G01X327338Y167402D02*
X316698Y167402D01*
G01X312795Y176835D02*
X312795Y177220D01*
G01X312795Y179000D02*
X312795Y179188D01*
G01X312795Y180970D02*
X312795Y181156D01*
G01X312795Y182938D02*
X312795Y183126D01*
G01X312795Y184906D02*
X312795Y185094D01*
G01X312795Y186874D02*
X312795Y187062D01*
G01X312795Y188844D02*
X312795Y189030D01*
G01X312795Y190812D02*
X312795Y191000D01*
G01X312795Y192780D02*
X312795Y193165D01*
G01X312795Y196127D02*
X312795Y196314D01*
G01X312795Y199276D02*
X312795Y201118D01*
G01X316698Y202598D02*
X327338Y202598D01*
G01X340236Y167402D02*
X340236Y202598D01*
G01X332662Y202598D02*
X341535Y202598D01*
X341535Y167402D01*
X332662Y167402D01*
M02*
